<?xml version="1.0" encoding="utf-8"?>
<!-- Generator: Adobe Illustrator 27.0.1, SVG Export Plug-In . SVG Version: 6.00 Build 0)  -->
<svg version="1.1" id="Layer_1" xmlns="http://www.w3.org/2000/svg" xmlns:xlink="http://www.w3.org/1999/xlink" x="0px" y="0px"
	 width="1024px" height="1024px" viewBox="0 0 1024 1024" enable-background="new 0 0 1024 1024" xml:space="preserve">
<path id="text" fill="#ABABAB" d="M172.449,386.84c18.22-16.704,43.629-25.057,76.227-25.057c21.251,0,39.435,3.665,54.483,10.995
	c15.048,7.33,26.431,17.268,34.184,29.814c7.718,12.581,11.594,26.713,11.594,42.466c0,18.784-4.546,33.761-13.674,44.968
	c-9.128,11.172-19.488,18.713-31.083,22.59v1.656c33.409,12.44,50.113,36.193,50.113,71.258c0,17.409-4.018,32.739-12.017,45.99
	c-8,13.251-19.629,23.612-34.783,31.083c-15.189,7.471-33.303,11.172-54.272,11.172c-34.537,0-61.813-8.352-81.83-25.057
	c-20.017-16.704-30.449-42.325-31.294-76.861h79.117c-0.564,11.066,1.797,19.629,7.048,25.691c5.251,6.062,13.11,9.128,23.612,9.128
	c8,0,14.308-2.502,18.854-7.471c4.546-4.969,6.837-11.594,6.837-19.876c0-10.502-3.383-18.22-10.15-23.189
	s-17.762-7.471-32.951-7.471h-14.414v-65.866h14.097c10.502,0.282,19.418-1.445,26.713-5.18c7.33-3.736,10.995-11.242,10.995-22.59
	c0-8.564-2.079-14.978-6.202-19.277c-4.158-4.264-9.797-6.414-16.986-6.414c-8,0-13.885,2.819-17.621,8.493
	c-3.736,5.674-5.885,12.652-6.414,20.933h-79.187C144.573,427.509,154.23,403.545,172.449,386.84z M500.723,434.698
	c-4.405-4.405-10.925-6.625-19.453-6.625c-12.969,0-22.026,6.061-27.136,18.22s-7.824,31.224-8.07,57.161
	c5.533-8.564,13.533-15.33,24.035-20.299s22.096-7.471,34.818-7.471c26.783,0,48.281,8.282,64.421,24.845
	c16.141,16.563,24.246,40.316,24.246,71.258c0,20.44-4.229,38.307-12.652,53.637c-8.423,15.33-20.581,27.136-36.475,35.418
	c-15.894,8.282-34.607,12.44-56.14,12.44c-42.818,0-72.562-13.321-89.266-39.964c-16.704-26.642-25.057-64.421-25.057-113.301
	c0-54.131,8.846-93.918,26.501-119.327c17.656-25.409,46.131-38.131,85.355-38.131c31.753,0,55.858,8.916,72.28,26.713
	c16.422,17.832,25.62,39.858,27.559,66.078h-75.417C508.3,446.011,505.128,439.103,500.723,434.698z M461.147,546.977
	c-6.202,5.533-9.339,13.392-9.339,23.612c0,10.784,2.89,19.066,8.705,24.845c5.815,5.815,14.097,8.705,24.845,8.705
	c9.938,0,17.762-2.819,23.4-8.493c5.674-5.674,8.493-13.744,8.493-24.246c0-10.22-2.819-18.22-8.493-24.035
	c-5.674-5.815-13.603-8.705-23.823-8.705C475.314,538.66,467.349,541.444,461.147,546.977z M645.565,403.192
	c19.312-27.347,49.726-41.021,91.134-41.021c41.409,0,71.892,13.674,91.346,41.021c19.488,27.347,29.215,64.774,29.215,112.279
	c0,48.069-9.656,85.742-29.004,113.09c-19.347,27.347-49.867,41.021-91.557,41.021c-41.691,0-72.174-13.674-91.346-41.021
	c-19.207-27.347-28.792-65.056-28.792-113.09C616.561,467.966,626.253,430.54,645.565,403.192z M769.015,458.521
	c-5.251-13.11-16.035-19.665-32.316-19.665c-16.317,0-27.065,6.555-32.316,19.665s-7.859,32.105-7.859,56.95
	c0,25.409,2.537,44.686,7.683,57.796c5.11,13.11,15.964,19.665,32.528,19.665c16.563,0,27.418-6.555,32.528-19.665
	c5.11-13.11,7.647-32.387,7.647-57.796C776.909,490.626,774.266,471.631,769.015,458.521z M944.447,465.57
	c-43.312,0-78.553-35.241-78.553-78.553s35.241-78.553,78.553-78.553S1023,343.705,1023,387.016S987.759,465.57,944.447,465.57z
	 M944.447,364.286c-12.546,0-22.731,10.185-22.731,22.731s10.185,22.731,22.731,22.731s22.731-10.185,22.731-22.731
	C967.178,374.471,956.958,364.286,944.447,364.286z"/>
<path id="arrow" fill="#4EF1E0" d="M781.984,179.445v115.134c0,13.709-11.136,24.845-24.845,24.845H642.005
	c-10.044,0-19.101-6.061-22.942-15.33c-3.841-9.268-1.727-19.947,5.392-27.065l29.532-29.532
	c-63.188-54.554-144.666-85.214-228.717-85.214c-192.841,0-349.735,156.895-349.735,349.735S232.43,861.753,425.271,861.753
	c110.764,0,212.611-50.783,279.429-139.38c12.405-16.422,35.735-19.7,52.192-7.295c16.422,12.37,19.7,35.735,7.295,52.157
	c-38.695,51.347-89.372,93.848-146.498,122.957c-59.946,30.554-124.684,46.025-192.383,46.025
	c-57.232,0-112.808-11.207-165.141-33.338c-50.536-21.356-95.892-51.946-134.834-90.888C86.39,773.051,55.8,727.66,34.444,677.159
	C12.242,624.825,1,569.285,1,512.018s11.242-112.843,33.338-165.141c21.392-50.536,51.981-95.892,90.923-134.834
	s84.333-69.531,134.834-90.923c52.333-22.132,107.909-33.338,165.141-33.338c59.981,0,117.988,12.264,172.366,36.475
	c40.069,17.832,76.65,41.444,109.213,70.412l32.774-32.774c7.119-7.119,17.797-9.233,27.065-5.392
	C775.923,160.344,781.984,169.401,781.984,179.445z"/>
</svg>
