<svg width="122" height="30" viewBox="0 0 122 30" fill="none" xmlns="http://www.w3.org/2000/svg">
<path d="M105.965 7.31226e-05C115.468 -0.0258033 121.855 6.82156 121.855 15.025C121.855 23.2327 115.484 29.9957 105.95 30H16.1417C6.60772 29.9957 0.233765 23.2327 0.233765 15.025C0.233765 6.82156 6.62068 -0.025807 16.1287 7.31226e-05H105.965ZM105.917 3.68769H16.1698C8.61863 3.70066 3.98773 8.75723 3.98773 15.0055C3.98773 21.2559 8.59487 26.3471 16.1698 26.3212H105.917C113.499 26.3471 118.101 21.2559 118.101 15.0055C118.101 8.75723 113.468 3.70066 105.917 3.68769ZM63.064 12.0555C66.5135 12.0555 69.3214 14.467 69.3214 17.3781C69.3214 17.3781 69.2708 17.3794 69.1778 17.3799L69.0073 17.3806C68.9405 17.3809 68.8641 17.3811 68.7791 17.3813L68.2709 17.3822L68.073 17.3824L67.1688 17.3831H63.012L61.3318 17.3824L61.3309 17.6924L61.3302 17.9435C61.3298 18.0805 61.3294 18.232 61.3291 18.3851L61.3284 18.6896L61.3281 18.8364L61.3275 19.3203C61.3275 21.0375 62.4787 21.4203 63.1029 21.4203C63.7293 21.4203 64.8568 21.0375 64.8568 19.3203L64.8563 18.9377C64.8562 18.9165 64.8561 18.8977 64.856 18.881L64.8553 18.78C64.8552 18.7735 64.8551 18.7684 64.855 18.7643L64.8546 18.7492L69.0816 18.745C68.3451 20.964 65.9259 22.599 63.064 22.599C59.6146 22.599 56.8197 20.2437 56.8197 17.3283C56.8197 14.4129 59.6146 12.0555 63.064 12.0555ZM103.889 12.0057C107.315 12.0057 110.086 14.3632 110.086 17.2764C110.086 20.1875 107.315 22.5492 103.889 22.5492C100.466 22.5492 97.69 20.1875 97.69 17.2764C97.69 14.3632 100.466 12.0057 103.889 12.0057ZM96.3077 7.9116V22.0345H92.1152L92.1152 22.0148L92.1146 21.8857C92.1145 21.8574 92.1143 21.8269 92.1142 21.7958L92.1135 21.6139C92.1133 21.5593 92.1132 21.5149 92.1132 21.4938C90.4911 22.5103 88.6594 22.5103 87.2296 21.8485C86.8473 21.6669 84.3309 20.4579 84.3309 17.1877C84.3309 14.7092 86.6636 12.0014 89.7221 12.2718C90.7286 12.3604 91.4436 12.7281 92.124 13.1131V7.9116H96.3077ZM33.8013 12.6438V22.0389H29.5592V12.6438H33.8013ZM16.6946 7.9116L22.7749 17.7609L22.7726 7.9116H27.1314V22.0367H22.7769L16.6665 12.1874V22.0367H12.2969V7.9116H16.6946ZM55.0832 9.365V11.2661H57.3792V12.6632H55.0832L55.0875 22.0367H50.8367L50.8388 12.6632H48.5342V11.2704L50.8388 11.2661L50.8367 9.365H55.0832ZM48.5106 16.9217C48.5103 16.9632 48.5101 17.0195 48.5098 17.0886L48.5092 17.332C48.5091 17.3783 48.5091 17.4273 48.509 17.4787L48.5082 18.197C48.5082 18.2639 48.5082 18.3322 48.5081 18.4018L48.5082 21.4821C48.5082 21.5306 48.5082 21.5765 48.5082 21.6196L48.5084 22.0345H44.2965V15.8663C44.2965 15.0466 43.5146 14.1382 42.3569 14.1382C41.2013 14.1382 40.3438 15.0466 40.3438 15.8663L40.3445 16.9988C40.3445 17.0652 40.3446 17.1335 40.3447 17.2036L40.3455 18.3567C40.3455 18.4384 40.3456 18.5206 40.3456 18.6032L40.3463 19.5941C40.3464 19.6754 40.3465 19.756 40.3465 19.8358L40.3473 20.938C40.3474 21.0031 40.3474 21.0662 40.3475 21.127L40.3481 22.0345H36.1384L36.1341 12.6438L40.3481 12.6394L40.3475 12.761C40.3474 12.7858 40.3473 12.8137 40.3472 12.8438L40.3465 13.0461C40.3465 13.0824 40.3464 13.1195 40.3463 13.1567V13.3748C40.3465 13.4785 40.3471 13.5694 40.3481 13.6278C41.1603 12.8535 42.331 12.2502 43.7306 12.2112C45.3181 12.1658 48.5321 13.2039 48.5106 16.9217ZM82.981 16.9217C82.9807 16.9632 82.9805 17.0195 82.9802 17.0886L82.9795 17.4787C82.9794 17.5302 82.9794 17.584 82.9793 17.6401L82.9794 19.95C82.9795 20.0238 82.9795 20.097 82.9796 20.1694L82.9804 21.329C82.9804 21.3825 82.9804 21.4335 82.9805 21.4821L82.981 22.0345H78.7647V15.8663C78.7647 15.0466 77.9828 14.1382 76.8251 14.1382C75.6695 14.1382 74.8142 15.0466 74.8142 15.8663L74.8148 16.9988C74.8149 17.0652 74.815 17.1335 74.815 17.2036L74.8158 18.3567C74.8159 18.4384 74.8159 18.5206 74.816 18.6032L74.8167 19.5941C74.8167 19.6754 74.8168 19.756 74.8168 19.8358L74.8177 20.938C74.8177 21.0031 74.8178 21.0662 74.8178 21.127L74.8185 22.0345H70.6087V12.6438L74.8185 12.6394L74.8179 12.761C74.8178 12.7858 74.8176 12.8137 74.8175 12.8438L74.8168 13.0461C74.8167 13.0824 74.8167 13.1195 74.8167 13.1567V13.3748C74.8169 13.4785 74.8174 13.5694 74.8185 13.6278C75.6285 12.8535 76.797 12.2502 78.1988 12.2112C79.7842 12.1658 83.0025 13.2039 82.981 16.9217ZM103.855 13.1671C103.012 13.1671 102.12 13.7792 102.12 15.2715L102.12 15.6369L102.119 16.2361L102.119 16.388L102.118 16.923L102.118 17.0251L102.117 17.6252L102.117 17.6859L102.116 18.3234L102.116 18.474L102.116 19.2532C102.116 20.7498 103.003 21.3662 103.854 21.3662C104.708 21.3662 105.589 20.7498 105.589 19.2532L105.589 19.0346V18.9723L105.59 18.4835C105.59 18.3362 105.591 18.1862 105.591 18.0442L105.592 17.7738L105.593 17.4487L105.593 17.4077L105.593 17.2677C105.591 17.0977 105.589 16.7873 105.589 16.4459L105.589 15.2715C105.589 13.7792 104.701 13.1671 103.855 13.1671ZM90.491 13.7922C89.8149 13.7922 88.8278 14.1598 88.8278 15.6132V18.9569C88.8278 20.4124 89.8149 20.7866 90.491 20.7866C91.1497 20.7866 92.152 20.4124 92.152 18.9569V15.6132C92.152 14.1598 91.1497 13.7922 90.491 13.7922ZM63.103 13.2169C62.55 13.2212 61.9409 13.4959 61.6105 14.0755C61.3405 14.5448 61.3232 15.0942 61.3319 15.916H64.8698C64.8763 15.0942 64.8612 14.5448 64.5912 14.0755C64.2629 13.4959 63.6538 13.2212 63.103 13.2169ZM110.967 6.87778C112.486 6.87778 113.782 8.05651 113.782 9.65696C113.782 11.2704 112.486 12.4534 110.967 12.4534C109.436 12.4534 108.142 11.2704 108.142 9.65696C108.142 8.05651 109.436 6.87778 110.967 6.87778ZM110.967 7.34276C109.695 7.34276 108.699 8.33551 108.699 9.65696C108.699 11 109.695 11.9884 110.967 11.9884C112.229 11.9884 113.222 11 113.222 9.65696C113.222 8.33551 112.229 7.34276 110.967 7.34276ZM111.114 8.05652C111.874 8.05652 112.25 8.33549 112.25 8.97135C112.25 9.54664 111.889 9.79535 111.419 9.85591L112.33 11.2704H111.786L110.937 9.87538H110.382V11.2704H109.896V8.05652H111.114ZM33.8013 7.90726V10.7967H29.5484V7.90726H33.8013ZM111.043 8.4696H110.382V9.46231H110.961C111.373 9.46231 111.743 9.43635 111.743 8.93891C111.743 8.54096 111.382 8.4696 111.043 8.4696Z" fill="#979FAD"/>
</svg>
