<svg width="135" height="31" viewBox="0 0 135 31" fill="none" xmlns="http://www.w3.org/2000/svg">
<path d="M40.2004 12.869L42.3041 6.04517H45.0619L47.1479 12.869L49.4991 6.04517H52.363L48.2263 17.9073H46.264L43.6653 9.65153L41.0843 17.9073H39.122L34.9853 6.04517H37.8492L40.2004 12.869Z" fill="#979FAD"/>
<path d="M53.795 6.04517H56.4467V17.9073H53.795V6.04517Z" fill="#979FAD"/>
<path d="M59.3636 6.04517H62.0154V10.9244L66.488 6.04517H69.7584L65.0383 11.2956C65.4449 11.8613 66.2051 12.922 67.3012 14.46C68.3972 15.998 69.2104 17.1471 69.7584 17.9073H66.6647L63.1821 13.2225L61.9977 14.5484V17.9073H59.3459V6.04517H59.3636Z" fill="#979FAD"/>
<path d="M71.4025 6.04517H74.0543V17.9073H71.4025V6.04517Z" fill="#979FAD"/>
<path d="M87.5958 10.4471L84.396 16.935H82.8227L79.6406 10.4471V17.9073H76.9888V6.04517H80.5775L83.6359 12.5684L86.7119 6.04517H90.2829V17.9073H87.6311V10.4471H87.5958Z" fill="#979FAD"/>
<path d="M101.721 6.04517V8.39637H95.8162V10.8537H101.12V13.1165H95.8162V15.5737H101.915V17.9073H93.1821V6.04517H101.721Z" fill="#979FAD"/>
<path d="M113.318 7.60085C114.449 8.64387 115.015 10.0758 115.015 11.9143C115.015 13.7529 114.467 15.2202 113.353 16.2986C112.257 17.3769 110.56 17.9073 108.297 17.9073H104.249V6.04517H108.438C110.578 6.04517 112.186 6.57551 113.318 7.60085ZM111.391 14.6545C112.045 14.0357 112.363 13.1518 112.363 11.9851C112.363 10.8183 112.045 9.9167 111.391 9.29797C110.737 8.66155 109.747 8.36102 108.403 8.36102H106.918V15.5737H108.598C109.8 15.5737 110.737 15.2732 111.391 14.6545Z" fill="#979FAD"/>
<path d="M117.313 6.04517H119.965V17.9073H117.313V6.04517Z" fill="#979FAD"/>
<path d="M131.332 17.9073L130.236 15.3439H125.268L124.172 17.9073H121.361L126.488 6.04517H129.051L134.178 17.9073H131.332ZM127.743 9.58082L126.258 13.0281H129.228L127.743 9.58082Z" fill="#979FAD"/>
<path d="M39.8114 23.2989V24.7309H42.1096V25.5441H39.8114V27.6831H38.9275V22.4857H42.3924V23.2989H39.8114Z" fill="#979FAD"/>
<path d="M52.2215 26.9407C51.6912 27.4534 51.0548 27.7009 50.2769 27.7009C49.4991 27.7009 48.8627 27.4534 48.3323 26.9407C47.802 26.4281 47.5368 25.7916 47.5368 25.0315C47.5368 24.2713 47.802 23.6349 48.3323 23.1222C48.8627 22.6096 49.4991 22.3621 50.2769 22.3621C51.0548 22.3621 51.6912 22.6096 52.2215 23.1222C52.7519 23.6349 53.0171 24.2713 53.0171 25.0315C53.0171 25.7916 52.7519 26.4281 52.2215 26.9407ZM51.5851 23.7056C51.2316 23.3344 50.7896 23.1576 50.2769 23.1576C49.7643 23.1576 49.3223 23.3344 48.9687 23.7056C48.6152 24.0768 48.4384 24.5188 48.4384 25.0315C48.4384 25.5618 48.6152 26.0038 48.9687 26.3573C49.3223 26.7109 49.7643 26.9054 50.2769 26.9054C50.7896 26.9054 51.2316 26.7286 51.5851 26.3573C51.9387 25.9861 52.1155 25.5441 52.1155 25.0315C52.1155 24.5011 51.9387 24.0592 51.5851 23.7056Z" fill="#979FAD"/>
<path d="M59.7348 26.4811C59.9647 26.764 60.3005 26.9054 60.7071 26.9054C61.1137 26.9054 61.432 26.764 61.6794 26.4811C61.9269 26.1983 62.033 25.827 62.033 25.3497V22.4681H62.9169V25.3851C62.9169 26.1275 62.7048 26.7109 62.2982 27.1175C61.8916 27.5241 61.3612 27.7186 60.7248 27.7186C60.0884 27.7186 59.5581 27.5241 59.1515 27.1175C58.7449 26.7109 58.5327 26.1452 58.5327 25.3851V22.4681H59.4166V25.3497C59.3813 25.827 59.505 26.1983 59.7348 26.4811Z" fill="#979FAD"/>
<path d="M72.6222 22.4681H73.5062V27.6655H72.5515L69.6169 23.8824V27.6655H68.733V22.4681H69.6169L72.6399 26.3397V22.4681H72.6222Z" fill="#979FAD"/>
<path d="M83.3176 23.1576C83.8126 23.6172 84.0601 24.236 84.0601 25.0492C84.0601 25.8624 83.8126 26.4988 83.3353 26.9584C82.8579 27.4357 82.1155 27.6655 81.1078 27.6655H79.393V22.4681H81.1785C82.0978 22.4681 82.8226 22.698 83.3176 23.1576ZM83.1938 25.0668C83.1938 23.8824 82.5044 23.2813 81.1608 23.2813H80.2769V26.8347H81.2492C81.8856 26.8347 82.363 26.6932 82.6988 26.3927C83.0171 26.0922 83.1938 25.6502 83.1938 25.0668Z" fill="#979FAD"/>
<path d="M90.3889 26.4811L89.8762 27.6655H88.9393L91.2198 22.4681H92.1567L94.4372 27.6655H93.5003L92.9876 26.4811H90.3889ZM92.634 25.6679L91.6971 23.5288L90.7601 25.6679H92.634Z" fill="#979FAD"/>
<path d="M101.173 23.2812V27.6654H100.289V23.2812H98.7153V22.4857H102.746V23.2812H101.173Z" fill="#979FAD"/>
<path d="M108.156 22.4681H109.039V27.6655H108.156V22.4681Z" fill="#979FAD"/>
<path d="M119.257 26.9407C118.727 27.4534 118.091 27.7009 117.313 27.7009C116.535 27.7009 115.899 27.4534 115.368 26.9407C114.838 26.4281 114.573 25.7916 114.573 25.0315C114.573 24.2713 114.838 23.6349 115.368 23.1222C115.899 22.6096 116.535 22.3621 117.313 22.3621C118.091 22.3621 118.727 22.6096 119.257 23.1222C119.788 23.6349 120.053 24.2713 120.053 25.0315C120.053 25.7916 119.788 26.4281 119.257 26.9407ZM118.621 23.7056C118.268 23.3344 117.826 23.1576 117.313 23.1576C116.8 23.1576 116.358 23.3344 116.005 23.7056C115.651 24.0768 115.474 24.5188 115.474 25.0315C115.474 25.5618 115.651 26.0038 116.005 26.3573C116.358 26.7109 116.8 26.9054 117.313 26.9054C117.826 26.9054 118.268 26.7286 118.621 26.3573C118.975 25.9861 119.151 25.5441 119.151 25.0315C119.151 24.5011 118.975 24.0592 118.621 23.7056Z" fill="#979FAD"/>
<path d="M129.493 22.4681H130.377V27.6655H129.422L126.488 23.8824V27.6655H125.604V22.4681H126.488L129.511 26.3397V22.4681H129.493Z" fill="#979FAD"/>
<path d="M16.3524 24.5366C20.825 23.9002 24.2545 20.064 24.2545 15.4323C24.2545 12.6038 22.9817 10.0935 20.9841 8.39636L16.3524 13.0281V24.5366Z" fill="#979FAD"/>
<path d="M13.7537 24.5365V13.0279L9.12198 8.37854C7.12434 10.058 5.8515 12.586 5.8515 15.4145C5.8515 20.0639 9.28108 23.9 13.7537 24.5365Z" fill="#979FAD"/>
<path d="M23.0524 7.424C25.1915 9.56306 26.3583 12.4093 26.3583 15.4146C26.3583 18.4199 25.1738 21.2837 23.0524 23.4051C20.9134 25.5442 18.0672 26.711 15.0619 26.711C12.0566 26.711 9.19268 25.5265 7.07129 23.4051C4.9499 21.2837 3.74778 18.4375 3.74778 15.4146C3.74778 12.3916 4.93222 9.54539 7.05361 7.424C7.23039 7.24721 7.42486 7.07043 7.61932 6.89365L5.03829 4.31262C4.84383 4.4894 4.66705 4.66619 4.47259 4.84297C3.09368 6.22187 2.01531 7.81292 1.27282 9.59842C0.494979 11.437 0.0883789 13.3992 0.0883789 15.4146C0.0883789 17.4299 0.477301 19.3922 1.27282 21.2307C2.03299 23.0162 3.11136 24.6073 4.47259 25.9862C5.85149 27.3651 7.44253 28.4434 9.22804 29.1859C11.0666 29.9638 13.0289 30.3704 15.0442 30.3704C17.0595 30.3704 19.0218 29.9814 20.8603 29.1859C22.6458 28.4258 24.2369 27.3474 25.6158 25.9862C26.9947 24.6073 28.0731 23.0162 28.8155 21.2307C29.5934 19.3922 30 17.4299 30 15.4146C30 13.3992 29.6111 11.437 28.8155 9.59842C28.0554 7.81292 26.977 6.22187 25.6158 4.84297C25.439 4.66619 25.2445 4.4894 25.0501 4.31262L22.4867 6.89365C22.6812 7.05275 22.858 7.22953 23.0524 7.424Z" fill="#979FAD"/>
<path d="M15.0442 9.70448C17.6217 9.70448 19.7113 7.61497 19.7113 5.03742C19.7113 2.45987 17.6217 0.370361 15.0442 0.370361C12.4667 0.370361 10.3771 2.45987 10.3771 5.03742C10.3771 7.61497 12.4667 9.70448 15.0442 9.70448Z" fill="#979FAD"/>
</svg>
