<svg width="110" height="34" viewBox="0 0 110 34" fill="none" xmlns="http://www.w3.org/2000/svg">
<path d="M70.757 8.4898C65.967 8.5128 62.065 12.4498 62.087 17.3518C62.109 22.2538 66.05 26.1538 70.84 26.1318C75.63 26.1098 79.533 22.1718 79.51 17.2718C79.487 12.3718 75.547 8.4688 70.755 8.4918L70.757 8.4898ZM70.823 22.5368C69.465 22.5448 68.16 22.0118 67.195 21.0568C66.23 20.1018 65.695 18.8008 65.68 17.4428C65.665 16.0848 66.205 14.7798 67.16 13.8148C68.115 12.8498 69.416 12.3148 70.774 12.2998C72.132 12.2848 73.437 12.8248 74.402 13.7798C75.367 14.7348 75.902 16.0358 75.917 17.3938C75.931 20.1188 73.547 22.5228 70.823 22.5368ZM90.163 12.6448C87.658 12.6568 85.707 14.7348 85.719 17.2398L85.759 25.6248L81.947 25.6428L81.87 8.9798L85.682 8.9618L85.695 11.5748C85.695 11.5748 87.315 8.9548 90.583 8.9398L91.673 8.9338L91.691 12.6358L90.163 12.6448ZM52.137 9.1218L55.023 20.5438L58.019 9.0938L61.831 9.0768L57.115 25.7718L53.413 25.7888L50.419 14.1508L47.533 25.8158L43.83 25.8328L38.852 9.1928L42.554 9.1758L45.874 20.5958L48.544 9.1478L52.137 9.1218ZM102.812 16.5078C105.417 14.9718 107.257 12.1308 107.242 8.8638L103.43 8.8818C103.444 11.7138 101.166 14.0118 98.444 14.0218L97.899 14.0238L97.839 0.846802L94.027 0.864801L94.144 25.5848L97.954 25.5678L97.918 17.7278L98.353 17.7258C98.789 17.7238 99.226 17.9398 99.337 18.2658L104.707 25.5358L109.172 25.5158L102.812 16.5078Z" fill="#979FAD"/>
<path d="M30.028 8.6818C25.891 8.7018 22.745 11.4388 21.568 15.7998C19.593 12.7598 18.052 9.2828 17.168 6.3468L12.813 6.3668L12.867 17.9098C12.8718 19.0073 12.4406 20.0618 11.6682 20.8415C10.8958 21.6211 9.84546 22.0622 8.74798 22.0678C7.6505 22.0726 6.59602 21.6414 5.81633 20.869C5.03664 20.0966 4.59554 19.0463 4.58998 17.9488L4.53498 6.4058L0.177979 6.4258L0.231979 17.9688C0.254979 22.7588 4.08198 26.5548 8.76598 26.5318C13.45 26.5088 17.244 22.6798 17.222 17.8888L17.212 15.9288C18.09 17.6658 19.188 19.5118 20.395 21.1408L17.732 33.8938L22.196 33.8738L24.116 24.6078C25.863 25.6898 27.816 26.3328 30.112 26.3218C34.904 26.2988 38.807 22.3618 38.782 17.3518C38.7638 15.0435 37.8331 12.8362 36.1932 11.2117C34.5533 9.58712 32.3373 8.6773 30.029 8.6808L30.028 8.6818ZM30.09 21.8588C28.348 21.8668 26.603 21.1128 25.182 19.9208L25.609 18.1778V18.0778C25.929 16.2238 26.891 13.0618 30.159 13.0478C31.3113 13.0459 32.4177 13.4992 33.2374 14.309C34.0571 15.1188 34.5239 16.2196 34.536 17.3718C34.438 19.8768 32.379 21.8468 30.091 21.8578L30.09 21.8588Z" fill="#979FAD"/>
</svg>
