<svg width="58" height="27" viewBox="0 0 58 27" fill="none" xmlns="http://www.w3.org/2000/svg">
<path d="M35.4727 21.1444C35.4691 21.5054 35.6578 21.5798 35.6794 21.808V23.7287L35.6444 23.7503C35.5361 23.8272 35.4882 23.8659 35.4752 23.8788C35.4764 23.8874 35.4802 23.9102 35.4802 23.9416C35.4802 23.9668 35.4765 23.9945 35.4727 24.0313L35.4617 24.0991H32.3828L32.3594 24.0591C32.3175 23.9871 32.2801 23.9379 32.2333 23.8739L31.2166 23.7651C31.0204 23.9834 30.7013 24.1876 30.438 24.278L30.4256 24.2816H30.4127C29.6384 24.2816 29.206 24.3186 28.7601 24.3186C28.5541 24.3574 27.9968 24.695 27.5687 24.6999H27.5348L27.5121 24.6747C27.3472 24.4969 27.3042 24.3056 27.3055 24.1457C27.3055 23.9944 27.3368 23.8658 27.3368 23.7994V22.9833L27.3706 22.9605C27.4592 22.8991 27.506 22.8787 27.5589 22.8105C27.5988 22.76 27.6179 22.6696 27.6179 22.5737C27.6179 22.3787 27.5459 22.1659 27.5459 22.1659L27.5268 22.1087L27.5749 22.0749C27.7625 21.9414 27.8725 21.8922 27.9592 21.7182C27.9906 21.6505 28.006 21.5534 28.006 21.455C28.006 21.2551 27.9544 21.0546 27.9544 21.0546L27.9389 20.9992L27.9845 20.9691C28.0737 20.9088 28.1192 20.8861 28.1709 20.8203C28.2071 20.7735 28.225 20.6936 28.225 20.6037C28.225 20.4235 28.1591 20.2298 28.1591 20.2298L28.1554 20.2156V20.2033C28.1684 20.0896 28.3068 19.8835 28.3633 19.6842C28.4137 19.5089 28.434 19.2874 28.434 19.071C28.434 18.6362 28.3596 18.2284 28.3596 18.2118C28.3633 18.0137 28.2465 17.9712 28.1592 17.7418C28.006 17.3071 27.958 16.7781 27.958 16.2657C27.958 15.2392 28.1555 14.2743 28.1592 14.2589L29.3837 11.0065C29.3751 10.9616 29.2601 10.9296 29.1838 10.7741C29.1684 10.7334 29.1598 10.694 29.1598 10.6603C29.1623 10.5858 29.1783 10.5446 29.1783 10.4702V10.4377L29.2023 10.4149C29.1998 10.4125 29.4895 10.1215 29.4858 9.80783C29.4858 9.69646 29.4833 9.63377 29.4833 9.57108C29.4833 9.53905 29.4833 9.5077 29.4858 9.4653C29.5325 9.22538 30.0363 8.61102 30.099 8.02915C30.1082 7.95476 30.1107 7.86246 30.1107 7.77454C30.1107 7.59806 30.099 7.43443 30.099 7.42953C30.1144 7.23271 30.9404 5.33223 31.5314 4.74183V4.01476L31.5653 3.99195C31.6071 3.96798 31.7467 3.8524 31.7357 3.79023V3.78533C31.7344 3.72634 31.7295 3.76258 31.6249 3.63835H30.5412L30.5197 3.59773C30.4655 3.50543 30.4434 3.45934 30.3788 3.39354C30.2995 3.31426 30.1888 3.28413 30.0565 3.28413C29.7884 3.28292 29.4968 3.41019 29.3597 3.41636C29.3209 3.40276 29.166 3.53499 29.0362 3.83823C28.9003 4.13835 28.7668 4.58805 28.6696 5.17476C28.4771 6.4005 28.2742 6.56655 28.0122 6.5715C27.9691 6.5715 27.9341 6.56661 27.9014 6.56908C27.8129 6.57277 27.7513 6.57277 27.637 6.75052L27.5866 6.83233L27.5158 6.76959C27.4254 6.68783 27.3079 6.57836 27.2704 6.5556L27.2187 6.51994L27.2396 6.46082C27.3177 6.25974 27.3404 6.11702 27.3404 6.00755C27.3441 5.79235 27.2396 5.67729 27.2346 5.43801C27.2439 5.24678 27.421 5.07762 27.5422 4.96198V1.16153L27.6154 1.15663C27.6819 1.15174 27.8418 1.15174 28.2403 1.15174C29.035 1.15174 30.7718 1.15663 34.523 1.15663H34.5686L34.5925 1.19535C34.7167 1.40081 34.7235 1.38733 34.7309 1.38364C34.7444 1.38364 34.7862 1.37684 34.8452 1.37684C34.8582 1.37684 34.8754 1.37684 34.8921 1.37869L34.9615 1.38848V1.65047L34.9425 1.67328C34.761 1.87805 34.6916 2.6001 34.0961 3.19978C34.106 3.26932 34.1227 3.4212 34.1227 3.5842C34.1227 3.69361 34.1159 3.80804 34.0894 3.91013C33.9879 4.30314 33.8822 4.37014 33.4824 4.74782C33.4941 4.81794 33.5144 4.96924 33.5144 5.1316C33.5144 5.24419 33.5052 5.35856 33.475 5.46071C33.3329 5.81309 33.082 5.65442 33.0684 6.05912C33.0684 6.05912 32.9547 6.83775 32.8513 7.33221C32.7468 7.82242 32.4939 8.10722 32.4976 8.48236C32.4976 8.53773 32.5037 8.59431 32.5148 8.67238L32.4534 10.6781L32.422 10.7008C32.1237 10.8786 32.1778 12.0281 31.6384 12.605V13.3043L31.6334 13.3166C31.4687 13.7514 31.1537 13.7262 31.0252 14.2865V16.5677L30.4114 18.3329C30.417 18.3993 30.4354 18.6503 30.4354 18.9221C30.4354 19.0796 30.4293 19.2432 30.409 19.3859C30.3259 19.9462 29.9556 20.6289 29.7693 20.9462C29.7225 21.0207 29.6998 21.0613 29.6782 21.0938C29.6807 21.1099 29.6825 21.1277 29.6825 21.1444C29.6782 21.3694 29.5183 21.7501 29.4882 21.8257C29.4747 21.9715 29.3633 22.1745 29.3031 22.2889C29.3812 22.3658 29.4039 22.3947 29.4618 22.3922C29.4722 22.3984 29.5276 22.3406 29.5977 22.2108L29.6346 22.1469L29.6998 22.1794C29.827 22.2397 29.939 22.2588 30.054 22.2588C30.2815 22.2613 30.5227 22.1733 30.8258 22.1733C30.9077 22.158 30.9193 22.1026 30.9433 21.944C30.963 21.7982 30.9845 21.594 31.1432 21.4236C31.4507 21.0988 32.1322 21.0294 32.2799 20.9125C33.1096 20.3369 33.4534 20.605 33.9965 19.7205L34.0469 19.6375L34.1177 19.7034C34.1878 19.7685 34.2431 19.8276 34.3053 19.9045H35.3342L35.3582 19.9427C35.4628 20.1229 35.6731 20.2502 35.6792 20.5374C35.6376 20.7489 35.4789 20.6781 35.4727 21.1444ZM40.6735 17.0088C40.6723 18.1312 40.6514 19.2285 40.5844 19.5028L40.5782 19.5317L40.553 19.5496C40.4447 19.6123 40.2922 20.0797 40.1434 20.5711C39.9896 21.0508 39.8235 21.565 39.5616 21.8406V23.0085L39.5302 23.0326C39.2946 23.1771 39.2565 24.0738 38.9495 24.4366V25.1661L38.915 25.1913C38.8462 25.2381 38.8032 25.2732 38.7453 25.326V26.2721L38.7127 26.2973C38.5387 26.4116 38.5578 26.5218 38.3585 26.5316C38.3056 26.5353 38.2706 26.4952 38.254 26.4725C38.235 26.4787 38.1974 26.491 38.142 26.523L38.0258 26.5869L38.0289 25.315L37.4114 23.3007V22.6937C37.4489 22.2373 36.4052 21.8836 36.3898 20.9236V20.8922L36.4102 20.8695C36.4089 20.8633 37.6599 19.5305 37.7177 17.7155V17.7119C37.7515 17.5906 37.1912 17.189 36.5953 16.8742C36.0283 16.5531 35.4476 16.2695 35.2588 16.0807H34.8898L35.0651 16.5968V17.7057C35.3381 17.7783 35.511 18.1135 35.6832 18.1325C35.7262 18.1337 35.7927 18.1867 35.789 18.2482C35.759 18.4296 35.5123 18.5858 35.4704 18.8368L35.4606 18.9044L35.3898 18.8995C35.3886 18.8995 34.7613 18.8595 34.2514 18.8595C33.9956 18.8595 33.7636 18.8706 33.6794 18.897C32.707 19.2219 31.5999 19.6376 31.5987 19.6376L31.5378 19.6616L31.5028 19.6062C31.2383 19.1603 31.4621 19.2839 31.2155 18.9309L31.1842 18.8841L31.2168 18.8404C31.5907 18.3368 31.6792 18.2482 31.9426 18.0113C31.9475 17.8865 31.9726 17.4498 32.1301 17.1805C32.3404 16.8655 32.8035 16.7745 32.76 16.665C32.7685 16.6422 32.7095 16.587 32.5883 16.5088L32.5484 16.4812L32.5545 16.4344C32.5545 16.4344 32.6289 15.7843 32.6966 15.4282C32.7206 15.3322 32.7255 15.2732 32.7507 15.2178C32.7218 15.1311 32.6541 14.8925 32.6516 14.6544C32.6541 14.5062 32.6781 14.3525 32.7771 14.235C32.8455 14.1569 32.9099 14.1231 32.9641 14.083V13.1949L32.9979 13.1721C33.1436 13.0583 33.1591 13.0546 33.1677 12.9052C33.1578 12.8345 33.1713 12.8695 33.1049 12.8308C33.0366 12.808 32.9413 12.7152 32.95 12.5485C32.95 12.5042 32.9537 12.4543 32.9654 12.3898C32.9906 12.2686 32.9992 12.1708 32.9992 12.0878C33.0004 11.8897 32.9463 11.7601 32.9451 11.5761C32.9451 11.4943 32.9561 11.4076 32.9894 11.3067C33.0884 10.9919 33.2447 10.8608 33.3793 10.6037C33.3781 10.6013 33.6112 10.1123 33.6112 9.4536V9.40872L33.6506 9.3859C34.1137 9.14794 33.8382 8.11096 34.1974 7.28618C34.3781 6.89439 34.5091 6.52293 34.7577 6.28428C34.7613 6.25968 34.7638 6.23508 34.7638 6.21295C34.7662 6.06776 34.6918 5.9429 34.6882 5.78429C34.6857 5.70985 34.711 5.62809 34.77 5.5567C34.8395 5.46693 34.9127 5.43553 34.9681 5.3937C35.0044 5.26021 35.195 4.6304 35.4103 4.23987C35.5388 4.01355 35.5388 3.88628 35.8106 3.63593V2.74403L35.8432 2.72C35.9742 2.62159 35.9681 2.60373 35.9982 2.54352C36.0284 2.47646 36.0868 2.3947 36.2731 2.27538L36.2879 2.26616L36.3057 2.26374C36.4958 2.24092 36.5198 2.07366 36.5222 1.79929C36.5222 1.72491 36.521 1.64678 36.521 1.56871C36.5222 1.28644 36.5678 0.93648 36.9633 0.934637C37.6497 0.967824 37.5678 2.08472 37.6485 2.19731C38.1952 3.39354 38.3453 3.20225 38.3705 3.50307V4.11196C38.3649 4.62925 39.1111 6.55681 39.1172 6.56661L39.7611 9.09995C39.8251 9.15532 39.878 9.20331 39.9382 9.24572L39.974 9.26733V10.1604C40.14 10.3191 40.193 10.4451 40.193 10.5546C40.193 10.6426 40.1652 10.701 40.1677 10.7385C40.1689 10.7803 40.1806 10.8357 40.3491 10.9605L40.3817 10.9833V12.1857L40.3227 12.1974C40.3215 12.2134 40.3215 12.2349 40.3215 12.2589C40.3166 12.6999 40.5343 14.2781 40.5933 14.4546L40.6087 14.4645L40.6137 14.5013C40.6514 14.8297 40.6735 15.9207 40.6735 17.0088ZM35.5508 13.9478C35.5508 14.0929 35.5447 14.2153 35.5207 14.3057L35.5133 14.3345C35.6265 14.3235 35.7538 14.3143 35.8848 14.3143C36.0736 14.3143 36.279 14.3308 36.4833 14.3764C37.0798 14.5061 37.4089 14.9176 37.8019 15.0376C37.8474 15.0401 37.8911 15.0401 37.9317 15.0401H37.9761C37.9834 14.759 38.0061 13.7239 38.0061 12.9009C38.0061 12.4452 37.9981 12.0485 37.9773 11.8972C37.8474 11.7477 37.8573 11.4642 37.8185 11.1542C37.789 10.8283 37.7287 10.4894 37.5916 10.3719C37.3511 10.1388 37.0337 10.2636 36.7453 9.97152C36.5891 9.79993 36.4618 9.52067 36.3739 9.28392L36.3419 10.2071L36.3407 10.2458L36.3081 10.2674C36.166 10.3683 36.1328 10.5257 36.0799 10.6942C36.0375 10.8418 35.944 11.0103 35.7238 11.0485C35.7145 11.2951 35.6936 12.1229 35.5196 12.3825C35.5067 12.4569 35.5017 12.5615 35.5017 12.6808C35.5017 13.0546 35.5508 13.5775 35.5508 13.9478ZM27.0878 17.6183L27.0017 17.6423C26.6868 17.7142 26.832 17.9688 26.5674 18.2481C26.5306 18.3059 26.5029 18.7007 26.5072 19.1516C26.5072 20.065 26.5749 21.3006 26.5774 21.3018L26.581 21.3848H26.498C26.4162 21.3749 25.8467 21.6001 25.7464 21.7901L25.7224 21.827H23.3858L23.363 21.7901C23.2321 21.5774 23.2283 21.5835 23.2154 21.5902C23.1878 21.5866 23.1084 21.6062 22.9688 21.6062C22.7166 21.6111 22.6538 21.6936 22.5745 21.7938C22.5062 21.8934 22.4208 22.0472 22.1938 22.0472H22.1864C22.1815 22.0435 21.7276 21.9617 21.5013 21.7181H19.9077L19.8849 21.6806C19.7766 21.493 19.6771 21.5065 19.6697 21.3055C19.6925 21.2033 19.7416 21.1904 19.8093 21.105C19.8646 21.0471 19.928 20.9844 19.976 20.9413V19.6098L20.0085 19.587C20.1998 19.4462 20.1863 19.4586 20.1863 19.4222C20.1863 19.3933 20.1808 19.3417 20.1795 19.2648C20.1771 19.2636 20.1795 19.2599 20.171 19.2396C20.1649 19.2193 20.1544 19.1916 20.1396 19.1577C20.1132 19.0919 20.0763 19.0077 20.0338 18.9222C19.9545 18.7536 19.8394 18.5722 19.8045 18.5532L19.7392 18.5064L19.7854 18.4436C19.8837 18.3089 19.9139 18.1878 19.9139 18.0808C19.9151 17.8655 19.7897 17.7105 19.7897 17.7105L19.7742 17.6926L19.7718 17.6723C19.7551 17.5678 19.7478 17.4571 19.7478 17.3439C19.749 16.695 19.9772 15.9355 19.976 15.5473V15.5061L19.9748 15.4643L20.0086 15.439C20.214 15.3234 20.1445 14.653 20.3931 14.1394C20.6193 13.6984 21.1182 13.1314 21.1095 13.1456C21.1773 13.0231 21.0905 12.3823 21.9761 11.4284C22.023 11.202 22.392 9.37657 22.7493 8.82489C22.7899 8.77442 22.8932 8.70925 23.0291 8.60468C23.1195 8.53519 23.2094 8.46997 23.2536 8.43678C23.2733 8.31994 23.392 7.98841 24.0723 7.3586C24.0434 7.24792 23.9726 6.9607 23.9714 6.64087C23.9714 6.43541 24.0003 6.21895 24.0895 6.02334L24.0987 6.00363L24.1147 5.9932C24.5556 5.67833 24.8202 4.95933 25.5146 4.30924V2.92731L23.2647 2.90518C22.9283 3.22254 22.0389 3.25636 22.0327 4.43047V4.5086H21.9522C21.8827 4.50618 21.6773 4.57128 21.5112 4.67592C21.339 4.78049 21.2093 4.92442 21.2142 5.03757V6.69757C21.2049 6.85872 21.0831 7.03151 20.7935 7.51255L20.743 7.59431L20.6736 7.52915C20.5253 7.39571 20.4774 7.26959 20.4798 7.16749C20.4811 7.08942 20.4976 7.03157 20.4958 6.9898C20.4946 6.9357 20.4847 6.87906 20.3236 6.76037L20.2947 6.74193L20.2898 6.70748C20.2898 6.70748 20.2301 6.2806 20.1797 6.01493C20.1575 5.85873 20.1458 5.70864 20.1194 5.70985L20.0678 5.67602L20.0893 5.61824C20.0893 5.61703 20.2793 5.11202 20.2793 4.6569C20.2793 4.42932 20.2301 4.22144 20.1084 4.09779C20.0388 4.0283 19.9958 3.9969 19.9151 3.94159L19.8802 3.91762V1.96909L19.8968 1.94875C19.8956 1.94754 20.0929 1.68066 20.0868 1.49421L20.0856 1.45365L20.0739 1.36446H20.1637C23.0532 1.36446 23.319 1.38848 26.1554 1.38848H26.2336V2.51829C26.2157 2.69361 26.4199 2.72006 26.4377 3.01465V6.7553L26.4101 6.77933C26.2189 6.94232 26.1579 7.22032 26.1592 7.47983C26.158 7.77194 26.23 8.0254 26.23 8.0254L26.2478 8.0795L26.201 8.1109C25.6039 8.52661 25.2988 10.1854 24.9402 10.6111V11.5736L24.8922 11.5952C24.891 11.5964 24.0644 11.9513 23.9125 12.38C23.8743 12.4778 23.8595 12.6131 23.8595 12.7478C23.8595 13.0134 23.9162 13.2743 23.9162 13.2743L23.9296 13.3382L23.8693 13.3635C23.1928 13.6168 22.106 16.6564 22.1276 16.8311V17.3841L22.0427 17.3921L22.0869 17.4333L22.0808 17.4425C22.0723 17.456 22.058 17.4824 22.0428 17.5188C22.0114 17.5882 21.9701 17.6928 21.9221 17.8189C21.8262 18.0723 21.7038 18.4149 21.5772 18.7672C21.3348 19.4297 21.0844 20.1154 20.9184 20.3707C21.0303 20.5318 21.039 20.5306 21.0463 20.5245C21.0667 20.5257 21.13 20.5121 21.2302 20.5121C21.4116 20.5182 21.4873 20.4101 22.2721 20.0207C22.4413 19.963 22.6424 20.0786 23.2432 19.8006C23.338 19.7735 23.5808 19.3177 23.8755 18.8909C24.164 18.4801 24.541 18.0656 25.0472 18.0268C25.0786 17.8115 25.2084 17.3693 25.4211 17.1614L25.4943 17.0919L25.5435 17.178C25.581 17.2457 25.6124 17.2899 25.6518 17.3429C26.3019 17.0415 26.0135 16.7229 26.3523 16.3108L26.3745 16.2832H26.9532L26.9489 16.3649C26.9489 16.3649 26.9465 16.4461 26.9465 16.5667C26.944 16.8373 26.9644 17.33 27.0535 17.5366L27.0878 17.6183ZM9.63034 18.9929C9.62913 19.2408 9.77306 19.7359 9.77306 20.2069C9.77306 20.3164 9.76695 20.4247 9.74661 20.5305C9.66722 20.9499 9.40276 21.5434 9.39481 21.5582C9.39481 21.5594 8.97167 22.1684 8.80556 22.5903C8.60384 23.0977 8.52082 23.9907 8.52082 23.9907L8.51719 24.0376L8.4753 24.0579C8.47409 24.0591 7.62534 24.4496 7.15663 24.7971C6.73718 25.1046 6.31278 25.3741 6.21195 25.6576L6.19593 25.7037L6.15041 25.7105C6.15041 25.7105 5.14483 25.8526 4.84897 25.9683C4.80904 25.9823 4.79245 25.991 4.79366 25.994C4.73587 26.0666 4.67243 26.1134 4.59626 26.1158C4.36188 26.0715 4.30657 25.8009 4.14904 25.82C4.0882 25.8188 3.98858 25.8562 3.84644 25.994C3.74561 26.2068 3.43811 26.213 3.101 26.2228C2.59789 26.2228 1.99332 26.13 1.85861 26.106C1.78849 26.141 1.70731 26.1435 1.61443 26.1447C1.39243 26.1447 1.10585 26.0968 0.947171 26.0986C0.908971 26.0968 0.878837 26.1011 0.867141 26.1047L0.824735 26.1786L0.752715 26.1122C0.662372 26.0315 0.544834 25.922 0.507325 25.9005L0.376363 25.8138L0.522133 25.761C0.522133 25.7591 0.996952 25.5746 1.14209 25.4355L1.13967 25.4343L1.14209 25.432C1.14578 25.4258 1.15067 25.4128 1.15868 25.3981C1.17222 25.3643 1.19002 25.3151 1.21031 25.2542C1.24787 25.1324 1.2946 24.9657 1.34254 24.7757C1.44037 24.3992 1.54247 23.938 1.60947 23.5917C1.60947 22.3935 1.68086 21.7791 1.68086 21.1506C1.68086 20.8381 1.66363 20.5195 1.61074 20.1179C1.59167 19.9703 1.52772 18.8657 1.43052 18.0656C1.43052 16.7721 1.50496 15.4448 1.50496 14.66C1.50496 14.5111 1.50127 14.3801 1.49447 14.2756L1.49205 14.1999L1.56649 14.1938C1.72886 14.1809 1.79707 14.0523 1.81378 14.0123L1.767 12.9883L1.60959 12.6581L1.63114 11.1616C1.65885 10.9439 1.82738 10.7194 1.8249 10.7224C1.84271 10.6985 1.85993 10.5545 1.85746 10.41C1.85746 10.212 1.84023 9.99796 1.83343 9.93643L1.60953 9.56745V4.36098L1.64208 4.33701C1.83712 4.1962 1.83337 4.1962 1.82974 4.16975C1.83095 4.13524 1.81499 4.05101 1.81499 3.90403C1.81499 3.7552 1.82358 3.68318 1.82358 3.66169L1.81868 3.6629C1.79834 3.64446 1.76083 3.61001 1.70489 3.54231C1.66248 3.546 1.59663 3.54968 1.53025 3.55337C1.51976 3.57371 1.50006 3.59894 1.45823 3.60257C1.40292 3.5903 1.39122 3.57861 1.3691 3.55827H1.36236C1.33833 3.55827 1.326 3.56017 1.29834 3.55337C1.29466 3.54721 1.25283 3.55706 1.23687 3.4753C1.24545 3.43779 1.2553 3.4212 1.26573 3.41256C1.22016 3.36462 1.17833 3.31789 1.16364 3.29634L0.485892 2.64804C0.396702 2.50043 0.352394 2.46908 0.335743 2.45923C0.320993 2.45618 0.24661 2.37188 0.266891 2.32331C0.266891 2.28148 0.269311 2.22243 0.269311 2.1099C0.271731 1.91487 0.260092 1.86203 0.311717 1.78754C0.356024 1.73591 0.38247 1.73591 0.485834 1.57107L0.508593 1.53172H1.59905C1.74666 1.42841 2.05911 1.39828 2.41709 1.34533C2.80081 1.29739 3.19629 1.26853 3.32979 1.26853L4.41103 1.3054C5.50154 1.30419 5.90312 1.19962 6.47756 1.19835C6.73217 1.19835 7.01945 1.21932 7.41124 1.28264L7.46286 1.29002L7.47514 1.34043C7.55574 1.65784 7.86699 1.79249 8.0195 1.92351C8.0471 1.91982 8.08783 1.91614 8.13819 1.91614C8.27411 1.91614 8.48204 1.9401 8.67085 2.06865C9.35355 2.53361 9.72507 3.64809 9.72869 4.23486C9.72869 4.82347 9.86092 5.37152 9.86213 5.80941C9.86213 6.06649 9.81293 6.29465 9.66105 6.44163L8.90143 7.86425C8.61664 8.39812 7.94004 9.21305 7.71073 9.48489C7.72611 9.51254 7.79929 9.61222 7.94379 9.69029C8.10863 9.78628 8.3497 9.87668 8.64308 9.90681C8.82578 9.93631 8.91498 10.0882 8.9076 10.2242C8.90397 10.4942 8.69488 10.7937 8.67206 10.8226C8.66843 10.8238 8.65541 10.8429 8.65541 10.8848C8.6542 10.9377 8.67696 11.0158 8.70836 11.0724C8.74155 11.1326 8.78154 11.1529 8.78401 11.1517C8.78401 11.1517 8.7926 11.1554 8.81783 11.1179L8.86831 11.0361L8.93773 11.1037C9.25272 11.4125 9.29329 11.4992 9.30066 11.5835C9.30683 11.6112 9.24408 11.557 9.49074 11.7477L9.53372 11.7791L9.52208 11.8307C9.52208 11.8319 9.35234 12.5196 9.35234 13.2287C9.35234 13.5824 9.39475 13.9391 9.51597 14.2139C9.57255 14.3825 9.91635 14.4705 9.94954 14.7288C9.94954 14.7853 9.92557 14.8371 9.88501 14.8838C9.88501 14.9582 9.88743 15.1544 9.88743 15.3647C9.88743 15.5001 9.88622 15.6384 9.88501 15.7578C9.88501 15.7854 9.8838 15.8107 9.8838 15.8383C9.8838 16.4835 10.0037 17.0992 10.0037 17.6625C10.0037 18.1035 9.92805 18.515 9.65437 18.8693C9.64325 18.8816 9.62913 18.9234 9.63034 18.9929ZM6.82701 4.87642C6.83311 4.8536 6.81283 4.80936 6.87189 4.77801L7.16833 4.56886C6.83075 4.45449 6.53731 4.65932 6.25251 4.07993L6.159 4.07872L5.25367 4.20847L5.30898 4.07993C5.31757 4.0578 5.32379 4.03505 5.325 4.01234C5.30218 4.02462 5.27453 4.03758 5.24814 4.04738C5.19957 4.19378 5.20694 4.26263 5.20325 4.33707C5.20573 4.43053 5.14909 4.52093 5.00027 4.6028V8.51382C5.08088 8.48737 5.15036 8.47752 5.20942 8.47752H5.218C5.32869 8.47752 5.40866 8.52672 5.43879 8.54585C5.84533 8.42342 5.67439 7.42463 6.83438 7.28624C6.83317 7.18293 6.82827 7.01619 6.82827 6.82991C6.84302 6.36921 6.82706 5.80463 7.02815 5.58315C6.97767 5.44037 6.8319 5.03389 6.82701 4.87642ZM6.99427 18.8115C6.99916 18.6737 7.07107 18.552 7.06617 18.4652C7.06375 18.4105 7.05453 18.3742 6.97767 18.32L6.87679 18.2585L6.97272 18.1902C7.0293 18.1484 7.0471 18.1047 7.04958 18.0266C7.05701 17.7861 6.78016 17.3611 6.77406 16.9607C6.77285 16.7805 6.83928 16.5967 7.01824 16.457C7.01086 15.9773 6.94022 15.9139 6.87189 15.8413C6.78518 15.7577 6.6757 15.6372 6.68308 15.2048C6.68919 14.9809 6.88722 14.5725 6.88353 14.3357C6.88105 14.2478 6.86198 14.2108 6.82574 14.1936L6.75741 14.1555L6.79128 14.0878C6.83069 14.0121 6.84418 13.9402 6.84418 13.8701C6.84539 13.6167 6.65047 13.3977 6.6492 13.3977L6.53725 13.2729L6.7033 13.2649C6.72854 13.2637 6.74571 13.26 6.75372 13.2575C6.74571 13.2083 6.6061 13.057 6.59383 12.91C6.59141 12.8657 6.61538 12.8116 6.64799 12.7938C6.67075 12.7703 6.67812 12.7513 6.67812 12.7199C6.69287 12.5588 6.34913 12.2346 6.35708 12.2426C5.96529 12.028 5.51565 11.5962 5.51012 11.5913L5.00511 11.0697C5.01128 11.3355 5.02049 11.8176 5.02049 12.2586C5.02049 12.5796 5.0156 12.8786 4.99895 13.06L4.99647 13.084L4.98108 13.1025C4.90543 13.1934 4.86919 13.3848 4.87046 13.5988C4.86925 14.0256 4.99647 14.5244 4.99647 14.5244L5.00137 14.5423L4.7849 15.5977L4.74555 15.6143C4.64345 15.6574 4.60225 15.7152 4.59056 15.8246L4.58814 15.8499C4.59056 15.9556 4.63976 16.0325 4.74555 16.0767L4.79475 16.0964V19.9558L4.77441 19.9799C4.66742 20.0961 4.6022 20.1213 4.58929 20.2166C4.57702 20.291 4.56832 20.3389 4.55789 20.374C4.54435 20.3944 4.55668 20.4183 4.52534 20.4423C4.53023 20.6403 4.5364 21.0961 4.5364 22.0722C4.53761 22.0722 4.55299 22.5748 4.56405 22.7875L4.58445 22.8065C4.60225 22.828 4.60225 22.8471 4.60225 22.857C4.58687 22.9493 4.48356 23.1128 4.37162 23.333C4.31878 23.4315 4.26583 23.5286 4.224 23.6012C4.38147 23.5802 4.62254 23.5397 4.77078 23.4831L5.24808 23.0507L5.27447 23.0495C5.62017 23.0433 6.05316 22.3151 6.34285 22.0937C6.63624 21.8533 6.50274 21.0217 6.63007 20.3426L6.63624 20.3125L6.65531 20.2984H6.65652C6.659 20.291 6.6651 20.2775 6.67438 20.2609C6.68792 20.227 6.70693 20.1778 6.726 20.1213C6.76593 20.0051 6.81145 19.8489 6.85697 19.6889C6.94374 19.3715 7.0206 19.0179 7.01933 18.9232V18.922C7.00164 18.8858 6.99427 18.8465 6.99427 18.8115ZM49.219 22.3154C49.2566 22.3836 49.2971 22.482 49.2971 22.6131C49.2971 22.7189 49.2731 22.8394 49.2128 22.9907C49.1003 23.249 49.1722 23.3222 48.6827 25.7013L48.6647 25.7861L48.5842 25.762C48.575 25.754 47.8394 25.5414 47.6506 25.3643C46.5625 24.3057 46.2765 24.2443 45.8178 24.243C45.7298 24.243 45.6326 24.243 45.5244 24.243L45.506 24.2442L45.4437 24.2502L45.4223 24.1962C45.4124 24.1696 45.41 24.1457 45.41 24.1192C45.416 23.7502 46.0219 22.3682 46.1314 21.7753C46.1806 21.5268 46.2163 20.488 46.2163 19.785C46.2163 19.4652 46.2071 19.2056 46.1935 19.1214V19.1122C46.1935 19.0063 46.0674 18.1311 45.8657 17.2897C45.6806 16.4447 45.3546 15.6057 45.1406 15.5891L45.0722 15.5713L45.0809 15.5012C45.1429 15.0134 45.2765 14.3473 45.2752 14.089C45.2777 14.041 45.2728 14.017 45.2703 14.0146C44.969 13.4426 44.3619 12.3041 44.012 12.1479C44.0243 12.2525 44.0353 12.338 44.0353 12.4272C44.0353 12.624 43.9774 12.8116 43.7923 13.2034C43.7106 13.367 43.5912 13.5349 43.5948 13.6579L43.596 13.6758L43.5997 13.6974L43.5923 13.7139V13.7428C43.5911 14.2804 44.1176 18.5721 44.1189 18.9738V18.9824L44.1238 19.0303L44.0807 19.0556L44.0672 19.071C44.0555 19.0845 44.0396 19.1035 44.0267 19.1276C43.9966 19.1731 43.9712 19.2333 43.9712 19.2911L43.9737 19.309C43.9613 19.3552 44.1262 19.4701 44.1515 19.6713C44.1718 19.9234 44.1927 20.2193 44.1927 20.5218C44.1927 20.9603 44.1527 21.4088 44.0089 21.7563C44.0353 22.2071 44.2235 23.3333 44.2235 23.8658C44.2235 23.9378 44.221 24.0012 44.2105 24.0541L44.208 24.0713L44.197 24.0868C44.1263 24.1913 44.0937 24.195 44.0144 24.2467C44.0243 24.331 44.047 24.4558 44.047 24.6544C44.047 24.9269 44.0064 25.3371 43.8532 25.994L43.7923 26.2529L43.702 26.0026C43.2523 24.778 42.5494 24.0388 41.9571 23.5626C41.3642 23.0651 40.8851 22.9187 40.8439 22.6155C40.8537 22.6038 41.5591 20.0772 41.8728 19.7789C41.8992 19.7359 41.9182 19.616 41.917 19.4813C41.917 19.2887 41.8894 19.0619 41.8678 18.916C41.8076 18.8619 41.7645 18.8237 41.6926 18.777L41.6564 18.7523L41.6588 18.7069C41.6613 18.6639 41.6613 18.0088 41.6613 17.1674C41.6613 15.5689 41.6588 13.2754 41.6588 13.0361C41.5831 12.8971 41.6224 12.6868 41.5831 12.6266L41.5855 12.6253L41.5542 12.6051L41.4558 11.7299C41.3704 11.6051 41.3174 11.3695 41.2848 11.3658L41.2491 11.343L41.2479 11.3042C41.2479 11.3018 41.243 11.0859 41.243 10.8706C41.243 10.7753 41.243 10.6794 41.2479 10.6025C41.2043 10.5269 41.203 10.4378 41.1828 10.3289C41.1673 10.2058 41.1446 10.0723 41.1249 10.0256L41.1261 10.0207L41.0893 9.99549L41.0929 9.94991C41.0929 9.94991 41.0929 9.92594 41.0929 9.88106C41.0954 9.7482 41.0781 9.44991 40.9963 9.28265C40.9158 9.17687 40.9378 9.02925 40.917 8.83307C40.9102 8.66022 40.893 8.46646 40.8764 8.42342L40.8511 8.40682L40.8401 7.35261C40.6708 7.18408 40.6273 7.08821 40.6273 7.00023C40.6273 6.96577 40.6334 6.94371 40.6322 6.9357C40.6334 6.93449 40.6371 6.90061 40.463 6.77449L40.4354 6.7542L40.4317 6.72159C40.4003 6.47373 40.3837 6.12319 40.3837 5.77201C40.3837 5.41894 40.4003 5.06777 40.4317 4.8199L40.4329 4.79351L40.4519 4.77444C40.7897 4.44418 41.7295 3.97299 42.3549 3.10269C42.1962 3.0449 41.7755 2.93543 41.6901 2.91884C41.6827 2.92495 41.6698 2.9416 41.655 2.96067C41.6261 2.99697 41.5854 3.05602 41.505 3.07999C41.433 3.10027 41.3765 3.13415 41.286 3.13536C41.2226 3.13536 41.1587 3.11687 41.0855 3.07383L41.0478 3.05228L41.0454 3.00987C41.03 2.68699 40.6659 2.27797 40.2858 1.96062C39.9352 1.6617 39.6105 1.45624 39.5023 1.36457L38.7549 1.20221L38.7691 1.04601L41.7318 0.964252C41.9988 0.840606 42.0541 0.821535 42.2479 0.825223C42.4483 0.81416 42.4901 0.902083 42.5948 1.04601H43.6741L43.6863 1.06756C43.6981 1.07246 43.7141 1.07989 43.7356 1.08605C43.7812 1.10512 43.8463 1.12788 43.9243 1.15306C44.0806 1.20716 44.2873 1.27239 44.4927 1.33818C44.8955 1.46552 45.2947 1.58484 45.2922 1.58732C45.3426 1.58732 45.4109 1.5849 45.4879 1.5849C45.5611 1.5849 45.6465 1.58732 45.7356 1.60028C46.09 1.64701 46.4098 1.87828 46.6694 2.09169C46.9123 2.30574 47.1429 2.4995 47.1565 2.48349H47.2069L48.2537 4.69395C48.2863 4.79115 48.2906 4.95599 48.2906 5.15465C48.2906 5.53411 48.2617 5.99908 48.2617 5.99908L48.2561 6.0378L48.2273 6.05941C48.2248 6.05941 48.1768 6.15534 48.1504 6.26112C48.1178 6.35527 48.1012 6.4444 48.055 6.51394C48.0587 6.63016 48.0599 6.75806 48.0599 6.87923C48.0599 7.14248 48.055 7.3756 48.0514 7.39467C47.6682 8.90094 46.9591 10.1113 45.6502 10.1606C45.6515 10.3444 45.6564 10.4564 45.6564 10.532C45.6588 10.6907 45.6139 10.7239 45.5267 10.807C45.5457 10.8082 45.5623 10.8082 45.5795 10.8082C45.7332 10.8106 45.863 10.7516 46.0345 10.7485C46.2775 10.7485 46.5432 10.8851 46.9842 11.4176C47.2788 11.5523 47.2056 11.914 47.2474 12.0512C47.2598 12.1028 47.269 12.1065 47.2838 12.1114C47.4411 12.1698 47.5273 12.2037 47.5864 12.2363C47.6453 12.2639 47.6896 12.3371 47.6828 12.3863C47.6816 12.4152 47.678 12.4342 47.6804 12.457C47.6804 12.5007 47.6872 12.5665 47.7462 12.6907C47.8078 12.8482 47.8282 13.3236 47.905 13.3765C47.9867 13.5297 47.9892 13.9996 48.0119 14.5002C48.023 14.98 48.0673 15.5027 48.0963 15.5076V15.5088C48.1492 15.5556 48.1369 15.5993 48.1572 15.6564C48.1695 15.7229 48.1805 15.801 48.1984 15.8779C48.2273 16.0415 48.2906 16.1399 48.3281 16.1325C48.341 16.1325 48.3687 16.1245 48.4124 16.098L48.4831 16.0532L48.5219 16.1257C48.6252 16.3275 48.881 18.3633 48.9112 18.5257L48.9161 18.5582L48.9002 18.5858C48.8498 18.6375 48.7741 19.2409 48.7741 19.338C48.7882 19.3608 48.8595 19.3873 48.9832 19.4175L49.0147 19.4248L49.0312 19.4524C49.1093 19.5834 49.2957 19.9906 49.3068 20.2034L49.316 20.2324L49.2932 20.2649C49.226 20.3633 49.2138 20.415 49.2126 20.474C49.2101 20.5847 49.2907 20.7601 49.2907 21.158C49.2907 21.4065 49.2606 21.7398 49.1622 22.2238L49.1719 22.2374C49.1827 22.2563 49.1999 22.2828 49.219 22.3154ZM45.482 7.65084C45.482 7.43068 45.5269 7.20678 45.5269 7.20246L45.5472 7.10716L45.5939 7.12871C45.6025 7.11085 45.613 7.08567 45.6216 7.06038C45.6468 7.00628 45.6517 6.94849 45.6972 6.89802L45.6997 6.46992C45.6997 6.46992 45.7236 6.38384 45.7236 6.23133C45.7236 6.03878 45.6842 5.74908 45.5085 5.42931C45.506 5.42562 45.1961 4.98831 44.8269 4.54979C44.4641 4.10816 44.0029 3.67581 43.8282 3.69119C43.7814 3.68998 43.7396 3.68871 43.6997 3.68871H43.6565V9.73592C43.7157 9.74082 43.8067 9.74572 43.8995 9.74572C43.9776 9.74693 44.0619 9.74203 44.1265 9.72976C44.4591 9.67007 44.8116 9.42842 44.8959 9.31647C45.0846 9.08336 45.3522 8.14726 45.4906 7.80473C45.4833 7.75541 45.482 7.70378 45.482 7.65084ZM56.9981 10.0926C56.9956 10.5379 56.9808 10.9198 56.9176 11.105L56.9089 11.1289L56.8887 11.1443C56.8332 11.1641 56.7323 11.5171 56.6082 11.6745C56.6039 11.7212 56.6026 11.7729 56.6026 11.8245C56.6026 12.0687 56.6371 12.3584 56.6371 12.6395C56.6371 12.8849 56.6119 13.1242 56.5061 13.3234C56.3284 13.73 56.1051 13.9521 56.0271 14.0258L55.8947 15.0339C55.7023 15.5302 55.8179 15.6281 55.7441 15.7744C55.7576 15.9669 55.8609 17.5027 55.8609 18.6553C55.8609 19.1615 55.8418 19.5896 55.7791 19.8319C55.6395 20.1554 55.6216 20.5091 55.6216 20.8836C55.6216 20.9845 55.6228 21.0859 55.6228 21.1894C55.6216 21.5774 55.6075 21.9821 55.4519 22.3671L55.2372 23.5197C55.0588 24.0148 55.0545 24.1218 54.8128 24.4152C54.7046 24.6373 54.6579 24.7036 54.5939 24.7492C54.5361 24.7911 54.5269 24.7744 54.4247 24.8888C54.3343 25.1256 53.916 25.1914 53.4351 25.3452C52.9246 25.4847 52.3416 25.6311 52.0568 25.7862C52.034 25.7924 52.0156 25.7936 51.9978 25.7936C51.7812 25.7805 51.5014 25.5315 51.3993 25.5451L51.3858 25.5475C51.2996 25.7037 51.0722 25.7369 50.8046 25.8009C50.5192 25.8575 50.1901 25.892 49.9823 25.892C49.8875 25.8908 49.8309 25.8908 49.7719 25.8636L49.6791 25.8139L49.7541 25.7394C50.053 25.4381 50.3562 24.9343 50.4091 24.3347C50.4103 24.3033 50.4116 24.2683 50.4116 24.2313C50.4134 23.7615 50.1725 23.112 50.1712 23.112L50.1447 23.04L50.2154 23.0124C50.5088 22.9066 51.1251 22.6181 51.0821 22.5086C51.0821 22.4477 51.0698 22.4213 51.0667 22.4176L51.0581 22.4151L51.0378 22.4126C50.9989 22.4126 50.9184 22.4151 50.8753 22.3223L50.6373 21.7337L50.2204 20.7723L50.5986 17.0255C50.1274 16.5113 49.6902 15.0365 49.6791 14.895V14.2866C49.6963 14.1107 49.4933 14.0842 49.4748 13.7945C49.4748 13.7945 49.4256 13.0583 49.4256 12.4968C49.4281 12.2538 49.4306 12.0571 49.4619 11.9328C49.4103 11.8848 49.3691 11.8503 49.3058 11.8079L49.2671 11.7827L49.3512 10.3558C49.3058 10.2733 49.3033 10.1676 49.2756 10.0329C49.2528 9.88463 49.2275 9.72169 49.2036 9.66016L49.2066 9.65157L49.1698 9.62634V5.45328L49.2066 5.42931C49.2719 5.38379 49.315 5.34323 49.3752 5.29218V3.68197L49.4102 3.658C49.476 3.61433 49.5197 3.57256 49.5795 3.52208V2.3762C49.3691 2.17449 47.8272 0.709471 47.7552 0.62149L47.6531 0.493005H48.8333L48.8573 0.532934C48.8979 0.606107 48.9342 0.652891 48.9809 0.715578H49.6722L49.6852 0.778899C49.671 0.982516 50.6563 1.09879 51.125 1.59878H51.7984L51.8224 1.6375C51.892 1.75625 51.9559 1.81899 52.0468 1.93089H52.7191L52.7431 1.9703C52.785 2.04347 52.82 2.09141 52.8667 2.15173H53.7431L53.7659 2.19045C53.8078 2.26489 53.8415 2.31288 53.8895 2.37309H54.8405L54.8645 2.41129C55.1695 2.91008 55.7667 3.23481 55.8909 3.46913C56.5866 4.92926 56.4451 5.05659 56.6831 5.20847L56.7175 5.23243L56.661 7.34506C56.7114 7.4244 56.7323 7.54131 56.7778 7.68154C56.8208 7.83221 56.8714 7.9989 56.8953 8.03145L56.9187 8.0481L56.9218 8.08803C56.9218 8.08814 56.9981 9.20326 56.9981 10.0926ZM53.8982 13.5664C53.897 12.9981 54.1947 12.7539 54.2993 12.6869C54.3356 12.4752 54.4831 11.4802 54.7827 11.2132V9.18787C54.6326 9.05685 54.5675 8.78006 54.4955 8.50149C54.4247 8.2081 54.3608 7.89075 54.3381 7.86678C54.1013 7.51503 53.6074 7.39196 53.5594 6.84518C53.0724 6.79235 53.0065 6.37036 52.8165 6.40914C52.4258 6.40793 52.226 6.379 51.9308 6.379C51.8379 6.379 51.7358 6.38148 51.6171 6.38886L51.5353 7.15516L51.5931 7.41962C51.5931 7.41962 51.6792 9.64483 51.6792 10.4789C51.678 10.5521 51.678 10.6099 51.678 10.6578L51.683 10.6627C51.7045 10.7021 51.7285 10.7526 51.7494 10.8011C51.7948 10.902 51.8354 10.9992 51.8379 10.9992L51.8415 11.0146V11.0294C51.825 11.2766 52.0919 12.2637 52.2094 12.2877L52.2513 12.3105L52.2218 22.0799C52.5244 21.7096 53.2045 20.7636 53.2021 19.8153C53.2021 19.7814 53.2021 19.7469 53.2021 19.6879C53.4315 18.9043 53.6844 18.6424 53.7612 18.1965L53.76 18.178C53.7636 17.9332 53.7563 14.1648 53.902 13.6673C53.9007 13.6328 53.8982 13.5989 53.8982 13.5664ZM19.1568 22.0134L19.0301 21.9629C18.8874 21.9064 18.813 21.8984 18.7299 21.8971C18.6887 21.8971 18.6433 21.9014 18.5892 21.9014H18.5473L18.5325 21.8811L18.5085 21.8775C18.4642 21.8775 18.3671 21.8947 18.1974 21.9801L18.1555 22.0017L18.118 21.9751C18.0602 21.929 17.7084 21.8873 17.3166 21.891C16.7083 21.8885 15.9414 21.9617 15.7359 22.0459C15.445 22.3282 15.3669 22.3983 15.2586 22.4112H15.2549C15.2095 22.4112 15.1769 22.3824 15.1708 22.3749V22.3737C15.0397 22.3344 15.0317 22.231 14.8884 22.1419L14.819 22.0927L14.8706 22.0282C15.4605 21.2901 15.1314 21.5133 15.808 21.0601C15.9667 20.5772 15.9858 18.9135 15.9815 18.4105V18.218L16.0159 18.1965C16.2022 18.0556 16.1918 18.0556 16.1949 18.0063C16.1961 17.9713 16.1882 17.9092 16.1857 17.8188C16.2035 17.6711 15.9882 17.5482 15.9815 17.155C15.9882 16.8802 16.0737 16.4822 16.2526 16.283L16.1857 7.54931L16.2158 7.52535C16.2816 7.47245 16.332 7.44042 16.3646 7.41956C16.38 7.41034 16.3898 7.40418 16.3947 7.40176L16.3922 7.37773C16.3983 7.34385 16.3381 7.33216 16.2225 7.26578L16.1893 7.24181L15.9261 2.79686C15.8769 2.60252 15.701 2.53857 15.4943 2.47767C15.3264 2.42725 15.1112 2.38231 15.0594 2.19045C14.8683 2.18924 14.7913 2.17691 14.7249 2.105C14.6689 2.03978 14.6615 1.98384 14.4678 1.84423L14.4008 1.79624L14.4512 1.73228C14.5268 1.63387 14.6265 1.50781 14.6505 1.46661L14.6794 1.4113L14.7397 1.42853C14.945 1.48816 15.891 1.52815 16.7829 1.52694C17.6014 1.52815 18.4127 1.49064 18.5702 1.42974L18.6305 1.40577L18.6649 1.4654C18.7406 1.59273 18.8071 1.65294 18.9128 1.78523L18.9307 1.80684V2.22744L18.8728 2.24219C18.3741 2.37753 17.8335 2.83702 17.8445 3.21891C17.8512 3.52214 17.8839 3.50059 17.9054 3.51845C17.9657 3.53874 18.0641 3.63161 18.0475 3.88259C18.0525 4.07999 17.9441 4.18831 17.8647 4.24667C17.7818 4.31437 17.7455 4.33096 17.7412 4.43548C17.7412 5.093 17.8346 6.86494 17.8346 8.36684C17.8346 9.09384 17.8118 9.75868 17.7479 10.2107C17.8167 10.2826 17.8143 10.3848 17.8395 10.4918C17.8598 10.6203 17.8801 10.7636 17.9054 10.814L17.9115 10.827L17.9429 10.8454L18.0548 11.4943L18.0136 11.5232C17.9318 11.5798 17.8862 11.6075 17.8235 11.677C17.7072 11.8018 17.6722 11.9882 17.6722 12.1758C17.6722 12.3707 17.7085 12.5522 17.7097 12.6672C17.7072 12.725 17.6882 12.7681 17.6882 12.904C17.6882 13.0147 17.7023 13.1832 17.7565 13.433C17.7805 13.5652 17.7553 13.8396 17.7854 13.9847C17.7928 14.0327 17.802 14.045 17.8057 14.0437L17.8383 14.0615L17.8432 14.0991C17.8635 14.2325 17.8696 14.3697 17.8696 14.4945C17.8696 14.7467 17.8444 14.9497 17.8432 14.9521L17.8383 14.9872L17.8082 15.0076C17.7276 15.0617 17.6858 15.093 17.6169 15.1625C17.4797 15.3046 17.4429 15.4079 17.4417 15.5279C17.4366 15.7709 17.6384 16.1084 17.6397 16.7044V16.7862C17.6569 16.9019 17.8562 17.4813 17.9202 17.5557L17.9521 17.5796L17.842 19.1326L17.8083 19.1541C17.7215 19.2132 17.6773 19.236 17.6232 19.3055C17.5572 19.386 17.5389 19.4586 17.5364 19.5447C17.5364 19.6714 17.5929 19.8264 17.6373 20.0121C17.8058 20.7084 17.7479 20.3203 19.026 21.2422L19.0524 21.2613L19.1568 22.0134ZM26.4039 26.4687H23.5389L23.5168 26.4282C23.475 26.3574 23.4387 26.31 23.392 26.2468H22.7216L22.6988 26.2093C22.5782 26.0186 22.5315 26.0161 22.4897 26.0137C22.4632 26.0124 22.4233 26.0229 22.3692 26.0254C22.267 26.0254 22.1496 25.9749 22.0124 25.8046H20.0485C19.7275 25.7861 19.6457 25.6046 19.5891 25.51C19.182 25.4774 16.6289 25.4724 15.2789 25.4724H14.432H14.3883L14.3642 25.4355C14.2923 25.2842 13.7824 25.1323 13.767 25.1409H13.0229C12.874 25.2381 11.8322 25.9165 11.7454 26.1951L11.7202 26.2561L11.6575 26.2444C11.6563 26.2444 10.9999 26.1362 10.4495 26.1362C10.1746 26.1349 9.92298 26.1674 9.81967 26.2345L9.74892 26.2782L9.70957 26.2068C9.66215 26.1245 9.62406 26.0784 9.52865 26.0125L9.45916 25.9621L9.51079 25.8981C9.65656 25.7106 9.64302 25.8189 9.6996 25.5463L9.70703 25.5076L10.3067 25.1891C10.541 24.9571 10.5084 25.0581 11.0287 24.5844V23.6361L11.0638 23.6133C11.1166 23.5819 11.2378 23.5113 11.2341 23.403C11.2353 23.3175 11.1745 23.272 11.0625 23.1902L11.0286 23.1662V21.481L11.0637 21.457C11.1295 21.4127 11.1744 21.3721 11.234 21.3205V20.5978L11.2666 20.5738C11.4579 20.4342 11.4425 20.4465 11.4425 20.409C11.4425 20.3813 11.4376 20.3285 11.4376 20.2528C11.4388 19.9864 11.2426 19.8345 11.0625 19.7072L11.0286 19.6833L11.0218 16.8706L11.071 16.8503C11.2089 16.7845 11.1609 16.8091 11.2309 16.6953C11.1947 16.4297 11.1824 16.1794 11.1824 15.9621C11.1824 15.5138 11.234 15.2075 11.2353 15.2051L11.2402 15.1712L11.2678 15.1522C11.333 15.1084 11.3785 15.0679 11.4375 15.0175V12.7984L11.4733 12.7757C11.5194 12.7516 11.7075 12.4897 11.6996 12.2928V12.2578C11.6873 12.0893 11.5311 11.8888 11.4733 11.8549L11.4375 11.8322V8.72867C11.3798 8.67572 11.3367 8.63758 11.2678 8.59212L11.234 8.56999V6.88292L11.2665 6.85895C11.4252 6.747 11.4941 6.64128 11.6454 6.5004C11.6559 6.38292 11.6885 5.94872 11.6885 5.55935C11.6885 5.34657 11.6768 5.1448 11.6504 5.02864C11.5876 4.97327 11.5445 4.93577 11.4733 4.88777L11.4025 4.83857L11.4553 4.7734C11.5445 4.66641 11.8028 3.98855 11.7967 3.79363V3.7779C11.7487 3.20836 11.4492 2.64804 11.4424 2.63825C11.4339 2.56259 11.1959 2.51218 11.0347 2.5195C11.0021 2.5195 10.9744 2.52071 10.9529 2.52071L10.9363 2.55332L10.8643 2.51327C10.6252 2.33311 10.9437 2.21194 9.83419 1.40191L9.76776 1.35144L9.81938 1.28748C9.9651 1.10236 9.95035 1.20814 10.007 0.934464L10.0193 0.871719H10.3846L10.4086 0.911071C10.4505 0.983668 10.4842 1.03161 10.5322 1.09193H12.1745L12.1973 1.13007C12.4315 1.50769 12.5767 1.55448 12.6696 1.55448C12.7378 1.55569 12.7981 1.52192 12.8891 1.51945C12.9205 1.51945 12.9568 1.52803 13.0097 1.56617C13.0122 1.56617 13.65 2.35834 13.9157 2.54594L13.9483 2.5687V4.64077L13.9144 4.66474C13.7668 4.7779 13.7502 4.78037 13.7441 4.93168V4.94395L13.7416 4.94948C13.7416 4.96302 13.7595 5.10568 14.1193 5.36587L14.1513 5.38863V6.35613L14.1168 6.38137C14.0504 6.42562 14.0061 6.46186 13.9483 6.51481V10.8694C14.1322 11.0318 14.2379 11.0398 14.3475 11.2575C14.4447 11.4604 14.4637 11.9931 14.4674 12.6555C14.4674 13.9692 14.3566 15.7203 14.3566 15.7203L14.3535 15.7596L14.3222 15.7818C14.2534 15.8273 14.2103 15.8643 14.1512 15.9172V17.3945C14.2127 17.4461 14.2656 17.4917 14.3234 17.5317L14.3498 17.5495L14.3547 17.582C14.3702 17.6639 14.3727 17.8127 14.3738 17.9874C14.3738 18.3331 14.3566 18.7599 14.3566 18.7612L14.3535 18.8239L14.2908 18.8343C14.0399 18.8743 14.0601 19.0392 13.9556 19.3541C14.1106 19.5749 14.1549 19.5386 14.1512 19.7421V19.808C14.1672 20.0558 14.1094 20.0897 13.9483 20.2312V21.1759L13.9144 21.2011C13.8449 21.2479 13.8006 21.2841 13.7441 21.3346V22.7252L13.7102 22.7492C13.5793 22.8451 13.5842 22.8851 13.535 23.0389C13.524 23.0739 13.5202 23.0966 13.5202 23.1071C13.4629 23.1194 13.733 23.1219 13.7441 23.7111C14.1193 23.7191 14.3979 23.7652 14.7454 23.7652C14.9219 23.7652 15.1187 23.7529 15.3567 23.7178C15.5264 23.4558 15.6107 23.4269 15.9447 23.2153C15.9747 23.2086 16.0075 23.2036 16.0394 23.2036C16.3881 23.2098 17.0155 23.521 17.708 23.5197C18.0383 23.5197 18.3785 23.4503 18.7044 23.2455C18.7488 23.1181 18.8772 23.112 19.0458 23.0677C19.2346 23.0314 19.4954 23.0038 19.8128 22.9834C20.4426 22.9429 21.2858 22.9293 22.142 22.9293C23.965 22.9293 25.8488 22.9933 25.8507 22.9933L25.9258 22.9945V25.6121L25.9282 25.6109C25.935 25.6232 25.9436 25.6435 25.9535 25.6663C25.975 25.7155 26.0082 25.7806 26.0457 25.8576C26.1214 26.0076 26.2222 26.1952 26.3212 26.3453L26.4039 26.4687ZM57.8801 1.84054C57.8801 2.09636 57.7553 2.44143 56.9077 2.44143C56.0577 2.44143 55.9242 2.09636 55.9242 1.84054V1.02435C55.9242 0.774635 56.0577 0.423462 56.9077 0.423462C57.7553 0.423462 57.8801 0.774635 57.8801 1.02435V1.84054ZM57.709 1.00902C57.709 0.815313 57.5762 0.584616 56.9077 0.584616C56.236 0.584616 56.0976 0.815255 56.0976 1.00902V1.85593C56.0976 2.04963 56.2359 2.28523 56.9077 2.28523C57.5763 2.28523 57.709 2.05459 57.709 1.85961V1.00902ZM56.6506 1.60616V2.02192C56.6506 2.04468 56.642 2.06375 56.6168 2.06375H56.5146C56.4857 2.06375 56.4772 2.04468 56.4772 2.02192V0.880419C56.4772 0.852763 56.4857 0.839224 56.5146 0.839224H56.952C57.3044 0.839224 57.3911 1.00896 57.3911 1.16764V1.27895C57.3911 1.39707 57.3346 1.52809 57.1556 1.58219L57.3462 2.02192C57.3523 2.04468 57.3346 2.06375 57.3081 2.06375H57.2011C57.1784 2.06375 57.1698 2.04468 57.1612 2.02192L56.9846 1.60616H56.9522H56.6506ZM56.6506 0.977619V1.46776H56.9328C57.1321 1.46776 57.2164 1.37062 57.2164 1.26853V1.17686C57.2164 1.07482 57.137 0.977619 56.9328 0.977619H56.6506Z" fill="#979FAD"/>
</svg>
