<svg width="133" height="31" viewBox="0 0 133 31" fill="none" xmlns="http://www.w3.org/2000/svg">
<g clip-path="url(#clip0_3478_36227)">
<path d="M40.6466 21.865V8.88504H44.1042L48.4771 18.5183L52.7945 8.88504H56.1042V21.865H53.2567V14.432L49.9655 21.865H46.9332L43.605 14.469V21.865H40.6466ZM60.7452 21.865H57.3985L63.1581 8.88504H67.2906L73.0873 21.865H69.7775L68.6404 19.2672L61.8638 19.2857L60.7452 21.865ZM67.568 16.8357L65.2105 11.4736L62.9085 16.8357H67.568ZM74.4463 21.865V8.88504H86.853V11.4829H77.4416V14.0807H85.5033V16.6601H77.4324V19.2764H86.8438V21.8743H74.4463V21.865ZM89.2567 21.865V8.88504H99.8792C99.8792 8.88504 100.563 8.81108 101.284 9.5137C101.932 10.1424 101.821 11.0669 101.821 11.0669V15.4305C101.821 15.4305 101.95 16.2348 101.183 16.9189C100.443 17.5753 99.3708 17.4367 99.3708 17.4367L101.839 21.8743H98.5942L96.1443 17.4367H92.2891V21.8743H89.2567V21.865ZM92.2891 14.8296H98.7976V11.4736H92.2891V14.8296ZM107.284 21.865H106.258C106.258 21.865 105.352 21.8465 104.844 21.3103C104.252 20.6817 104.271 19.9605 104.271 19.9605V18.2687H107.284V19.2764H113.691V16.6601H106.332C106.332 16.6601 105.426 16.7525 104.872 16.1793C104.252 15.5414 104.317 14.7741 104.317 14.7741V10.882C104.317 10.882 104.308 10.2256 104.742 9.64313C105.38 8.81108 106.351 8.89429 106.351 8.89429L114.754 8.90353C114.754 8.90353 115.439 8.85731 116.113 9.50446C116.853 10.2163 116.677 10.9652 116.677 10.9652V12.5183H113.682V11.4921H107.275V14.09H114.607C114.607 14.09 115.466 14.0253 116.067 14.7186C116.677 15.412 116.677 16.1793 116.677 16.1793V19.8404C116.677 19.8404 116.779 20.5615 116.197 21.2086C115.54 21.9575 114.662 21.865 114.662 21.865H107.284ZM119.553 21.865V8.8758H122.631V14.0715L128.492 8.8758H132.662L125.673 14.9035L132.912 21.8558H128.594L122.622 15.9482V21.8558H119.553V21.865ZM28.6466 3.80954C28.6373 2.07148 27.2968 0.379648 25.2167 0.379648L3.61113 0.370403C1.79912 0.361158 0.171997 1.87734 0.171997 3.80954V26.922C0.171997 28.7155 1.59573 30.3704 3.60189 30.3704H25.1982C27.1581 30.3612 28.6373 28.808 28.6466 26.9313V3.80954ZM27.1304 18.4166L18.2552 18.4259L20.2891 27.2456L20.2336 27.2918L14.4278 20.2009H14.3538L8.61268 27.3011C8.5757 27.3288 8.56645 27.3288 8.52947 27.3011L10.5264 18.4536L1.66969 18.4259C1.63271 18.3981 1.63271 18.3796 1.63271 18.3519L9.68509 14.4783L9.74056 14.4228L4.19357 7.51678C4.17508 7.4798 4.21206 7.46131 4.23055 7.42433L12.2367 11.1963L14.3353 2.60769H14.3908L16.4709 11.224L24.4863 7.46131C24.5141 7.44282 24.5326 7.48905 24.5603 7.49829L19.0318 14.4135L27.1119 18.3149C27.1489 18.3427 27.1859 18.3796 27.1304 18.4166Z" fill="#979FAD"/>
</g>
<defs>
<clipPath id="clip0_3478_36227">
<rect width="132.74" height="30" fill="white" transform="translate(0.171997 0.370361)"/>
</clipPath>
</defs>
</svg>
