<svg fill="none" height="280" viewBox="0 0 491 280" width="491" xmlns="http://www.w3.org/2000/svg" xmlns:xlink="http://www.w3.org/1999/xlink"><linearGradient id="a" gradientUnits="userSpaceOnUse" x1="245.5" x2="245.5" y1="21.5" y2="283.5"><stop offset="0" stop-color="#0a1b34"/><stop offset=".994792" stop-color="#42b883"/></linearGradient><linearGradient id="b" gradientUnits="userSpaceOnUse" x1="50" x2="219" y1="117.5" y2="117.5"><stop offset="0" stop-color="#42b883"/><stop offset="1" stop-color="#7efff7"/></linearGradient><linearGradient id="c" gradientUnits="userSpaceOnUse" x1="245.5" x2="245.5" y1="0" y2="280"><stop offset="0" stop-color="#fff"/><stop offset="1" stop-color="#fff" stop-opacity="0"/></linearGradient><clipPath id="d"><path d="m252 56h189v168h-189z"/></clipPath><rect fill="#2f2f2f" fill-opacity=".9" height="280" rx="20" width="491"/><rect fill="url(#a)" fill-opacity=".2" height="219" rx="3.5" width="430" x="30.5" y="30.5"/><path d="m68.3274 72.2109h-4.044c-.0739-.5232-.2247-.9879-.4524-1.3941-.2278-.4124-.5202-.7633-.8772-1.0526s-.7694-.5109-1.2372-.6648c-.4616-.1539-.9633-.2308-1.505-.2308-.9786 0-1.8312.2431-2.5575.7294-.7263.4801-1.2895 1.1818-1.6896 2.1051-.4001.9172-.6002 2.0313-.6002 3.3424 0 1.348.2001 2.4805.6002 3.3977.4062.9171.9725 1.6096 1.6989 2.0774.7263.4678 1.5665.7017 2.5205.7017.5356 0 1.0311-.0708 1.4866-.2124.4616-.1415.8709-.3477 1.2279-.6186.357-.277.6525-.6124.8864-1.0064.2401-.3939.4063-.8432.4986-1.348l4.044.0185c-.1046.8679-.3662 1.705-.7848 2.5114-.4124.8002-.9694 1.5172-1.6712 2.1512-.6955.6279-1.5265 1.1265-2.4928 1.4958-.9603.3631-2.0467.5447-3.2593.5447-1.6865 0-3.1946-.3816-4.5241-1.1449-1.3234-.7632-2.3698-1.8681-3.1392-3.3146-.7633-1.4465-1.1449-3.1977-1.1449-5.2535 0-2.0621.3878-3.8163 1.1633-5.2628.7756-1.4465 1.8282-2.5483 3.1577-3.3054 1.3295-.7633 2.8253-1.1449 4.4872-1.1449 1.0957 0 2.1113.1539 3.0469.4616.9418.3078 1.7758.7571 2.5021 1.348.7263.5848 1.3173 1.3019 1.7728 2.1513.4616.8495.7571 1.822.8863 2.9176zm9.2561 12.5661c-1.4589 0-2.7145-.2955-3.7671-.8864-1.0464-.597-1.8527-1.4403-2.419-2.5298-.5663-1.0956-.8495-2.3913-.8495-3.8871 0-1.4588.2832-2.7391.8495-3.8409s1.3634-1.9605 2.3913-2.576c1.0341-.6155 2.2467-.9233 3.6378-.9233.9356 0 1.8066.1508 2.6129.4524.8125.2955 1.5204.7418 2.1236 1.3388.6094.5971 1.0833 1.348 1.4219 2.2529.3385.8986.5078 1.9512.5078 3.1576v1.0803h-11.9752v-2.4375h8.2728c0-.5663-.1231-1.068-.3693-1.505-.2463-.437-.5879-.7786-1.0249-1.0248-.4309-.2524-.9325-.3786-1.505-.3786-.597 0-1.1264.1385-1.588.4155-.4555.2708-.8125.6371-1.0711 1.0987-.2585.4555-.3908.9633-.397 1.5234v2.3175c0 .7017.1293 1.308.3878 1.8189.2647.5109.6371.9048 1.1172 1.1818s1.0495.4155 1.7081.4155c.437 0 .8371-.0615 1.2003-.1847.3631-.1231.674-.3077.9325-.5539s.4555-.5478.5909-.9049l3.6378.2401c-.1847.8741-.5632 1.6373-1.1357 2.2898-.5663.6463-1.2987 1.151-2.1974 1.5142-.8925.357-1.9235.5355-3.093.5355zm9.0759-.277v-14.1818h3.8133v2.4744h.1477c.2585-.8802.6925-1.545 1.3018-1.9943.6094-.4555 1.3111-.6832 2.1051-.6832.197 0 .4094.0123.6371.0369.2278.0246.4278.0585.6002.1016v3.49c-.1847-.0554-.4401-.1046-.7664-.1477-.3262-.0431-.6247-.0647-.8956-.0647-.5786 0-1.0956.1262-1.5511.3786-.4493.2462-.8064.5909-1.071 1.0341-.2586.4432-.3878.9541-.3878 1.5327v8.0234zm18.8926-14.1818v2.9545h-8.5401v-2.9545zm-6.6012-3.3977h3.9332v13.2215c0 .3632.055.6464.166.8495.111.1969.265.3354.462.4155.203.08.437.12.702.12.184 0 .369-.0154.554-.0462.184-.0369.326-.0646.424-.0831l.619 2.9269c-.197.0615-.474.1323-.831.2123-.357.0862-.791.1385-1.302.157-.948.0369-1.779-.0893-2.493-.3786-.708-.2893-1.2586-.7386-1.6525-1.348-.3939-.6093-.5878-1.3788-.5817-2.3082zm9.1642 17.5795v-14.1818h3.933v14.1818zm1.975-16.0099c-.584 0-1.086-.1939-1.505-.5817-.412-.394-.618-.8648-.618-1.4127 0-.5416.206-1.0064.618-1.3941.419-.394.921-.5909 1.505-.5909.585 0 1.084.1969 1.496.5909.419.3877.628.8525.628 1.3941 0 .5479-.209 1.0187-.628 1.4127-.412.3878-.911.5817-1.496.5817zm12.735 1.8281v2.9545h-8.753v-2.9545zm-6.749 14.1818v-15.2067c0-1.0279.2-1.8804.6-2.5575.406-.6771.96-1.1849 1.662-1.5234.701-.3386 1.499-.5079 2.391-.5079.603 0 1.154.0462 1.653.1385.504.0924.88.1755 1.126.2493l-.702 2.9546c-.153-.0493-.344-.0954-.572-.1385-.222-.0431-.449-.0646-.683-.0646-.579 0-.982.1354-1.21.4062-.227.2647-.341.6371-.341 1.1172v15.1328zm9.152 0v-14.1818h3.933v14.1818zm1.976-16.0099c-.585 0-1.087-.1939-1.505-.5817-.413-.394-.619-.8648-.619-1.4127 0-.5416.206-1.0064.619-1.3941.418-.394.92-.5909 1.505-.5909.584 0 1.083.1969 1.495.5909.419.3877.628.8525.628 1.3941 0 .5479-.209 1.0187-.628 1.4127-.412.3878-.911.5817-1.495.5817zm11.515 16.2869c-1.452 0-2.702-.3078-3.748-.9233-1.04-.6217-1.841-1.4834-2.401-2.5852-.554-1.1018-.831-2.3698-.831-3.804 0-1.4527.28-2.7268.841-3.8225.566-1.1018 1.369-1.9604 2.409-2.5759 1.041-.6217 2.278-.9326 3.712-.9326 1.237 0 2.321.2247 3.25.674.929.4494 1.665 1.0803 2.207 1.8928.541.8125.84 1.7666.895 2.8622h-3.711c-.105-.7079-.382-1.2772-.831-1.7081-.444-.437-1.025-.6555-1.745-.6555-.61 0-1.142.1662-1.598.4985-.449.3263-.8.8033-1.052 1.4312-.253.6278-.379 1.388-.379 2.2805 0 .9048.123 1.6742.37 2.3082.252.634.606 1.1172 1.061 1.4496.456.3324.988.4986 1.598.4986.449 0 .852-.0923 1.209-.277.363-.1847.662-.4524.896-.8033.24-.357.397-.7848.471-1.2834h3.711c-.061 1.0834-.357 2.0375-.886 2.8623-.523.8186-1.247 1.4588-2.17 1.9204-.923.4617-2.016.6925-3.278.6925zm12.897-.0092c-.905 0-1.712-.157-2.419-.4709-.708-.3201-1.268-.791-1.681-1.4127-.406-.6278-.609-1.4095-.609-2.3451 0-.7879.144-1.4496.434-1.9851.289-.5355.683-.9664 1.182-1.2926.498-.3263 1.064-.5725 1.698-.7387.641-.1662 1.311-.2831 2.013-.3508.825-.0862 1.49-.1662 1.995-.2401.504-.08.87-.197 1.098-.3508.228-.1539.342-.3817.342-.6833v-.0554c0-.5847-.185-1.0371-.554-1.3572-.363-.3201-.88-.4801-1.551-.4801-.708 0-1.271.1569-1.69.4709-.418.3077-.695.6955-.831 1.1633l-3.638-.2954c.185-.8618.548-1.6066 1.09-2.2344.542-.634 1.24-1.1203 2.096-1.4588.861-.3447 1.859-.5171 2.991-.5171.788 0 1.542.0924 2.262.277.727.1847 1.37.4709 1.93.8587.566.3878 1.013.8863 1.339 1.4957.326.6032.489 1.3265.489 2.1698v9.5653h-3.73v-1.9666h-.111c-.228.4432-.532.834-.914 1.1726-.382.3324-.84.594-1.376.7848-.535.1846-1.154.277-1.855.277zm1.126-2.7145c.579 0 1.089-.1139 1.533-.3417.443-.2339.791-.5478 1.043-.9417.252-.394.379-.8402.379-1.3388v-1.505c-.124.0801-.293.1539-.508.2216-.21.0616-.447.1201-.711.1755-.265.0492-.53.0954-.794.1384-.265.037-.505.0708-.72.1016-.462.0677-.865.1754-1.21.3232-.345.1477-.612.3477-.803.6001-.191.2462-.286.554-.286.9233 0 .5355.193.9448.581 1.228.394.277.893.4155 1.496.4155zm17.455-11.7351v2.9545h-8.541v-2.9545zm-6.602-3.3977h3.934v13.2215c0 .3632.055.6464.166.8495.111.1969.264.3354.461.4155.204.08.437.12.702.12.185 0 .369-.0154.554-.0462.185-.0369.326-.0646.425-.0831l.618 2.9269c-.197.0615-.474.1323-.831.2123-.357.0862-.79.1385-1.301.157-.948.0369-1.779-.0893-2.493-.3786-.708-.2893-1.259-.7386-1.653-1.348-.394-.6093-.588-1.3788-.582-2.3082zm15.475 17.8565c-1.459 0-2.715-.2955-3.767-.8864-1.047-.597-1.853-1.4403-2.419-2.5298-.567-1.0956-.85-2.3913-.85-3.8871 0-1.4588.283-2.7391.85-3.8409.566-1.1018 1.363-1.9605 2.391-2.576 1.034-.6155 2.247-.9233 3.638-.9233.935 0 1.806.1508 2.613.4524.812.2955 1.52.7418 2.123 1.3388.61.5971 1.084 1.348 1.422 2.2529.339.8986.508 1.9512.508 3.1576v1.0803h-11.975v-2.4375h8.273c0-.5663-.124-1.068-.37-1.505s-.588-.7786-1.025-1.0248c-.43-.2524-.932-.3786-1.505-.3786-.597 0-1.126.1385-1.588.4155-.455.2708-.812.6371-1.071 1.0987-.258.4555-.391.9633-.397 1.5234v2.3175c0 .7017.13 1.308.388 1.8189.265.5109.637.9048 1.117 1.1818s1.05.4155 1.708.4155c.437 0 .838-.0615 1.201-.1847.363-.1231.674-.3077.932-.5539.259-.2462.456-.5478.591-.9049l3.638.2401c-.185.8741-.563 1.6373-1.136 2.2898-.566.6463-1.299 1.151-2.197 1.5142-.893.357-1.924.5355-3.093.5355zm21.501 0c-1.434 0-2.674-.3047-3.721-.9141-1.04-.6155-1.843-1.4711-2.41-2.5667-.566-1.1018-.849-2.3791-.849-3.8317 0-1.465.283-2.7453.849-3.8409.567-1.1018 1.37-1.9574 2.41-2.5668 1.047-.6155 2.287-.9233 3.721-.9233s2.671.3078 3.712.9233c1.046.6094 1.852 1.465 2.419 2.5668.566 1.0956.849 2.3759.849 3.8409 0 1.4526-.283 2.7299-.849 3.8317-.567 1.0956-1.373 1.9512-2.419 2.5667-1.041.6094-2.278.9141-3.712.9141zm.018-3.0469c.653 0 1.198-.1846 1.635-.554.437-.3754.766-.8863.988-1.5326.227-.6463.341-1.3819.341-2.2067s-.114-1.5604-.341-2.2067c-.222-.6463-.551-1.1572-.988-1.5327-.437-.3754-.982-.5632-1.635-.5632-.658 0-1.212.1878-1.661.5632-.444.3755-.779.8864-1.007 1.5327-.221.6463-.332 1.3819-.332 2.2067s.111 1.5604.332 2.2067c.228.6463.563 1.1572 1.007 1.5326.449.3694 1.003.554 1.661.554zm17.146-11.4119v2.9545h-8.753v-2.9545zm-6.749 14.1818v-15.2067c0-1.0279.2-1.8804.6-2.5575.406-.6771.96-1.1849 1.662-1.5234.702-.3386 1.499-.5079 2.391-.5079.603 0 1.154.0462 1.653.1385.505.0924.88.1755 1.126.2493l-.701 2.9546c-.154-.0493-.345-.0954-.573-.1385-.221-.0431-.449-.0646-.683-.0646-.579 0-.982.1354-1.21.4062-.227.2647-.341.6371-.341 1.1172v15.1328zm-142.6586 15.711h-4.044c-.0739-.5233-.2247-.988-.4524-1.3942-.2278-.4124-.5202-.7633-.8772-1.0526s-.7694-.5109-1.2372-.6648c-.4616-.1539-.9633-.2308-1.505-.2308-.9786 0-1.8312.2431-2.5575.7294-.7263.4801-1.2895 1.1818-1.6896 2.1051-.4001.9169-.6002 2.0309-.6002 3.3419 0 1.348.2001 2.481.6002 3.398.4062.917.9725 1.61 1.6989 2.078.7263.467 1.5665.701 2.5205.701.5356 0 1.0311-.07 1.4866-.212.4616-.142.8709-.348 1.2279-.619.357-.277.6525-.612.8864-1.006.2401-.394.4063-.843.4986-1.348l4.044.018c-.1046.868-.3662 1.705-.7848 2.512-.4124.8-.9694 1.517-1.6712 2.151-.6955.628-1.5265 1.126-2.4928 1.496-.9603.363-2.0467.545-3.2593.545-1.6865 0-3.1946-.382-4.5241-1.145-1.3234-.764-2.3698-1.868-3.1392-3.315-.7633-1.446-1.1449-3.198-1.1449-5.254 0-2.062.3878-3.8158 1.1633-5.2623.7756-1.4465 1.8282-2.5483 3.1577-3.3054 1.3295-.7633 2.8253-1.1449 4.4872-1.1449 1.0957 0 2.1113.1539 3.0469.4616.9418.3078 1.7758.7571 2.5021 1.348.7263.5848 1.3173 1.3019 1.7728 2.1513.4616.8495.7571 1.822.8863 2.9177zm9.2007 12.566c-1.4342 0-2.6745-.305-3.7209-.914-1.0403-.616-1.8435-1.471-2.4098-2.567-.5663-1.102-.8495-2.379-.8495-3.832 0-1.464.2832-2.745.8495-3.84.5663-1.102 1.3695-1.9578 2.4098-2.5672 1.0464-.6155 2.2867-.9233 3.7209-.9233 1.4341 0 2.6714.3078 3.7116.9233 1.0464.6094 1.8527 1.4652 2.419 2.5672.5663 1.095.8495 2.376.8495 3.84 0 1.453-.2832 2.73-.8495 3.832-.5663 1.096-1.3726 1.951-2.419 2.567-1.0402.609-2.2775.914-3.7116.914zm.0184-3.047c.6525 0 1.1972-.185 1.6343-.554.437-.375.7663-.886.9879-1.533.2277-.646.3416-1.381.3416-2.206s-.1139-1.561-.3416-2.207c-.2216-.646-.5509-1.157-.9879-1.533-.4371-.375-.9818-.563-1.6343-.563-.6586 0-1.2126.188-1.6619.563-.4432.376-.7787.887-1.0064 1.533-.2216.646-.3324 1.382-.3324 2.207s.1108 1.56.3324 2.206c.2277.647.5632 1.158 1.0064 1.533.4493.369 1.0033.554 1.6619.554zm9.5192 2.77v-14.1818h3.7486v2.5018h.1662c.2954-.8307.7878-1.4862 1.4772-1.9663s1.5142-.7202 2.4745-.7202c.9725 0 1.8004.2432 2.4836.7294.6833.4801 1.1388 1.1326 1.3665 1.9571h.1477c.2893-.812.8125-1.4616 1.57-1.9478.763-.4925 1.665-.7387 2.705-.7387 1.323 0 2.397.4217 3.222 1.2649.831.8376 1.247 2.0256 1.247 3.5636v9.538h-3.924v-8.762c0-.788-.21-1.379-.628-1.773-.419-.394-.942-.591-1.57-.591-.714 0-1.271.228-1.671.684-.4001.449-.6001 1.043-.6001 1.781v8.661h-3.8132v-8.845c0-.696-.2001-1.25-.6002-1.662-.3939-.413-.914-.619-1.5603-.619-.4371 0-.831.111-1.1818.333-.3447.215-.6187.52-.8218.914-.2031.388-.3047.843-.3047 1.366v8.513zm23.7153 5.318v-19.4998h3.877v2.3818h.176c.172-.381.421-.7691.748-1.1631.332-.4001.763-.7324 1.292-.9971.536-.2709 1.201-.4063 1.995-.4063 1.034 0 1.988.2709 2.862.8125.874.5355 1.573 1.345 2.096 2.428.523 1.077.785 2.429.785 4.054 0 1.581-.256 2.917-.767 4.007-.505 1.083-1.194 1.905-2.068 2.465-.868.554-1.84.831-2.918.831-.763 0-1.412-.126-1.948-.379-.529-.252-.963-.569-1.302-.951-.338-.388-.597-.778-.775-1.172h-.12v7.589zm3.85-12.409c0 .843.117 1.579.351 2.207.233.628.572 1.117 1.015 1.468.443.345.982.517 1.616.517.64 0 1.182-.176 1.625-.526.443-.357.779-.85 1.006-1.478.234-.634.351-1.363.351-2.188 0-.819-.114-1.539-.341-2.16-.228-.622-.564-1.108-1.007-1.459s-.988-.527-1.634-.527c-.64 0-1.182.17-1.625.508-.437.339-.773.819-1.006 1.441-.234.621-.351 1.354-.351 2.197zm19.066 7.368c-1.459 0-2.715-.295-3.767-.886-1.047-.597-1.853-1.441-2.419-2.53-.567-1.096-.85-2.392-.85-3.887 0-1.459.283-2.739.85-3.841.566-1.102 1.363-1.9607 2.391-2.5762 1.034-.6155 2.247-.9233 3.638-.9233.935 0 1.806.1508 2.613.4524.812.2955 1.52.7418 2.123 1.3388.61.5973 1.084 1.3483 1.422 2.2533.339.898.508 1.951.508 3.157v1.08h-11.975v-2.437h8.273c0-.566-.124-1.068-.37-1.505s-.588-.779-1.025-1.025c-.43-.252-.932-.378-1.505-.378-.597 0-1.126.138-1.588.415-.455.271-.812.637-1.071 1.099-.258.455-.391.963-.397 1.523v2.318c0 .701.13 1.308.388 1.819.265.51.637.904 1.117 1.181s1.05.416 1.708.416c.437 0 .837-.062 1.201-.185.363-.123.674-.308.932-.554.259-.246.456-.548.591-.905l3.638.241c-.185.874-.563 1.637-1.136 2.289-.566.647-1.299 1.151-2.197 1.514-.893.357-1.924.536-3.093.536zm16.619-14.4588v2.9548h-8.54v-2.9548zm-6.602-3.3977h3.934v13.2215c0 .363.055.646.166.849.111.197.265.336.462.416.203.08.437.12.701.12.185 0 .37-.015.554-.046.185-.037.326-.065.425-.083l.619 2.927c-.197.061-.474.132-.831.212-.357.086-.791.138-1.302.157-.948.037-1.779-.089-2.493-.379-.708-.289-1.259-.738-1.653-1.348-.394-.609-.588-1.378-.582-2.308zm15.475 17.8565c-1.459 0-2.715-.295-3.767-.886-1.047-.597-1.853-1.441-2.419-2.53-.566-1.096-.85-2.392-.85-3.887 0-1.459.284-2.739.85-3.841s1.363-1.9607 2.391-2.5762c1.034-.6155 2.247-.9233 3.638-.9233.936 0 1.807.1508 2.613.4524.812.2955 1.52.7418 2.123 1.3388.61.5973 1.084 1.3483 1.422 2.2533.339.898.508 1.951.508 3.157v1.08h-11.975v-2.437h8.273c0-.566-.123-1.068-.37-1.505-.246-.437-.587-.779-1.024-1.025-.431-.252-.933-.378-1.505-.378-.597 0-1.127.138-1.588.415-.456.271-.813.637-1.071 1.099-.259.455-.391.963-.398 1.523v2.318c0 .701.13 1.308.388 1.819.265.51.637.904 1.117 1.181.481.277 1.05.416 1.709.416.437 0 .837-.062 1.2-.185s.674-.308.932-.554c.259-.246.456-.548.591-.905l3.638.241c-.185.874-.563 1.637-1.136 2.289-.566.647-1.298 1.151-2.197 1.514-.893.357-1.924.536-3.093.536zm13.009-8.476v8.199h-3.933v-14.1818h3.748v2.5018h.167c.314-.8245.84-1.477 1.579-1.9571.738-.4862 1.634-.7294 2.686-.7294.985 0 1.844.2155 2.576.6463.733.4309 1.302 1.0464 1.708 1.8462.407.794.61 1.742.61 2.844v9.03h-3.933v-8.328c.006-.868-.216-1.545-.665-2.031-.45-.493-1.068-.739-1.856-.739-.529 0-.997.114-1.403.342-.401.227-.714.56-.942.997-.222.431-.336.951-.342 1.56zm18.648 8.476c-1.452 0-2.702-.308-3.748-.923-1.04-.622-1.841-1.484-2.401-2.586-.554-1.101-.831-2.369-.831-3.804 0-1.452.28-2.726.84-3.822.567-1.102 1.37-1.9604 2.41-2.5759 1.041-.6217 2.278-.9326 3.712-.9326 1.237 0 2.32.2247 3.25.674.929.4494 1.665 1.0803 2.207 1.8925.541.813.84 1.767.895 2.862h-3.711c-.105-.707-.382-1.277-.831-1.708-.444-.437-1.025-.655-1.745-.655-.61 0-1.142.166-1.598.498-.449.327-.8.804-1.052 1.432-.253.627-.379 1.388-.379 2.28 0 .905.123 1.674.369 2.308.253.634.607 1.118 1.062 1.45.456.332.988.498 1.598.498.449 0 .852-.092 1.209-.277.363-.184.662-.452.896-.803.24-.357.397-.785.471-1.283h3.711c-.061 1.083-.357 2.037-.886 2.862-.523.819-1.247 1.459-2.17 1.921-.923.461-2.016.692-3.278.692zm15.316 0c-1.459 0-2.715-.295-3.767-.886-1.047-.597-1.853-1.441-2.42-2.53-.566-1.096-.849-2.392-.849-3.887 0-1.459.283-2.739.849-3.841.567-1.102 1.364-1.9607 2.392-2.5762 1.034-.6155 2.247-.9233 3.638-.9233.935 0 1.806.1508 2.613.4524.812.2955 1.52.7418 2.123 1.3388.609.5973 1.083 1.3483 1.422 2.2533.339.898.508 1.951.508 3.157v1.08h-11.975v-2.437h8.272c0-.566-.123-1.068-.369-1.505s-.588-.779-1.025-1.025c-.431-.252-.932-.378-1.505-.378-.597 0-1.126.138-1.588.415-.455.271-.812.637-1.071 1.099-.258.455-.391.963-.397 1.523v2.318c0 .701.129 1.308.388 1.819.265.51.637.904 1.117 1.181s1.05.416 1.708.416c.437 0 .837-.062 1.2-.185.364-.123.674-.308.933-.554s.456-.548.591-.905l3.638.241c-.185.874-.563 1.637-1.136 2.289-.566.647-1.299 1.151-2.197 1.514-.893.357-1.924.536-3.093.536z" fill="url(#b)"/><g fill="#fff"><path d="m50.6903 142.5v-4.909h.7543v4.909zm.3836-5.727c-.1471 0-.2738-.05-.3804-.15-.1044-.101-.1566-.221-.1566-.362 0-.14.0522-.261.1566-.361.1066-.1.2333-.15.3804-.15.147 0 .2727.05.3771.15.1065.1.1598.221.1598.361 0 .141-.0533.261-.1598.362-.1044.1-.2301.15-.3771.15zm5.2295 1.917-.6776.192c-.0426-.113-.1055-.223-.1886-.329-.0809-.109-.1917-.198-.3324-.269-.1406-.07-.3206-.105-.5401-.105-.3004 0-.5508.069-.751.208-.1982.136-.2973.31-.2973.521 0 .187.0682.335.2046.444.1363.109.3494.199.6392.272l.7287.179c.4389.106.7659.269.9811.489.2152.217.3228.497.3228.84 0 .281-.0809.533-.2429.754-.1598.222-.3835.397-.6711.525-.2877.127-.6222.191-1.0036.191-.5007 0-.9151-.108-1.2432-.326-.3281-.217-.5359-.535-.6232-.952l.7159-.179c.0681.264.1971.462.3867.594.1917.132.4421.199.751.199.3516 0 .6307-.075.8374-.224.2088-.152.3132-.333.3132-.544 0-.17-.0596-.313-.179-.428-.1193-.117-.3025-.204-.5497-.262l-.8182-.192c-.4495-.106-.7798-.271-.9907-.495-.2088-.226-.3132-.508-.3132-.847 0-.277.0777-.522.2333-.735.1576-.213.3718-.38.6424-.502.2727-.121.5816-.182.9268-.182.4858 0 .8672.107 1.1442.32.2791.213.4773.494.5945.843zm4.5103.857v2.953h-.7542v-6.545h.7542v2.403h.064c.115-.254.2876-.455.5177-.604.2323-.151.5412-.227.9269-.227.3345 0 .6275.067.8789.201.2514.132.4463.336.5848.611.1407.273.211.62.211 1.042v3.119h-.7543v-3.068c0-.39-.1012-.692-.3036-.905-.2003-.215-.4783-.322-.8342-.322-.2471 0-.4687.052-.6647.156-.1939.105-.3473.257-.4603.457-.1108.2-.1662.443-.1662.729zm6.6214 3.055c-.473 0-.881-.104-1.2241-.313-.3409-.211-.604-.505-.7894-.882-.1832-.379-.2748-.82-.2748-1.323s.0916-.946.2748-1.33c.1854-.385.4432-.686.7734-.901.3324-.217.7202-.326 1.1634-.326.2557 0 .5082.043.7575.128.2492.085.4762.224.6807.415.2046.19.3676.441.489.755.1214.313.1822.698.1822 1.157v.319h-3.7841v-.652h3.017c0-.277-.0554-.524-.1662-.741-.1086-.218-.2642-.389-.4666-.515-.2003-.126-.4368-.188-.7095-.188-.3004 0-.5604.074-.7798.223-.2174.147-.3846.339-.5018.576-.1172.236-.1758.49-.1758.76v.435c0 .371.0639.685.1918.943.1299.255.31.45.5401.585.2301.132.4975.198.8022.198.1982 0 .3771-.028.5369-.083.162-.058.3015-.143.4187-.256.1172-.115.2078-.258.2717-.428l.7287.204c-.0767.247-.2056.465-.3867.652-.1812.186-.4049.33-.6712.435-.2663.102-.5657.153-.8981.153zm3.18-.102v-4.909h.7287v.741h.0512c.0895-.243.2514-.44.4858-.591.2343-.151.4986-.227.7926-.227.0554 0 .1246.001.2077.003.0831.003.146.006.1886.01v.767c-.0256-.006-.0842-.016-.1758-.029-.0895-.015-.1843-.022-.2844-.022-.2387 0-.4517.05-.6392.15-.1854.098-.3324.234-.4411.409-.1065.173-.1598.37-.1598.591v3.107zm5.2575.102c-.473 0-.881-.104-1.2241-.313-.3409-.211-.604-.505-.7894-.882-.1832-.379-.2748-.82-.2748-1.323s.0916-.946.2748-1.33c.1854-.385.4432-.686.7734-.901.3324-.217.7202-.326 1.1634-.326.2557 0 .5082.043.7575.128.2492.085.4762.224.6807.415.2046.19.3676.441.489.755.1214.313.1822.698.1822 1.157v.319h-3.7841v-.652h3.017c0-.277-.0554-.524-.1662-.741-.1086-.218-.2642-.389-.4666-.515-.2003-.126-.4368-.188-.7095-.188-.3004 0-.5604.074-.7798.223-.2174.147-.3846.339-.5018.576-.1172.236-.1758.49-.1758.76v.435c0 .371.0639.685.1918.943.1299.255.31.45.5401.585.2301.132.4975.198.8022.198.1982 0 .3771-.028.5369-.083.162-.058.3015-.143.4187-.256.1172-.115.2078-.258.2717-.428l.7287.204c-.0767.247-.2056.465-.3867.652-.1812.186-.4049.33-.6712.435-.2663.102-.5657.153-.8981.153zm3.2823-.102v-6.545h.7543v2.416h.0639c.0554-.085.1321-.194.2301-.326.1002-.134.2429-.254.4283-.358.1875-.107.441-.16.7606-.16.4134 0 .7777.103 1.0931.31.3153.207.5614.5.7383.879.1768.379.2652.827.2652 1.342 0 .52-.0884.971-.2652 1.352-.1769.379-.4219.673-.7351.882-.3132.207-.6744.31-1.0835.31-.3153 0-.5678-.052-.7574-.156-.1897-.107-.3356-.227-.4379-.361-.1023-.137-.1811-.25-.2365-.339h-.0895v.754zm.7415-2.455c0 .371.0543.698.163.982.1087.281.2674.501.4762.661.2088.158.4645.237.767.237.3154 0 .5785-.083.7895-.25.213-.168.3728-.394.4794-.677.1086-.286.163-.603.163-.953 0-.345-.0533-.656-.1598-.933-.1044-.279-.2632-.499-.4762-.661-.211-.164-.4763-.246-.7959-.246-.3068 0-.5646.077-.7734.233-.2088.153-.3665.368-.473.645-.1065.275-.1598.596-.1598.962zm5.0561 4.296c-.1278 0-.2418-.011-.342-.032-.1001-.019-.1694-.038-.2077-.058l.1917-.664c.1833.047.3452.064.4858.051.1407-.013.2653-.076.374-.189.1108-.111.212-.291.3036-.54l.1406-.383-1.8153-4.935h.8182l1.3551 3.912h.0511l1.3551-3.912h.8182l-2.0838 5.625c-.0937.253-.2099.463-.3484.63-.1385.168-.2993.292-.4826.373-.1811.081-.3856.122-.6136.122zm9.0368.102c-.3644 0-.6776-.047-.9397-.14-.262-.092-.4804-.214-.6552-.365-.1725-.149-.31-.309-.4122-.479l.6008-.422c.0682.089.1545.192.2589.307.1044.117.2471.218.4283.303.1832.088.4229.131.7191.131.3963 0 .7233-.095.9811-.287s.3868-.492.3868-.902v-.997h-.064c-.0554.09-.1342.201-.2365.333-.1001.13-.245.246-.4346.348-.1875.1-.4411.15-.7607.15-.3963 0-.7521-.093-1.0675-.281-.3132-.187-.5614-.46-.7446-.818-.1811-.358-.2717-.793-.2717-1.304 0-.503.0884-.941.2653-1.314.1768-.375.4229-.664.7383-.869.3153-.207.6796-.31 1.093-.31.3196 0 .5732.053.7607.16.1896.104.3345.224.4346.358.1023.132.1811.241.2365.326h.0767v-.78h.7287v5.05c0 .421-.0959.765-.2876 1.029-.1897.266-.4453.461-.7671.585-.3196.125-.6754.188-1.0674.188zm-.0256-2.697c.3025 0 .5582-.07.767-.208s.3676-.338.4762-.598c.1087-.26.163-.571.163-.933 0-.354-.0532-.666-.1598-.936-.1065-.271-.2642-.483-.473-.636-.2088-.154-.4666-.23-.7734-.23-.3196 0-.5859.081-.799.242-.211.162-.3697.38-.4762.652-.1044.273-.1566.576-.1566.908 0 .341.0532.643.1598.905.1086.26.2684.464.4794.613.213.147.4772.221.7926.221zm3.5284.754v-4.909h.7287v.741h.0511c.0895-.243.2514-.44.4858-.591s.4986-.227.7926-.227c.0554 0 .1247.001.2078.003.0831.003.1459.006.1885.01v.767c-.0255-.006-.0841-.016-.1757-.029-.0895-.015-.1843-.022-.2845-.022-.2386 0-.4517.05-.6392.15-.1854.098-.3324.234-.441.409-.1066.173-.1598.37-.1598.591v3.107zm4.7929.115c-.311 0-.593-.059-.847-.176-.253-.119-.455-.291-.604-.514-.149-.226-.223-.499-.223-.818 0-.282.055-.51.166-.684.111-.177.259-.316.444-.416s.39-.175.614-.224c.226-.051.452-.091.68-.121.299-.038.541-.067.726-.086.187-.022.324-.057.409-.106.087-.049.131-.134.131-.256v-.025c0-.315-.086-.56-.259-.735-.17-.175-.429-.262-.776-.262-.361 0-.643.079-.847.236-.205.158-.349.326-.432.505l-.716-.255c.128-.299.299-.531.512-.697.215-.169.449-.286.703-.352.255-.068.507-.102.754-.102.158 0 .339.019.543.058.207.036.406.111.598.226.194.115.355.289.483.521.127.233.191.544.191.934v3.234h-.754v-.665h-.038c-.051.107-.137.221-.256.342-.119.122-.278.225-.476.31s-.44.128-.726.128zm.115-.677c.299 0 .55-.059.755-.176.206-.117.362-.269.466-.454.107-.185.16-.38.16-.585v-.69c-.032.038-.102.073-.211.105-.106.03-.23.057-.371.08-.138.021-.273.041-.405.058-.13.014-.236.027-.317.038-.196.025-.379.067-.55.125-.168.055-.304.139-.409.252-.102.111-.153.262-.153.454 0 .262.097.46.291.594.196.132.444.199.744.199zm4.266-2.391v2.953h-.754v-4.909h.729v.767h.064c.115-.249.289-.45.524-.601.234-.153.537-.23.907-.23.333 0 .624.068.873.205.249.134.443.338.582.613.138.273.207.618.207 1.036v3.119h-.754v-3.068c0-.386-.1-.686-.3-.901-.201-.218-.475-.326-.825-.326-.241 0-.456.052-.645.156-.188.105-.336.257-.445.457-.108.2-.163.443-.163.729zm6.646-1.956v.639h-2.544v-.639zm-1.803-1.176h.754v4.679c0 .213.031.373.093.479.064.105.145.175.243.211.1.034.206.051.316.051.083 0 .152-.004.205-.013.053-.01.096-.019.128-.025l.153.677c-.051.02-.122.039-.214.058-.092.021-.208.032-.348.032-.213 0-.422-.046-.627-.138-.202-.091-.371-.231-.505-.418-.132-.188-.198-.424-.198-.71zm4.943 6.187c-.473 0-.881-.104-1.224-.313-.341-.211-.604-.505-.79-.882-.183-.379-.275-.82-.275-1.323s.092-.946.275-1.33c.186-.385.443-.686.774-.901.332-.217.72-.326 1.163-.326.256 0 .508.043.757.128.25.085.477.224.681.415.205.19.368.441.489.755.122.313.182.698.182 1.157v.319h-3.784v-.652h3.017c0-.277-.055-.524-.166-.741-.109-.218-.264-.389-.466-.515-.201-.126-.437-.188-.71-.188-.3 0-.56.074-.78.223-.217.147-.384.339-.502.576-.117.236-.175.49-.175.76v.435c0 .371.064.685.191.943.13.255.31.45.541.585.23.132.497.198.802.198.198 0 .377-.028.537-.083.162-.058.301-.143.418-.256.118-.115.208-.258.272-.428l.729.204c-.077.247-.206.465-.387.652-.181.186-.405.33-.671.435-.267.102-.566.153-.898.153zm5.033 0c-.409 0-.77-.103-1.083-.31-.313-.209-.558-.503-.735-.882-.177-.381-.265-.832-.265-1.352 0-.515.088-.963.265-1.342s.423-.672.738-.879c.316-.207.68-.31 1.093-.31.32 0 .572.053.758.16.187.104.33.224.428.358.1.132.178.241.233.326h.064v-2.416h.754v6.545h-.728v-.754h-.09c-.055.089-.134.202-.236.339-.103.134-.248.254-.438.361-.19.104-.442.156-.758.156zm.103-.677c.302 0 .558-.079.767-.237.209-.16.367-.38.476-.661.109-.284.163-.611.163-.982 0-.366-.053-.687-.16-.962-.106-.277-.264-.492-.473-.645-.209-.156-.466-.233-.773-.233-.32 0-.586.082-.799.246-.211.162-.37.382-.477.661-.104.277-.156.588-.156.933 0 .35.053.667.16.953.108.283.268.509.479.677.213.167.477.25.793.25zm8.3-4.334v.639h-2.544v-.639zm-1.803-1.176h.754v4.679c0 .213.031.373.093.479.064.105.145.175.243.211.1.034.206.051.316.051.084 0 .152-.004.205-.013.053-.01.096-.019.128-.025l.153.677c-.051.02-.122.039-.214.058-.091.021-.208.032-.348.032-.213 0-.422-.046-.627-.138-.202-.091-.37-.231-.505-.418-.132-.188-.198-.424-.198-.71zm4.879 6.187c-.443 0-.832-.105-1.167-.316-.332-.211-.592-.506-.779-.885-.186-.38-.278-.823-.278-1.33 0-.511.092-.958.278-1.339.187-.382.447-.678.779-.889.335-.211.724-.316 1.167-.316s.831.105 1.163.316c.335.211.595.507.78.889.188.381.281.828.281 1.339 0 .507-.093.95-.281 1.33-.185.379-.445.674-.78.885-.332.211-.72.316-1.163.316zm0-.677c.337 0 .614-.087.831-.259.217-.173.378-.4.483-.681.104-.281.156-.586.156-.914s-.052-.634-.156-.917c-.105-.284-.266-.513-.483-.687-.217-.175-.494-.262-.831-.262s-.614.087-.831.262c-.217.174-.378.403-.483.687-.104.283-.156.589-.156.917s.052.633.156.914c.105.281.266.508.483.681.217.172.494.259.831.259zm3.925.626c-.157 0-.292-.056-.405-.169s-.17-.248-.17-.406.057-.293.17-.406.248-.169.405-.169c.158 0 .293.056.406.169s.17.248.17.406c0 .104-.027.2-.08.287-.051.088-.121.158-.208.211-.085.052-.181.077-.288.077zm0-3.643c-.157 0-.292-.057-.405-.17s-.17-.248-.17-.406c0-.157.057-.293.17-.406.113-.112.248-.169.405-.169.158 0 .293.057.406.169.113.113.17.249.17.406 0 .105-.027.201-.08.288-.051.087-.121.158-.208.211-.085.051-.181.077-.288.077z"/><path d="m51.2642 169.5v-14.545h9.8011v2.535h-6.7258v3.466h6.2216v2.535h-6.2216v3.473h6.7543v2.536zm15.2148-14.545v14.545h-3.0255v-14.545zm5.5345 14.751c-.696 0-1.3163-.121-1.8608-.362-.5445-.246-.9754-.609-1.2926-1.087-.3125-.483-.4688-1.084-.4688-1.804 0-.606.1113-1.115.3338-1.527.2226-.412.5256-.743.9091-.994.3836-.251.8192-.441 1.3069-.568.4924-.128 1.0085-.218 1.5482-.27.6345-.067 1.1459-.128 1.5341-.185.3883-.061.67-.151.8452-.27.1752-.118.2628-.293.2628-.525v-.043c0-.45-.1421-.798-.4261-1.044-.2794-.246-.6771-.369-1.1932-.369-.5445 0-.9778.12-1.2997.362-.322.237-.5351.535-.6392.895l-2.7983-.227c.142-.663.4214-1.236.838-1.719.4167-.488.9541-.862 1.6122-1.122.6629-.266 1.43-.398 2.3012-.398.606 0 1.1861.071 1.74.213.5587.142 1.0535.362 1.4844.66.4356.299.7789.682 1.0298 1.151.251.464.3765 1.02.3765 1.669v7.358h-2.8694v-1.513h-.0852c-.1752.341-.4095.642-.7031.902-.2936.256-.6463.457-1.0582.604-.412.142-.8878.213-1.4276.213zm.8665-2.088c.445 0 .838-.088 1.1789-.263.341-.18.6085-.421.8026-.724s.2912-.647.2912-1.03v-1.158c-.0947.062-.2249.119-.3906.171-.161.047-.3433.092-.5469.135-.2036.037-.4072.073-.6108.106-.2036.029-.3883.055-.554.078-.3551.052-.6652.135-.9304.249-.2651.113-.4711.267-.6179.461-.1467.19-.2201.427-.2201.711 0 .412.1491.726.4474.944.303.213.6866.32 1.1506.32zm7.6243 1.882v-10.909h3.0255v10.909zm1.5198-12.315c-.4498 0-.8357-.149-1.1576-.448-.3173-.303-.4759-.665-.4759-1.086 0-.417.1586-.775.4759-1.073.3219-.303.7078-.454 1.1576-.454.4499 0 .8334.151 1.1506.454.322.298.483.656.483 1.073 0 .421-.161.783-.483 1.086-.3172.299-.7007.448-1.1506.448zm6.9549 6.008v6.307h-3.0255v-10.909h2.8835v1.925h.1278c.2415-.635.6464-1.137 1.2145-1.506.5682-.374 1.2571-.561 2.0668-.561.7576 0 1.4181.166 1.9815.497.5635.331 1.0014.805 1.3139 1.42.3125.611.4688 1.34.4688 2.188v6.946h-3.0256v-6.406c.0048-.668-.1657-1.189-.5113-1.563-.3457-.379-.8215-.568-1.4276-.568-.4072 0-.767.088-1.0795.263-.3078.175-.5493.431-.7245.767-.1704.331-.258.731-.2628 1.2zm14.387 6.52c-1.122 0-2.088-.227-2.897-.682-.8052-.459-1.4254-1.108-1.861-1.946-.4357-.843-.6535-1.839-.6535-2.99 0-1.122.2178-2.107.6535-2.954.4356-.848 1.0487-1.508 1.839-1.982.796-.473 1.729-.71 2.799-.71.719 0 1.389.116 2.01.348.625.227 1.169.57 1.633 1.03.469.459.834 1.037 1.094 1.733.26.691.391 1.501.391 2.429v.831h-9.2121v-1.875h6.3641c0-.436-.095-.822-.285-1.158-.189-.336-.452-.599-.788-.788-.331-.195-.717-.292-1.158-.292-.459 0-.866.107-1.221.32-.351.208-.625.49-.824.845-.199.351-.301.741-.305 1.172v1.783c0 .539.099 1.006.298 1.399.203.393.49.696.859.909.37.213.808.32 1.314.32.336 0 .644-.048.923-.143.28-.094.519-.236.718-.426.199-.189.35-.421.454-.696l2.799.185c-.142.672-.434 1.259-.874 1.761-.436.498-.999.886-1.69 1.165-.687.275-1.48.412-2.38.412zm11.668-14.758h3.792l4.006 9.772h.17l4.006-9.772h3.793v14.545h-2.983v-9.467h-.121l-3.764 9.396h-2.031l-3.765-9.432h-.12v9.503h-2.983zm21.354 14.751c-.696 0-1.316-.121-1.86-.362-.545-.246-.976-.609-1.293-1.087-.312-.483-.469-1.084-.469-1.804 0-.606.112-1.115.334-1.527.223-.412.526-.743.909-.994.384-.251.819-.441 1.307-.568.492-.128 1.009-.218 1.548-.27.635-.067 1.146-.128 1.534-.185.389-.061.67-.151.846-.27.175-.118.262-.293.262-.525v-.043c0-.45-.142-.798-.426-1.044-.279-.246-.677-.369-1.193-.369-.544 0-.978.12-1.3.362-.322.237-.535.535-.639.895l-2.798-.227c.142-.663.421-1.236.838-1.719.417-.488.954-.862 1.612-1.122.663-.266 1.43-.398 2.301-.398.606 0 1.186.071 1.74.213.559.142 1.054.362 1.485.66.435.299.779.682 1.03 1.151.25.464.376 1.02.376 1.669v7.358h-2.869v-1.513h-.086c-.175.341-.409.642-.703.902-.293.256-.646.457-1.058.604-.412.142-.888.213-1.428.213zm.867-2.088c.445 0 .838-.088 1.179-.263.341-.18.608-.421.803-.724.194-.303.291-.647.291-1.03v-1.158c-.095.062-.225.119-.391.171-.161.047-.343.092-.547.135-.203.037-.407.073-.611.106-.203.029-.388.055-.554.078-.355.052-.665.135-.93.249-.265.113-.471.267-.618.461-.147.19-.22.427-.22.711 0 .412.149.726.447.944.303.213.687.32 1.151.32zm7.624 1.882v-10.909h2.933v1.903h.114c.199-.677.533-1.188 1.002-1.534.468-.35 1.008-.525 1.619-.525.151 0 .315.009.49.028s.329.045.462.078v2.685c-.142-.043-.339-.081-.59-.114s-.48-.05-.689-.05c-.445 0-.843.098-1.193.292-.346.189-.62.454-.824.795-.199.341-.298.734-.298 1.179v6.172zm11.209-14.545v14.545h-3.025v-14.545zm7.396 14.758c-1.122 0-2.088-.227-2.898-.682-.805-.459-1.425-1.108-1.861-1.946-.435-.843-.653-1.839-.653-2.99 0-1.122.218-2.107.653-2.954.436-.848 1.049-1.508 1.84-1.982.795-.473 1.728-.71 2.798-.71.72 0 1.39.116 2.01.348.625.227 1.169.57 1.633 1.03.469.459.834 1.037 1.094 1.733.261.691.391 1.501.391 2.429v.831h-9.212v-1.875h6.364c0-.436-.095-.822-.284-1.158-.19-.336-.453-.599-.789-.788-.331-.195-.717-.292-1.157-.292-.46 0-.867.107-1.222.32-.35.208-.625.49-.824.845-.199.351-.3.741-.305 1.172v1.783c0 .539.099 1.006.298 1.399.204.393.49.696.859.909.37.213.808.32 1.314.32.337 0 .644-.048.924-.143.279-.094.518-.236.717-.426.199-.189.35-.421.455-.696l2.798.185c-.142.672-.433 1.259-.874 1.761-.435.498-.999.886-1.69 1.165-.687.275-1.48.412-2.379.412zm8.556 3.878c-.383 0-.743-.031-1.079-.092-.332-.057-.606-.131-.824-.221l.682-2.258c.355.109.674.168.958.177.289.01.538-.056.746-.198.213-.142.386-.384.519-.725l.177-.462-3.913-11.221h3.182l2.258 8.011h.114l2.28-8.011h3.203l-4.24 12.088c-.204.587-.481 1.098-.831 1.534-.346.44-.784.779-1.314 1.016-.531.241-1.17.362-1.918.362z"/><path d="m50.7926 200.5v-6.545h3.9247v.703h-3.1321v2.211h2.8381v.703h-2.8381v2.928zm6.8139.102c-.4431 0-.832-.105-1.1665-.316-.3324-.211-.5923-.506-.7798-.885-.1854-.38-.2781-.823-.2781-1.33 0-.511.0927-.958.2781-1.339.1875-.382.4474-.678.7798-.889.3345-.211.7234-.316 1.1665-.316.4432 0 .831.105 1.1634.316.3345.211.5944.507.7798.889.1875.381.2813.828.2813 1.339 0 .507-.0938.95-.2813 1.33-.1854.379-.4453.674-.7798.885-.3324.211-.7202.316-1.1634.316zm0-.677c.3367 0 .6137-.087.831-.259.2173-.173.3782-.4.4826-.681s.1566-.586.1566-.914-.0522-.634-.1566-.917c-.1044-.284-.2653-.513-.4826-.687-.2173-.175-.4943-.262-.831-.262-.3366 0-.6136.087-.8309.262-.2174.174-.3782.403-.4826.687-.1044.283-.1566.589-.1566.917s.0522.633.1566.914.2652.508.4826.681c.2173.172.4943.259.8309.259zm3.3758.575v-4.909h.7287v.741h.0512c.0895-.243.2514-.44.4858-.591.2343-.151.4985-.227.7926-.227.0554 0 .1246.001.2077.003.0831.003.146.006.1886.01v.767c-.0256-.006-.0842-.016-.1758-.029-.0895-.015-.1843-.022-.2844-.022-.2387 0-.4518.05-.6393.15-.1853.098-.3323.234-.441.409-.1065.173-.1598.37-.1598.591v3.107zm9.3572-3.81-.6776.192c-.0426-.113-.1054-.223-.1885-.329-.081-.109-.1918-.198-.3324-.269-.1406-.07-.3207-.105-.5401-.105-.3005 0-.5508.069-.7511.208-.1982.136-.2972.31-.2972.521 0 .187.0681.335.2045.444s.3494.199.6392.272l.7287.179c.4389.106.766.269.9812.489.2152.217.3228.497.3228.84 0 .281-.081.533-.2429.754-.1598.222-.3835.397-.6712.525-.2876.127-.6221.191-1.0035.191-.5007 0-.9152-.108-1.2433-.326-.3281-.217-.5359-.535-.6232-.952l.7159-.179c.0682.264.1971.462.3867.594.1918.132.4421.199.7511.199.3515 0 .6307-.075.8373-.224.2088-.152.3132-.333.3132-.544 0-.17-.0596-.313-.1789-.428-.1193-.117-.3026-.204-.5497-.262l-.8182-.192c-.4496-.106-.7799-.271-.9908-.495-.2088-.226-.3132-.508-.3132-.847 0-.277.0778-.522.2333-.735.1577-.213.3718-.38.6424-.502.2727-.121.5817-.182.9269-.182.4857 0 .8671.107 1.1441.32.2791.213.4773.494.5945.843zm4.3186 1.803v-2.902h.7543v4.909h-.7543v-.831h-.0511c-.1151.249-.2941.461-.537.636-.2429.173-.5497.259-.9204.259-.3068 0-.5796-.067-.8182-.201-.2386-.137-.4261-.341-.5625-.614-.1364-.275-.2045-.621-.2045-1.039v-3.119h.7542v3.068c0 .358.1002.644.3005.857.2024.213.4602.319.7734.319.1875 0 .3782-.048.5721-.144.196-.095.3601-.242.4922-.441.1342-.198.2013-.45.2013-.757zm4.1301 2.109c-.4603 0-.8566-.108-1.1889-.326-.3324-.217-.5881-.516-.7671-.898-.179-.381-.2685-.817-.2685-1.307 0-.499.0917-.939.2749-1.32.1854-.383.4432-.683.7734-.898.3324-.217.7202-.326 1.1634-.326.3452 0 .6562.064.9332.192s.5039.307.6808.537c.1768.23.2866.498.3292.805h-.7543c-.0575-.224-.1854-.422-.3835-.594-.196-.175-.4602-.262-.7926-.262-.2941 0-.5519.076-.7735.23-.2194.151-.3909.365-.5145.642-.1215.275-.1822.598-.1822.968 0 .38.0597.71.179.991.1214.281.2919.5.5113.655.2216.156.4816.234.7799.234.196 0 .3739-.034.5337-.103.1598-.068.2951-.166.4059-.294.1108-.127.1896-.281.2365-.46h.7543c-.0426.29-.1481.551-.3164.783-.1662.23-.3868.414-.6616.55-.2727.134-.5902.201-.9524.201zm5.0273 0c-.4602 0-.8565-.108-1.1889-.326-.3324-.217-.5881-.516-.767-.898-.179-.381-.2685-.817-.2685-1.307 0-.499.0916-.939.2748-1.32.1854-.383.4432-.683.7735-.898.3324-.217.7202-.326 1.1633-.326.3452 0 .6563.064.9333.192s.5039.307.6807.537c.1769.23.2866.498.3292.805h-.7542c-.0576-.224-.1854-.422-.3836-.594-.196-.175-.4602-.262-.7926-.262-.294 0-.5518.076-.7734.23-.2195.151-.391.365-.5146.642-.1214.275-.1822.598-.1822.968 0 .38.0597.71.179.991.1215.281.2919.5.5114.655.2216.156.4815.234.7798.234.196 0 .374-.034.5338-.103.1598-.068.2951-.166.4058-.294.1108-.127.1897-.281.2366-.46h.7542c-.0426.29-.1481.551-.3164.783-.1662.23-.3867.414-.6616.55-.2727.134-.5902.201-.9524.201zm5.0913 0c-.473 0-.8811-.104-1.2241-.313-.3409-.211-.604-.505-.7894-.882-.1833-.379-.2749-.82-.2749-1.323s.0916-.946.2749-1.33c.1854-.385.4432-.686.7734-.901.3324-.217.7202-.326 1.1634-.326.2557 0 .5081.043.7574.128s.4762.224.6808.415c.2045.19.3675.441.489.755.1214.313.1822.698.1822 1.157v.319h-3.7841v-.652h3.017c0-.277-.0554-.524-.1662-.741-.1087-.218-.2642-.389-.4666-.515-.2003-.126-.4368-.188-.7095-.188-.3004 0-.5604.074-.7799.223-.2173.147-.3845.339-.5017.576-.1172.236-.1758.49-.1758.76v.435c0 .371.0639.685.1918.943.1299.255.31.45.5401.585.2301.132.4975.198.8022.198.1981 0 .3771-.028.5369-.083.1619-.058.3015-.143.4187-.256.1172-.115.2077-.258.2717-.428l.7286.204c-.0767.247-.2056.465-.3867.652-.1811.186-.4048.33-.6711.435-.2664.102-.5657.153-.8981.153zm6.6573-3.912-.6776.192c-.0426-.113-.1054-.223-.1885-.329-.081-.109-.1918-.198-.3324-.269-.1406-.07-.3207-.105-.5401-.105-.3005 0-.5508.069-.7511.208-.1982.136-.2972.31-.2972.521 0 .187.0681.335.2045.444s.3494.199.6392.272l.7287.179c.4389.106.766.269.9812.489.2152.217.3228.497.3228.84 0 .281-.081.533-.2429.754-.1598.222-.3835.397-.6712.525-.2876.127-.6221.191-1.0035.191-.5007 0-.9152-.108-1.2433-.326-.3281-.217-.5358-.535-.6232-.952l.7159-.179c.0682.264.1971.462.3867.594.1918.132.4421.199.7511.199.3516 0 .6307-.075.8373-.224.2089-.152.3133-.333.3133-.544 0-.17-.0597-.313-.179-.428-.1193-.117-.3026-.204-.5497-.262l-.8182-.192c-.4496-.106-.7798-.271-.9908-.495-.2088-.226-.3132-.508-.3132-.847 0-.277.0778-.522.2333-.735.1577-.213.3718-.38.6424-.502.2727-.121.5817-.182.9269-.182.4858 0 .8671.107 1.1441.32.2792.213.4773.494.5945.843zm4.7019 0-.6773.192c-.0426-.113-.1055-.223-.1886-.329-.0809-.109-.1917-.198-.3324-.269-.1406-.07-.3206-.105-.5401-.105-.3004 0-.5508.069-.7511.208-.1981.136-.2972.31-.2972.521 0 .187.0682.335.2046.444.1363.109.3494.199.6392.272l.7287.179c.4389.106.7659.269.9812.489.215.217.323.497.323.84 0 .281-.081.533-.243.754-.16.222-.3837.397-.6713.525-.2877.127-.6222.191-1.0036.191-.5007 0-.9151-.108-1.2432-.326-.3282-.217-.5359-.535-.6233-.952l.716-.179c.0681.264.197.462.3867.594.1917.132.4421.199.751.199.3516 0 .6307-.075.8374-.224.2088-.152.3132-.333.3132-.544 0-.17-.0597-.313-.179-.428-.1193-.117-.3025-.204-.5497-.262l-.8182-.192c-.4495-.106-.7798-.271-.9907-.495-.2088-.226-.3132-.508-.3132-.847 0-.277.0777-.522.2333-.735.1576-.213.3718-.38.6424-.502.2727-.121.5816-.182.9268-.182.4858 0 .8672.107 1.1442.32.2791.213.4772.494.5942.843zm3.411-1.099v.639h-2.646v-.639zm-1.853 4.909v-5.587c0-.281.066-.515.198-.703.132-.187.303-.328.514-.422.211-.093.434-.14.668-.14.186 0 .337.015.454.044.117.03.205.058.262.084l-.217.652c-.039-.013-.092-.029-.16-.048-.066-.02-.153-.029-.262-.029-.249 0-.429.063-.54.188-.109.126-.163.31-.163.553v5.408zm6.004-2.007v-2.902h.754v4.909h-.754v-.831h-.051c-.115.249-.294.461-.537.636-.243.173-.55.259-.92.259-.307 0-.58-.067-.819-.201-.238-.137-.426-.341-.562-.614-.137-.275-.205-.621-.205-1.039v-3.119h.755v3.068c0 .358.1.644.3.857.202.213.46.319.773.319.188 0 .379-.048.572-.144.197-.095.361-.242.493-.441.134-.198.201-.45.201-.757zm2.89-4.538v6.545h-.754v-6.545zm2.136 0v6.545h-.754v-6.545zm1.867 8.386c-.128 0-.242-.011-.342-.032-.1-.019-.169-.038-.208-.058l.192-.664c.183.047.345.064.486.051s.265-.076.374-.189c.111-.111.212-.291.303-.54l.141-.383-1.815-4.935h.818l1.355 3.912h.051l1.355-3.912h.818l-2.083 5.625c-.094.253-.21.463-.349.63-.138.168-.299.292-.482.373-.181.081-.386.122-.614.122zm7.055 0v-6.75h.729v.78h.089c.056-.085.133-.194.231-.326.1-.134.242-.254.428-.358.187-.107.441-.16.76-.16.414 0 .778.103 1.094.31.315.207.561.5.738.879s.265.827.265 1.342c0 .52-.088.971-.265 1.352-.177.379-.422.673-.735.882-.313.207-.675.31-1.084.31-.315 0-.568-.052-.757-.156-.19-.107-.336-.227-.438-.361-.102-.137-.181-.25-.237-.339h-.063v2.595zm.742-4.296c0 .371.054.698.163.982.108.281.267.501.476.661.209.158.464.237.767.237.315 0 .578-.083.789-.25.213-.168.373-.394.48-.677.108-.286.163-.603.163-.953 0-.345-.053-.656-.16-.933-.104-.279-.263-.499-.476-.661-.211-.164-.476-.246-.796-.246-.307 0-.565.077-.773.233-.209.153-.367.368-.473.645-.107.275-.16.596-.16.962zm6.187 2.57c-.311 0-.593-.059-.847-.176-.253-.119-.455-.291-.604-.514-.149-.226-.223-.499-.223-.818 0-.282.055-.51.166-.684.111-.177.259-.316.444-.416s.39-.175.614-.224c.225-.051.452-.091.68-.121.299-.038.54-.067.726-.086.187-.022.324-.057.409-.106.087-.049.131-.134.131-.256v-.025c0-.315-.086-.56-.259-.735-.17-.175-.429-.262-.777-.262-.36 0-.642.079-.846.236-.205.158-.349.326-.432.505l-.716-.255c.128-.299.298-.531.512-.697.215-.169.449-.286.703-.352.255-.068.507-.102.754-.102.158 0 .339.019.543.058.207.036.406.111.598.226.194.115.355.289.482.521.128.233.192.544.192.934v3.234h-.754v-.665h-.038c-.051.107-.137.221-.256.342-.119.122-.278.225-.476.31s-.44.128-.726.128zm.115-.677c.299 0 .55-.059.755-.176.206-.117.362-.269.466-.454.107-.185.16-.38.16-.585v-.69c-.032.038-.102.073-.211.105-.106.03-.23.057-.371.08-.138.021-.273.041-.406.058-.13.014-.235.027-.316.038-.196.025-.379.067-.55.125-.168.055-.304.139-.409.252-.102.111-.153.262-.153.454 0 .262.097.46.291.594.196.132.444.199.744.199zm6.989-3.248-.677.192c-.043-.113-.106-.223-.189-.329-.081-.109-.192-.198-.332-.269-.141-.07-.321-.105-.54-.105-.301 0-.551.069-.751.208-.199.136-.298.31-.298.521 0 .187.068.335.205.444.136.109.349.199.639.272l.729.179c.439.106.766.269.981.489.215.217.323.497.323.84 0 .281-.081.533-.243.754-.16.222-.384.397-.671.525-.288.127-.623.191-1.004.191-.501 0-.915-.108-1.243-.326-.328-.217-.536-.535-.623-.952l.716-.179c.068.264.197.462.386.594.192.132.442.199.751.199.352 0 .631-.075.838-.224.208-.152.313-.333.313-.544 0-.17-.06-.313-.179-.428-.119-.117-.303-.204-.55-.262l-.818-.192c-.45-.106-.78-.271-.991-.495-.209-.226-.313-.508-.313-.847 0-.277.078-.522.233-.735.158-.213.372-.38.643-.502.272-.121.581-.182.927-.182.485 0 .867.107 1.144.32.279.213.477.494.594.843zm4.702 0-.677.192c-.043-.113-.106-.223-.189-.329-.081-.109-.192-.198-.332-.269-.141-.07-.321-.105-.54-.105-.301 0-.551.069-.751.208-.198.136-.298.31-.298.521 0 .187.069.335.205.444s.349.199.639.272l.729.179c.439.106.766.269.981.489.215.217.323.497.323.84 0 .281-.081.533-.243.754-.16.222-.384.397-.671.525-.288.127-.622.191-1.004.191-.5 0-.915-.108-1.243-.326-.328-.217-.536-.535-.623-.952l.716-.179c.068.264.197.462.386.594.192.132.443.199.751.199.352 0 .631-.075.838-.224.209-.152.313-.333.313-.544 0-.17-.06-.313-.179-.428-.119-.117-.303-.204-.55-.262l-.818-.192c-.449-.106-.78-.271-.991-.495-.208-.226-.313-.508-.313-.847 0-.277.078-.522.233-.735.158-.213.372-.38.643-.502.273-.121.582-.182.927-.182.486 0 .867.107 1.144.32.279.213.477.494.594.843zm1.225 3.81v-4.909h.755v4.909zm.384-5.727c-.147 0-.274-.05-.381-.15-.104-.101-.156-.221-.156-.362 0-.14.052-.261.156-.361.107-.1.234-.15.381-.15s.272.05.377.15c.106.1.16.221.16.361 0 .141-.054.261-.16.362-.105.1-.23.15-.377.15zm2.506 2.774v2.953h-.754v-4.909h.729v.767h.064c.115-.249.289-.45.524-.601.234-.153.537-.23.907-.23.333 0 .624.068.873.205.249.134.443.338.582.613.138.273.207.618.207 1.036v3.119h-.754v-3.068c0-.386-.1-.686-.3-.901-.201-.218-.475-.326-.825-.326-.241 0-.456.052-.646.156-.187.105-.335.257-.444.457-.108.2-.163.443-.163.729zm6.492 4.896c-.364 0-.677-.047-.939-.14-.263-.092-.481-.214-.656-.365-.172-.149-.31-.309-.412-.479l.601-.422c.068.089.154.192.259.307.104.117.247.218.428.303.183.088.423.131.719.131.396 0 .724-.095.981-.287.258-.192.387-.492.387-.902v-.997h-.064c-.055.09-.134.201-.236.333-.101.13-.245.246-.435.348-.188.1-.441.15-.761.15-.396 0-.752-.093-1.067-.281-.313-.187-.562-.46-.745-.818-.181-.358-.271-.793-.271-1.304 0-.503.088-.941.265-1.314.177-.375.423-.664.738-.869.315-.207.68-.31 1.093-.31.32 0 .573.053.761.16.189.104.334.224.434.358.103.132.182.241.237.326h.077v-.78h.728v5.05c0 .421-.096.765-.287 1.029-.19.266-.446.461-.767.585-.32.125-.676.188-1.068.188zm-.025-2.697c.302 0 .558-.07.767-.208.208-.138.367-.338.476-.598s.163-.571.163-.933c0-.354-.053-.666-.16-.936-.106-.271-.264-.483-.473-.636-.209-.154-.467-.23-.773-.23-.32 0-.586.081-.799.242-.211.162-.37.38-.477.652-.104.273-.156.576-.156.908 0 .341.053.643.16.905.108.26.268.464.479.613.213.147.477.221.793.221zm8.194-4.155v.639h-2.544v-.639zm-1.802-1.176h.754v4.679c0 .213.031.373.093.479.064.105.144.175.242.211.101.034.206.051.317.051.083 0 .151-.004.204-.013.054-.01.096-.019.128-.025l.154.677c-.051.02-.123.039-.214.058-.092.021-.208.032-.349.032-.213 0-.422-.046-.626-.138-.203-.091-.371-.231-.505-.418-.132-.188-.198-.424-.198-.71zm3.797 3.132v2.953h-.755v-6.545h.755v2.403h.063c.115-.254.288-.455.518-.604.232-.151.541-.227.927-.227.335 0 .628.067.879.201.251.132.446.336.585.611.14.273.211.62.211 1.042v3.119h-.755v-3.068c0-.39-.101-.692-.303-.905-.2-.215-.478-.322-.834-.322-.247 0-.469.052-.665.156-.194.105-.347.257-.46.457-.111.2-.166.443-.166.729zm6.621 3.055c-.473 0-.881-.104-1.224-.313-.341-.211-.604-.505-.79-.882-.183-.379-.274-.82-.274-1.323s.091-.946.274-1.33c.186-.385.444-.686.774-.901.332-.217.72-.326 1.163-.326.256 0 .508.043.758.128.249.085.476.224.68.415.205.19.368.441.489.755.122.313.183.698.183 1.157v.319h-3.785v-.652h3.018c0-.277-.056-.524-.167-.741-.108-.218-.264-.389-.466-.515-.201-.126-.437-.188-.71-.188-.3 0-.56.074-.78.223-.217.147-.384.339-.501.576-.118.236-.176.49-.176.76v.435c0 .371.064.685.192.943.13.255.31.45.54.585.23.132.497.198.802.198.198 0 .377-.028.537-.083.162-.058.301-.143.418-.256.118-.115.208-.258.272-.428l.729.204c-.077.247-.206.465-.387.652-.181.186-.405.33-.671.435-.266.102-.566.153-.898.153zm-37.626 14c-.473 0-.881-.104-1.224-.313-.341-.211-.604-.505-.79-.882-.183-.379-.274-.82-.274-1.323s.091-.946.274-1.33c.186-.385.444-.686.774-.901.332-.217.72-.326 1.163-.326.256 0 .508.043.758.128.249.085.476.224.68.415.205.19.368.441.489.755.122.313.183.698.183 1.157v.319h-3.785v-.652h3.018c0-.277-.056-.524-.167-.741-.108-.218-.264-.389-.466-.515-.201-.126-.437-.188-.71-.188-.3 0-.56.074-.78.223-.217.147-.384.339-.501.576-.118.236-.176.49-.176.76v.435c0 .371.064.685.192.943.13.255.31.45.54.585.23.132.497.198.802.198.198 0 .377-.028.537-.083.162-.058.301-.143.419-.256.117-.115.207-.258.271-.428l.729.204c-.077.247-.206.465-.387.652-.181.186-.405.33-.671.435-.266.102-.566.153-.898.153zm3.611-5.011 1.176 2.007 1.176-2.007h.869l-1.585 2.454 1.585 2.455h-.869l-1.176-1.905-1.176 1.905h-.87l1.56-2.455-1.56-2.454zm5.742 5.024c-.311 0-.593-.059-.847-.176-.253-.119-.455-.291-.604-.514-.149-.226-.224-.499-.224-.818 0-.282.056-.51.167-.684.11-.177.258-.316.444-.416.185-.1.39-.175.613-.224.226-.051.453-.091.681-.121.298-.038.54-.067.726-.086.187-.022.324-.057.409-.106.087-.049.131-.134.131-.256v-.025c0-.315-.086-.56-.259-.735-.171-.175-.429-.262-.777-.262-.36 0-.642.079-.847.236-.204.158-.348.326-.431.505l-.716-.255c.128-.299.298-.531.511-.697.216-.169.45-.286.703-.352.256-.068.508-.102.755-.102.157 0 .338.019.543.058.207.036.406.111.598.226.194.115.354.289.482.521.128.233.192.544.192.934v3.234h-.754v-.665h-.039c-.051.107-.136.221-.255.342-.12.122-.278.225-.476.31-.199.085-.44.128-.726.128zm.115-.677c.298 0 .55-.059.754-.176.207-.117.363-.269.467-.454.107-.185.16-.38.16-.585v-.69c-.032.038-.102.073-.211.105-.107.03-.23.057-.371.08-.138.021-.274.041-.406.058-.13.014-.235.027-.316.038-.196.025-.379.067-.55.125-.168.055-.305.139-.409.252-.102.111-.153.262-.153.454 0 .262.097.46.29.594.196.132.445.199.745.199zm3.512.562v-4.909h.728v.767h.064c.103-.262.268-.466.496-.61.228-.148.502-.221.821-.221.324 0 .594.073.809.221.217.144.386.348.508.61h.051c.126-.254.314-.455.566-.604.251-.151.553-.227.904-.227.439 0 .798.137 1.077.412.279.273.419.698.419 1.275v3.286h-.754v-3.286c0-.362-.099-.621-.298-.776-.198-.156-.431-.233-.699-.233-.346 0-.613.104-.803.313-.189.206-.284.469-.284.786v3.196h-.767v-3.362c0-.279-.091-.504-.272-.675-.181-.172-.414-.258-.7-.258-.196 0-.379.052-.549.156-.169.105-.305.249-.41.435-.102.183-.153.395-.153.636v3.068zm7.822 0v-4.909h.754v4.909zm.384-5.727c-.147 0-.274-.05-.381-.15-.104-.101-.156-.221-.156-.362 0-.14.052-.261.156-.361.107-.1.234-.15.381-.15s.272.05.377.15c.106.1.159.221.159.361 0 .141-.053.261-.159.362-.105.1-.23.15-.377.15zm2.506 2.774v2.953h-.754v-4.909h.728v.767h.064c.115-.249.29-.45.525-.601.234-.153.536-.23.907-.23.333 0 .623.068.873.205.249.134.443.338.581.613.139.273.208.618.208 1.036v3.119h-.754v-3.068c0-.386-.1-.686-.301-.901-.2-.218-.475-.326-.824-.326-.241 0-.456.052-.646.156-.187.105-.335.257-.444.457s-.163.443-.163.729zm5.955 3.068c-.311 0-.593-.059-.847-.176-.253-.119-.455-.291-.604-.514-.149-.226-.224-.499-.224-.818 0-.282.056-.51.166-.684.111-.177.259-.316.445-.416.185-.1.39-.175.613-.224.226-.051.453-.091.681-.121.298-.038.54-.067.726-.086.187-.022.323-.057.409-.106.087-.049.131-.134.131-.256v-.025c0-.315-.087-.56-.259-.735-.171-.175-.429-.262-.777-.262-.36 0-.642.079-.847.236-.204.158-.348.326-.431.505l-.716-.255c.128-.299.298-.531.511-.697.215-.169.45-.286.703-.352.256-.068.508-.102.755-.102.157 0 .338.019.543.058.207.036.406.111.598.226.194.115.354.289.482.521.128.233.192.544.192.934v3.234h-.754v-.665h-.039c-.051.107-.136.221-.255.342-.12.122-.278.225-.476.31-.199.085-.44.128-.726.128zm.115-.677c.298 0 .55-.059.754-.176.207-.117.363-.269.467-.454.106-.185.16-.38.16-.585v-.69c-.032.038-.103.073-.211.105-.107.03-.23.057-.371.08-.138.021-.274.041-.406.058-.13.014-.235.027-.316.038-.196.025-.379.067-.55.125-.168.055-.305.139-.409.252-.102.111-.153.262-.153.454 0 .262.096.46.29.594.196.132.445.199.745.199zm5.647-4.347v.639h-2.544v-.639zm-1.803-1.176h.754v4.679c0 .213.031.373.093.479.064.105.145.175.243.211.1.034.206.051.316.051.083 0 .152-.004.205-.013.053-.01.096-.019.128-.025l.153.677c-.051.02-.122.039-.214.058-.092.021-.208.032-.348.032-.213 0-.422-.046-.627-.138-.202-.091-.371-.231-.505-.418-.132-.188-.198-.424-.198-.71zm2.937 6.085v-4.909h.754v4.909zm.384-5.727c-.147 0-.274-.05-.381-.15-.104-.101-.156-.221-.156-.362 0-.14.052-.261.156-.361.107-.1.234-.15.381-.15s.272.05.377.15c.106.1.16.221.16.361 0 .141-.054.261-.16.362-.105.1-.23.15-.377.15zm3.746 5.829c-.443 0-.832-.105-1.166-.316-.333-.211-.593-.506-.78-.885-.185-.38-.278-.823-.278-1.33 0-.511.093-.958.278-1.339.187-.382.447-.678.78-.889.334-.211.723-.316 1.166-.316s.831.105 1.164.316c.334.211.594.507.779.889.188.381.282.828.282 1.339 0 .507-.094.95-.282 1.33-.185.379-.445.674-.779.885-.333.211-.721.316-1.164.316zm0-.677c.337 0 .614-.087.831-.259.218-.173.378-.4.483-.681.104-.281.156-.586.156-.914s-.052-.634-.156-.917c-.105-.284-.265-.513-.483-.687-.217-.175-.494-.262-.831-.262-.336 0-.613.087-.831.262-.217.174-.378.403-.482.687-.105.283-.157.589-.157.917s.052.633.157.914c.104.281.265.508.482.681.218.172.495.259.831.259zm4.13-2.378v2.953h-.754v-4.909h.729v.767h.064c.115-.249.289-.45.524-.601.234-.153.537-.23.908-.23.332 0 .623.068.872.205.249.134.443.338.582.613.138.273.207.618.207 1.036v3.119h-.754v-3.068c0-.386-.1-.686-.3-.901-.201-.218-.475-.326-.825-.326-.241 0-.456.052-.645.156-.188.105-.336.257-.445.457-.108.2-.163.443-.163.729z"/></g><path d="m179.268 196.246h-1.4c-.025-.181-.078-.342-.157-.483-.078-.142-.18-.264-.303-.364-.124-.1-.266-.177-.428-.23-.16-.053-.334-.08-.521-.08-.339 0-.634.084-.886.253-.251.166-.446.409-.585.728-.138.318-.207.703-.207 1.157 0 .467.069.859.207 1.176.141.318.337.558.589.72.251.161.542.242.872.242.185 0 .357-.024.515-.073.159-.049.301-.12.425-.214.123-.096.226-.212.306-.349.084-.136.141-.292.173-.466l1.4.006c-.036.301-.127.59-.272.869-.142.277-.335.526-.578.745-.241.217-.529.39-.863.518-.333.126-.709.188-1.128.188-.584 0-1.106-.132-1.566-.396-.458-.264-.821-.646-1.087-1.147-.264-.501-.396-1.107-.396-1.819 0-.714.134-1.321.402-1.821.269-.501.633-.883 1.093-1.145.461-.264.978-.396 1.554-.396.379 0 .73.053 1.054.16.326.106.615.262.866.466.252.203.456.451.614.745.16.294.262.631.307 1.01zm3.204 4.35c-.505 0-.94-.102-1.304-.307-.362-.207-.641-.499-.837-.876-.196-.379-.294-.827-.294-1.345 0-.505.098-.948.294-1.33.196-.381.472-.678.827-.891.358-.213.778-.32 1.26-.32.323 0 .625.052.904.157.281.102.526.256.735.463.211.207.375.467.492.78.118.311.176.675.176 1.093v.374h-4.145v-.844h2.864c0-.196-.043-.37-.128-.521-.086-.151-.204-.269-.355-.355-.149-.087-.323-.131-.521-.131-.207 0-.39.048-.55.144-.157.094-.281.221-.37.38-.09.158-.136.334-.138.528v.802c0 .243.045.453.134.63.092.176.221.313.387.409s.363.144.591.144c.152 0 .29-.022.416-.064.126-.043.233-.107.323-.192.089-.085.157-.19.204-.313l1.259.083c-.064.302-.195.567-.393.792-.196.224-.449.399-.76.525-.309.123-.666.185-1.071.185zm3.142-.096v-4.909h1.32v.856h.051c.089-.304.239-.534.45-.69.211-.158.454-.236.729-.236.068 0 .142.004.221.012.078.009.148.021.207.036v1.208c-.064-.02-.152-.037-.265-.052-.113-.014-.216-.022-.31-.022-.2 0-.379.044-.537.131-.155.085-.279.205-.371.358-.089.154-.134.33-.134.531v2.777zm6.539-4.909v1.023h-2.956v-1.023zm-2.285-1.176h1.362v4.576c0 .126.019.224.057.295.039.068.092.116.16.143.07.028.151.042.243.042.064 0 .128-.005.192-.016.064-.013.113-.022.147-.029l.214 1.013c-.068.022-.164.046-.288.074-.123.03-.273.048-.45.054-.328.013-.616-.031-.863-.131-.245-.1-.436-.256-.572-.467-.137-.21-.204-.477-.202-.799zm3.172 6.085v-4.909h1.362v4.909zm.684-5.542c-.202 0-.376-.067-.521-.201-.142-.137-.214-.3-.214-.489 0-.188.072-.349.214-.483.145-.136.319-.204.521-.204.203 0 .375.068.518.204.145.134.217.295.217.483 0 .189-.072.352-.217.489-.143.134-.315.201-.518.201zm4.408.633v1.023h-3.029v-1.023zm-2.336 4.909v-5.264c0-.356.069-.651.208-.885.141-.235.332-.41.575-.527.243-.118.519-.176.828-.176.209 0 .399.016.572.048.175.032.305.06.39.086l-.243 1.023c-.053-.017-.119-.033-.198-.048-.077-.015-.156-.023-.237-.023-.2 0-.339.047-.418.141-.079.092-.119.221-.119.387v5.238zm3.168 0v-4.909h1.362v4.909zm.684-5.542c-.202 0-.376-.067-.521-.201-.143-.137-.214-.3-.214-.489 0-.188.071-.349.214-.483.145-.136.319-.204.521-.204.203 0 .375.068.518.204.145.134.217.295.217.483 0 .189-.072.352-.217.489-.143.134-.315.201-.518.201zm4.006 5.638c-.505 0-.94-.102-1.304-.307-.363-.207-.642-.499-.838-.876-.196-.379-.294-.827-.294-1.345 0-.505.098-.948.294-1.33.196-.381.472-.678.828-.891.358-.213.778-.32 1.259-.32.324 0 .626.052.905.157.281.102.526.256.735.463.211.207.375.467.492.78.117.311.176.675.176 1.093v.374h-4.145v-.844h2.863c0-.196-.042-.37-.128-.521-.085-.151-.203-.269-.354-.355-.15-.087-.323-.131-.521-.131-.207 0-.39.048-.55.144-.158.094-.281.221-.371.38-.089.158-.135.334-.137.528v.802c0 .243.044.453.134.63.092.176.221.313.387.409s.363.144.591.144c.151 0 .29-.022.415-.064.126-.043.234-.107.323-.192.09-.085.158-.19.205-.313l1.259.083c-.064.302-.195.567-.393.792-.196.224-.45.399-.761.525-.309.123-.666.185-1.07.185zm4.95-.016c-.373 0-.71-.096-1.013-.288-.3-.194-.539-.478-.716-.853-.175-.377-.262-.84-.262-1.387 0-.563.091-1.03.272-1.403.181-.375.422-.655.722-.841.303-.187.634-.281.994-.281.275 0 .504.047.687.141.186.091.335.206.448.345.115.136.202.27.262.402h.041v-2.46h1.359v6.545h-1.343v-.786h-.057c-.064.136-.155.271-.272.406-.115.132-.265.242-.451.329-.183.087-.407.131-.671.131zm.432-1.084c.219 0 .405-.059.556-.179.153-.121.27-.29.351-.508.083-.217.125-.472.125-.764 0-.291-.04-.545-.121-.76s-.199-.382-.352-.499-.34-.176-.559-.176c-.224 0-.413.061-.566.183-.153.121-.27.289-.348.505-.079.215-.119.464-.119.747 0 .286.04.538.119.758.081.217.197.388.348.511.153.122.342.182.566.182zm-157.2846 8.459 1.5821 4.973h.0607l1.5852-4.973h1.5341l-2.2564 6.545h-1.7834l-2.2596-6.545zm8.6724 4.455v-2.819h1.3615v4.909h-1.3071v-.892h-.0512c-.1108.288-.2951.519-.5529.694-.2557.175-.5678.262-.9364.262-.3281 0-.6169-.075-.8661-.224-.2493-.149-.4443-.361-.5849-.636-.1385-.275-.2088-.604-.211-.987v-3.126h1.3616v2.883c.0021.289.0799.519.2333.687s.359.252.6168.252c.1641 0 .3175-.037.4602-.112.1428-.076.2578-.189.3452-.338.0895-.149.1332-.334.131-.553zm4.6878 2.186c-.505 0-.9396-.102-1.304-.307-.3622-.207-.6413-.499-.8373-.876-.1961-.379-.2941-.827-.2941-1.345 0-.505.098-.948.2941-1.33.196-.381.4719-.678.8277-.891.358-.213.7777-.32 1.2593-.32.3238 0 .6253.052.9044.157.2813.102.5263.256.7351.463.211.207.375.467.4922.78.1172.311.1758.675.1758 1.093v.374h-4.1453v-.844h2.8637c0-.196-.0426-.37-.1279-.521-.0852-.151-.2034-.269-.3547-.355-.1492-.087-.3228-.131-.521-.131-.2066 0-.3899.048-.5497.144-.1577.094-.2812.221-.3707.38-.0895.158-.1353.334-.1374.528v.802c0 .243.0447.453.1342.63.0916.176.2205.313.3867.409s.3633.144.5913.144c.1512 0 .2897-.022.4154-.064.1258-.043.2334-.107.3228-.192.0895-.085.1577-.19.2046-.313l1.2592.083c-.0639.302-.1949.567-.3931.792-.196.224-.4496.399-.7606.525-.309.123-.6659.185-1.0707.185zm3.9375-.013c-.2109 0-.3921-.074-.5433-.224-.1492-.151-.2238-.332-.2238-.543 0-.209.0746-.388.2238-.537.1512-.149.3324-.224.5433-.224.2045 0 .3835.075.5369.224s.2301.328.2301.537c0 .141-.0362.27-.1086.387-.0703.115-.163.208-.2781.278-.115.068-.2418.102-.3803.102zm1.8848-4.992h1.3616v5.152c0 .379-.0746.686-.2238.92-.1491.235-.3632.406-.6424.515-.277.109-.6083.163-.9939.163-.0469 0-.0916-.001-.1343-.003-.0447 0-.0916-.001-.1406-.003v-1.065c.0362.002.0682.003.0959.003.0256.003.0533.004.0831.004.2194 0 .3729-.047.4602-.141.0895-.092.1342-.23.1342-.415zm.6776-.633c-.2003 0-.3729-.067-.5177-.201-.1449-.137-.2174-.3-.2174-.489 0-.188.0725-.349.2174-.483.1448-.136.3174-.204.5177-.204.2046 0 .3782.068.521.204.1448.134.2173.295.2173.483 0 .189-.0725.352-.2173.489-.1428.134-.3164.201-.521.201zm5.8591 2.033-1.2464.076c-.0213-.106-.0672-.202-.1375-.287-.0703-.088-.163-.157-.278-.208-.1129-.053-.2482-.08-.4059-.08-.2109 0-.3889.045-.5337.134-.1449.088-.2174.205-.2174.352 0 .117.0469.216.1406.297.0938.081.2547.146.4826.195l.8885.179c.4773.098.8331.256 1.0675.473s.3516.503.3516.857c0 .321-.0948.604-.2845.847-.1875.243-.4453.432-.7734.569-.326.134-.7021.201-1.1282.201-.6499 0-1.1676-.135-1.5533-.406-.3835-.273-.6083-.643-.6743-1.112l1.3391-.071c.0405.199.1385.35.294.454.1556.103.3548.154.5977.154.2386 0 .4304-.046.5753-.138.147-.093.2216-.214.2237-.361-.0021-.123-.0543-.225-.1566-.304-.1023-.08-.26-.142-.473-.185l-.8502-.169c-.4794-.096-.8363-.262-1.0706-.499-.2323-.236-.3484-.538-.3484-.904 0-.316.0852-.587.2557-.815.1726-.228.4144-.404.7255-.528.3132-.123.6797-.185 1.0994-.185.62 0 1.108.131 1.4638.393.3579.262.5668.619.6264 1.071zm5.3981 3.509h-2.3203v-6.545h2.3395c.6584 0 1.2251.131 1.7003.393.4751.26.8405.634 1.0962 1.121.2578.488.3867 1.072.3867 1.752 0 .682-.1289 1.268-.3867 1.758-.2557.49-.6232.866-1.1026 1.128-.4773.262-1.0483.393-1.7131.393zm-.9364-1.186h.8789c.4091 0 .7532-.072 1.0323-.217.2812-.147.4922-.374.6328-.681.1428-.309.2141-.707.2141-1.195 0-.484-.0713-.879-.2141-1.186-.1406-.307-.3505-.533-.6296-.677-.2791-.145-.6232-.218-1.0323-.218h-.8821zm7.3756 1.282c-.505 0-.9396-.102-1.304-.307-.3622-.207-.6413-.499-.8374-.876-.196-.379-.294-.827-.294-1.345 0-.505.098-.948.294-1.33.1961-.381.472-.678.8278-.891.358-.213.7777-.32 1.2593-.32.3238 0 .6253.052.9044.157.2813.102.5263.256.7351.463.2109.207.375.467.4922.78.1172.311.1758.675.1758 1.093v.374h-4.1453v-.844h2.8637c0-.196-.0426-.37-.1279-.521-.0852-.151-.2034-.269-.3547-.355-.1492-.087-.3228-.131-.521-.131-.2067 0-.3899.048-.5497.144-.1577.094-.2812.221-.3707.38-.0895.158-.1353.334-.1375.528v.802c0 .243.0448.453.1343.63.0916.176.2205.313.3867.409s.3633.144.5913.144c.1512 0 .2897-.022.4154-.064.1257-.043.2333-.107.3228-.192s.1577-.19.2046-.313l1.2592.083c-.0639.302-.1949.567-.3931.792-.196.224-.4496.399-.7606.525-.309.123-.6659.185-1.0707.185zm7.5865-5.005-1.7162 4.909h-1.5341l-1.7163-4.909h1.4382l1.0196 3.512h.0511l1.0163-3.512zm2.7758 5.005c-.505 0-.9396-.102-1.304-.307-.3622-.207-.6413-.499-.8373-.876-.1961-.379-.2941-.827-.2941-1.345 0-.505.098-.948.2941-1.33.196-.381.4719-.678.8277-.891.358-.213.7777-.32 1.2593-.32.3238 0 .6251.052.9041.157.282.102.527.256.735.463.211.207.375.467.493.78.117.311.175.675.175 1.093v.374h-4.1449v-.844h2.8639c0-.196-.043-.37-.128-.521s-.204-.269-.355-.355c-.149-.087-.3226-.131-.5208-.131-.2066 0-.3899.048-.5497.144-.1577.094-.2812.221-.3707.38-.0895.158-.1353.334-.1375.528v.802c0 .243.0448.453.1343.63.0916.176.2205.313.3867.409s.3633.144.5913.144c.1512 0 .2897-.022.4154-.064.126-.043.233-.107.323-.192.089-.085.158-.19.204-.313l1.26.083c-.064.302-.195.567-.393.792-.197.224-.45.399-.761.525-.309.123-.666.185-1.0708.185zm4.5028-6.641v6.545h-1.361v-6.545zm3.309 6.641c-.496 0-.926-.106-1.288-.317-.36-.213-.638-.509-.834-.888-.196-.381-.294-.824-.294-1.326 0-.507.098-.951.294-1.33.196-.381.474-.677.834-.888.362-.213.792-.32 1.288-.32.497 0 .925.107 1.285.32.362.211.641.507.837.888.196.379.294.823.294 1.33 0 .502-.098.945-.294 1.326-.196.379-.475.675-.837.888-.36.211-.788.317-1.285.317zm.006-1.055c.226 0 .415-.064.566-.192.151-.13.265-.306.342-.53.079-.224.118-.478.118-.764 0-.285-.039-.54-.118-.764-.077-.224-.191-.4-.342-.53s-.34-.195-.566-.195c-.228 0-.419.065-.575.195-.153.13-.269.306-.348.53-.077.224-.115.479-.115.764 0 .286.038.54.115.764.079.224.195.4.348.53.156.128.347.192.575.192zm3.296 2.8v-6.75h1.342v.824h.061c.059-.132.146-.266.258-.402.116-.139.265-.254.448-.345.185-.094.415-.141.69-.141.358 0 .688.094.991.281.303.186.544.466.726.841.181.373.271.84.271 1.403 0 .547-.088 1.01-.265 1.387-.175.375-.413.659-.716.853-.3.192-.637.288-1.01.288-.264 0-.489-.044-.674-.131-.184-.087-.334-.197-.451-.329-.117-.135-.207-.27-.268-.406h-.042v2.627zm1.332-4.296c0 .292.041.547.122.764.081.218.198.387.351.508.154.12.34.179.56.179.221 0 .409-.06.562-.182.154-.123.27-.294.348-.511.081-.22.122-.472.122-.758 0-.283-.039-.532-.118-.747-.079-.216-.195-.384-.349-.505-.153-.122-.342-.183-.565-.183-.222 0-.409.059-.563.176-.151.117-.267.284-.348.499s-.122.469-.122.76zm6.6 2.551c-.505 0-.94-.102-1.304-.307-.362-.207-.641-.499-.837-.876-.196-.379-.294-.827-.294-1.345 0-.505.098-.948.294-1.33.196-.381.472-.678.828-.891.357-.213.777-.32 1.259-.32.324 0 .625.052.904.157.281.102.527.256.735.463.211.207.375.467.493.78.117.311.175.675.175 1.093v.374h-4.145v-.844h2.864c0-.196-.043-.37-.128-.521s-.204-.269-.355-.355c-.149-.087-.323-.131-.521-.131-.207 0-.39.048-.55.144-.157.094-.281.221-.37.38-.09.158-.136.334-.138.528v.802c0 .243.045.453.134.63.092.176.221.313.387.409s.363.144.591.144c.152 0 .29-.022.416-.064.126-.043.233-.107.323-.192.089-.085.157-.19.204-.313l1.26.083c-.064.302-.195.567-.394.792-.196.224-.449.399-.76.525-.309.123-.666.185-1.071.185zm3.142-.096v-4.909h1.32v.856h.051c.089-.304.24-.534.451-.69.21-.158.453-.236.728-.236.068 0 .142.004.221.012.079.009.148.021.207.036v1.208c-.063-.02-.152-.037-.265-.052-.113-.014-.216-.022-.31-.022-.2 0-.379.044-.537.131-.155.085-.279.205-.37.358-.09.154-.135.33-.135.531v2.777z" fill="#42b883"/><g clip-path="url(#d)"><path d="m274.895 56h-21.199c-.936 0-1.696.7649-1.696 1.7084s.76 1.7083 1.696 1.7083h21.199c.937 0 1.696-.7648 1.696-1.7083s-.759-1.7084-1.696-1.7084z" fill="#37775b"/><path d="m295.316 56h-11.376c-.937 0-1.697.7649-1.697 1.7084s.76 1.7083 1.697 1.7083h11.376c.937 0 1.697-.7648 1.697-1.7083s-.76-1.7084-1.697-1.7084z" fill="#fff" fill-opacity=".03"/><path d="m293.491 67.252h21.198c.937 0 1.697-.7649 1.697-1.7084s-.76-1.7084-1.697-1.7084h-21.198c-.937 0-1.697.7649-1.697 1.7084s.76 1.7084 1.697 1.7084z" fill="#282f31"/><path d="m337.243 67.252h21.198c.937 0 1.697-.7649 1.697-1.7084s-.76-1.7084-1.697-1.7084h-21.198c-.937 0-1.697.7649-1.697 1.7084s.76 1.7084 1.697 1.7084z" fill="#fff" fill-opacity=".03"/><path d="m364.834 67.252h21.199c.937 0 1.696-.7649 1.696-1.7084s-.759-1.7084-1.696-1.7084h-21.199c-.936 0-1.696.7649-1.696 1.7084s.76 1.7084 1.696 1.7084z" fill="#fff" fill-opacity=".03"/><path d="m321.605 67.252h8.903c.937 0 1.696-.7649 1.696-1.7084s-.759-1.7084-1.696-1.7084h-8.903c-.937 0-1.697.7649-1.697 1.7084s.76 1.7084 1.697 1.7084z" fill="#fff" fill-opacity=".03"/><path d="m264.967 67.252h21.611c.937 0 1.696-.7649 1.696-1.7084s-.759-1.7084-1.696-1.7084h-21.611c-.937 0-1.697.7649-1.697 1.7084s.76 1.7084 1.697 1.7084z" fill="#fff" fill-opacity=".03"/><path d="m330.904 75.0928h21.198c.937 0 1.697-.7649 1.697-1.7084s-.76-1.7083-1.697-1.7083h-21.198c-.937 0-1.697.7648-1.697 1.7083s.76 1.7084 1.697 1.7084z" fill="#fff" fill-opacity=".03"/><path d="m313.899 75.0928h8.903c.937 0 1.696-.7649 1.696-1.7084s-.759-1.7083-1.696-1.7083h-8.903c-.937 0-1.697.7648-1.697 1.7083s.76 1.7084 1.697 1.7084z" fill="#fff" fill-opacity=".03"/><path d="m264.969 75.0928h40.83c.937 0 1.696-.7649 1.696-1.7084s-.759-1.7083-1.696-1.7083h-40.83c-.937 0-1.697.7648-1.697 1.7083s.76 1.7084 1.697 1.7084z" fill="#303a3a"/><path d="m406.885 75.0928h8.903c.937 0 1.696-.7649 1.696-1.7084s-.759-1.7083-1.696-1.7083h-8.903c-.937 0-1.696.7648-1.696 1.7083s.759 1.7084 1.696 1.7084z" fill="#42b883" opacity=".4"/><path d="m357.952 75.0928h40.83c.937 0 1.697-.7649 1.697-1.7084s-.76-1.7083-1.697-1.7083h-40.83c-.937 0-1.696.7648-1.696 1.7083s.759 1.7084 1.696 1.7084z" fill="#fff" fill-opacity=".03"/><path d="m305.361 82.9282h21.198c.937 0 1.697-.7648 1.697-1.7083s-.76-1.7084-1.697-1.7084h-21.198c-.937 0-1.697.7649-1.697 1.7084s.76 1.7083 1.697 1.7083z" fill="#fff" fill-opacity=".03"/><path d="m333.472 82.9282h8.903c.937 0 1.696-.7648 1.696-1.7083s-.759-1.7084-1.696-1.7084h-8.903c-.937 0-1.696.7649-1.696 1.7084s.759 1.7083 1.696 1.7083z" fill="#a0a4a3" fill-opacity=".03"/><path d="m348.039 82.9282h21.198c.937 0 1.697-.7648 1.697-1.7083s-.76-1.7084-1.697-1.7084h-21.198c-.937 0-1.697.7649-1.697 1.7084s.76 1.7083 1.697 1.7083z" fill="#fff" fill-opacity=".03"/><path d="m376.15 82.9282h8.903c.936 0 1.696-.7648 1.696-1.7083s-.76-1.7084-1.696-1.7084h-8.903c-.937 0-1.697.7649-1.697 1.7084s.76 1.7083 1.697 1.7083z" fill="#fff" fill-opacity=".03"/><path d="m276.837 82.9282h21.611c.937 0 1.697-.7648 1.697-1.7083s-.76-1.7084-1.697-1.7084h-21.611c-.937 0-1.697.7649-1.697 1.7084s.76 1.7083 1.697 1.7083z" fill="#fff" fill-opacity=".03"/><path d="m342.777 90.7661h21.198c.937 0 1.697-.7648 1.697-1.7083s-.76-1.7084-1.697-1.7084h-21.198c-.937 0-1.697.7649-1.697 1.7084s.76 1.7083 1.697 1.7083z" fill="#fff" fill-opacity=".03"/><path d="m325.772 90.7661h8.903c.937 0 1.696-.7648 1.696-1.7083s-.759-1.7084-1.696-1.7084h-8.903c-.937 0-1.697.7649-1.697 1.7084s.76 1.7083 1.697 1.7083z" fill="#fff" fill-opacity=".03"/><path d="m276.837 90.7661h40.83c.937 0 1.696-.7648 1.696-1.7083s-.759-1.7084-1.696-1.7084h-40.83c-.937 0-1.696.7649-1.696 1.7084s.759 1.7083 1.696 1.7083z" fill="#42b883" opacity=".4"/><path d="m422.095 90.7661h8.903c.937 0 1.696-.7648 1.696-1.7083s-.759-1.7084-1.696-1.7084h-8.903c-.937 0-1.696.7649-1.696 1.7084s.759 1.7083 1.696 1.7083z" fill="#fff" fill-opacity=".03"/><path d="m373.162 90.7661h40.83c.937 0 1.696-.7648 1.696-1.7083s-.759-1.7084-1.696-1.7084h-40.83c-.937 0-1.696.7649-1.696 1.7084s.759 1.7083 1.696 1.7083z" fill="#fff" fill-opacity=".03"/><path d="m330.056 98.6016h21.199c.937 0 1.696-.7649 1.696-1.7084s-.759-1.7083-1.696-1.7083h-21.199c-.937 0-1.696.7648-1.696 1.7083s.759 1.7084 1.696 1.7084z" fill="#fff" fill-opacity=".03"/><path d="m358.872 98.6016h21.198c.937 0 1.697-.7649 1.697-1.7084s-.76-1.7083-1.697-1.7083h-21.198c-.937 0-1.697.7648-1.697 1.7083s.76 1.7084 1.697 1.7084z" fill="#fff" fill-opacity=".03"/><path d="m313.051 98.6016h8.903c.937 0 1.696-.7649 1.696-1.7084s-.759-1.7083-1.696-1.7083h-8.903c-.937 0-1.696.7648-1.696 1.7083s.759 1.7084 1.696 1.7084z" fill="#fff" fill-opacity=".03"/><path d="m264.121 98.6016h40.83c.937 0 1.696-.7649 1.696-1.7084s-.759-1.7083-1.696-1.7083h-40.83c-.937 0-1.696.7648-1.696 1.7083s.759 1.7084 1.696 1.7084z" fill="#fff" fill-opacity=".03"/><path d="m274.895 103.023h-21.199c-.936 0-1.696.765-1.696 1.708 0 .944.76 1.709 1.696 1.709h21.199c.937 0 1.696-.765 1.696-1.709 0-.943-.759-1.708-1.696-1.708z" fill="#fff" fill-opacity=".03"/><path d="m293.037 103.023h-11.377c-.937 0-1.696.765-1.696 1.708 0 .944.759 1.709 1.696 1.709h11.377c.937 0 1.696-.765 1.696-1.709 0-.943-.759-1.708-1.696-1.708z" fill="#fff" fill-opacity=".03"/><path d="m311.225 103.023h-11.376c-.937 0-1.697.765-1.697 1.708 0 .944.76 1.709 1.697 1.709h11.376c.937 0 1.697-.765 1.697-1.709 0-.943-.76-1.708-1.697-1.708z" fill="#fff" fill-opacity=".03"/><path d="m293.491 114.278h21.198c.937 0 1.697-.765 1.697-1.709 0-.943-.76-1.708-1.697-1.708h-21.198c-.937 0-1.697.765-1.697 1.708 0 .944.76 1.709 1.697 1.709z" fill="#fff" fill-opacity=".03"/><path d="m321.602 114.278h24.543c.937 0 1.697-.765 1.697-1.709 0-.943-.76-1.708-1.697-1.708h-24.543c-.937 0-1.697.765-1.697 1.708 0 .944.76 1.709 1.697 1.709z" fill="#fff" fill-opacity=".03"/><path d="m353.058 114.278h8.232c.937 0 1.696-.765 1.696-1.709 0-.943-.759-1.708-1.696-1.708h-8.232c-.937 0-1.696.765-1.696 1.708 0 .944.759 1.709 1.696 1.709z" fill="#fff" fill-opacity=".03"/><path d="m264.967 114.278h21.611c.937 0 1.696-.765 1.696-1.709 0-.943-.759-1.708-1.696-1.708h-21.611c-.937 0-1.697.765-1.697 1.708 0 .944.76 1.709 1.697 1.709z" fill="#fff" fill-opacity=".03"/><path d="m281.101 118.699h-16.134c-.937 0-1.696.765-1.696 1.709 0 .943.759 1.708 1.696 1.708h16.134c.937 0 1.697-.765 1.697-1.708 0-.944-.76-1.709-1.697-1.709z" fill="#37775b"/><g fill="#fff"><path d="m298.107 118.699h-8.903c-.937 0-1.696.765-1.696 1.709 0 .943.759 1.708 1.696 1.708h8.903c.937 0 1.697-.765 1.697-1.708 0-.944-.76-1.709-1.697-1.709z" fill-opacity=".03"/><path d="m347.039 118.699h-40.83c-.937 0-1.696.765-1.696 1.709 0 .943.759 1.708 1.696 1.708h40.83c.937 0 1.696-.765 1.696-1.708 0-.944-.759-1.709-1.696-1.709z" fill-opacity=".03"/><path d="m371.208 118.699h-16.135c-.936 0-1.696.765-1.696 1.709 0 .943.76 1.708 1.696 1.708h16.135c.937 0 1.696-.765 1.696-1.708 0-.944-.759-1.709-1.696-1.709z" fill-opacity=".03"/><path d="m388.214 118.699h-8.903c-.937 0-1.697.765-1.697 1.709 0 .943.76 1.708 1.697 1.708h8.903c.936 0 1.696-.765 1.696-1.708 0-.944-.76-1.709-1.696-1.709z" fill-opacity=".03"/><path d="m437.145 118.699h-40.829c-.937 0-1.697.765-1.697 1.709 0 .943.76 1.708 1.697 1.708h40.829c.937 0 1.697-.765 1.697-1.708 0-.944-.76-1.709-1.697-1.709z" fill-opacity=".03"/><path d="m305.361 129.951h21.198c.937 0 1.697-.765 1.697-1.708 0-.944-.76-1.709-1.697-1.709h-21.198c-.937 0-1.697.765-1.697 1.709 0 .943.76 1.708 1.697 1.708z" fill-opacity=".03"/><path d="m333.472 129.951h44.088c.937 0 1.697-.765 1.697-1.708 0-.944-.76-1.709-1.697-1.709h-44.088c-.937 0-1.697.765-1.697 1.709 0 .943.76 1.708 1.697 1.708z" fill-opacity=".03"/><path d="m385.455 129.951h44.089c.937 0 1.696-.765 1.696-1.708 0-.944-.759-1.709-1.696-1.709h-44.089c-.937 0-1.696.765-1.696 1.709 0 .943.759 1.708 1.696 1.708z" fill-opacity=".03"/><path d="m276.837 129.951h21.611c.937 0 1.697-.765 1.697-1.708 0-.944-.76-1.709-1.697-1.709h-21.611c-.937 0-1.697.765-1.697 1.709 0 .943.76 1.708 1.697 1.708z" fill-opacity=".03"/><path d="m342.778 137.792h10.128c.937 0 1.697-.765 1.697-1.709 0-.943-.76-1.708-1.697-1.708h-10.128c-.937 0-1.697.765-1.697 1.708 0 .944.76 1.709 1.697 1.709z" fill-opacity=".03"/><path d="m325.772 137.792h8.903c.937 0 1.696-.765 1.696-1.709 0-.943-.759-1.708-1.696-1.708h-8.903c-.937 0-1.697.765-1.697 1.708 0 .944.76 1.709 1.697 1.709z" fill-opacity=".03"/><path d="m276.837 137.792h40.83c.937 0 1.696-.765 1.696-1.709 0-.943-.759-1.708-1.696-1.708h-40.83c-.937 0-1.696.765-1.696 1.708 0 .944.759 1.709 1.696 1.709z" fill-opacity=".03"/><path d="m427.017 137.792h10.128c.937 0 1.697-.765 1.697-1.709 0-.943-.76-1.708-1.697-1.708h-10.128c-.937 0-1.696.765-1.696 1.708 0 .944.759 1.709 1.696 1.709z" fill-opacity=".03"/><path d="m410.012 137.792h8.903c.937 0 1.696-.765 1.696-1.709 0-.943-.759-1.708-1.696-1.708h-8.903c-.937 0-1.696.765-1.696 1.708 0 .944.759 1.709 1.696 1.709z" fill-opacity=".03"/><path d="m361.079 137.792h40.83c.937 0 1.696-.765 1.696-1.709 0-.943-.759-1.708-1.696-1.708h-40.83c-.937 0-1.696.765-1.696 1.708 0 .944.759 1.709 1.696 1.709z" fill-opacity=".03"/><path d="m311.696 142.21h-12.319c-.937 0-1.696.765-1.696 1.709 0 .943.759 1.708 1.696 1.708h12.319c.937 0 1.696-.765 1.696-1.708 0-.944-.759-1.709-1.696-1.709z" fill-opacity=".03"/><path d="m293.663 142.21h-29.545c-.937 0-1.696.765-1.696 1.709 0 .943.759 1.708 1.696 1.708h29.545c.937 0 1.696-.765 1.696-1.708 0-.944-.759-1.709-1.696-1.709z" fill-opacity=".03"/><path d="m322.558 142.21h-4.461c-.937 0-1.697.765-1.697 1.709 0 .943.76 1.708 1.697 1.708h4.461c.937 0 1.697-.765 1.697-1.708 0-.944-.76-1.709-1.697-1.709z" fill-opacity=".03"/><path d="m353.82 142.21h-24.86c-.937 0-1.696.765-1.696 1.709 0 .943.759 1.708 1.696 1.708h24.86c.937 0 1.697-.765 1.697-1.708 0-.944-.76-1.709-1.697-1.709z" fill-opacity=".03"/><path d="m402.177 145.627h12.319c.937 0 1.696-.765 1.696-1.708 0-.944-.759-1.709-1.696-1.709h-12.319c-.937 0-1.696.765-1.696 1.709 0 .943.759 1.708 1.696 1.708z" fill-opacity=".03"/><path d="m391.317 145.627h4.461c.937 0 1.697-.765 1.697-1.708 0-.944-.76-1.709-1.697-1.709h-4.461c-.937 0-1.697.765-1.697 1.709 0 .943.76 1.708 1.697 1.708z" fill-opacity=".03"/><path d="m360.051 145.627h24.86c.937 0 1.696-.765 1.696-1.708 0-.944-.759-1.709-1.696-1.709h-24.86c-.937 0-1.696.765-1.696 1.709 0 .943.759 1.708 1.696 1.708z" fill-opacity=".03"/><path d="m342.987 153.465h21.198c.937 0 1.697-.765 1.697-1.708 0-.944-.76-1.708-1.697-1.708h-21.198c-.937 0-1.697.764-1.697 1.708 0 .943.76 1.708 1.697 1.708z" fill-opacity=".03"/><path d="m325.982 153.465h8.903c.937 0 1.696-.765 1.696-1.708 0-.944-.759-1.708-1.696-1.708h-8.903c-.937 0-1.697.764-1.697 1.708 0 .943.76 1.708 1.697 1.708z" fill-opacity=".03"/><path d="m277.052 153.465h40.83c.937 0 1.696-.765 1.696-1.708 0-.944-.759-1.708-1.696-1.708h-40.83c-.937 0-1.697.764-1.697 1.708 0 .943.76 1.708 1.697 1.708z" fill-opacity=".03"/><path d="m306.457 161.301h40.536c.937 0 1.696-.765 1.696-1.709 0-.943-.759-1.708-1.696-1.708h-40.536c-.937 0-1.696.765-1.696 1.708 0 .944.759 1.709 1.696 1.709z" fill-opacity=".03"/><path d="m295.595 161.301h4.461c.937 0 1.697-.765 1.697-1.709 0-.943-.76-1.708-1.697-1.708h-4.461c-.937 0-1.697.765-1.697 1.708 0 .944.76 1.709 1.697 1.709z" fill-opacity=".03"/></g><path d="m264.331 161.301h24.86c.937 0 1.697-.765 1.697-1.709 0-.943-.76-1.708-1.697-1.708h-24.86c-.937 0-1.696.765-1.696 1.708 0 .944.759 1.709 1.696 1.709z" fill="#356c55"/><path d="m422.1 153.465h8.903c.937 0 1.696-.765 1.696-1.708 0-.944-.759-1.708-1.696-1.708h-8.903c-.937 0-1.697.764-1.697 1.708 0 .943.76 1.708 1.697 1.708z" fill="#42b883"/><path d="m373.167 153.465h40.83c.937 0 1.696-.765 1.696-1.708 0-.944-.759-1.708-1.696-1.708h-40.83c-.937 0-1.696.764-1.696 1.708 0 .943.759 1.708 1.696 1.708z" fill="#fff" fill-opacity=".03"/><path d="m395.907 161.301h40.536c.937 0 1.697-.765 1.697-1.709 0-.943-.76-1.708-1.697-1.708h-40.536c-.937 0-1.696.765-1.696 1.708 0 .944.759 1.709 1.696 1.709z" fill="#fff" fill-opacity=".03"/><path d="m385.045 161.301h4.462c.937 0 1.696-.765 1.696-1.709 0-.943-.759-1.708-1.696-1.708h-4.462c-.937 0-1.696.765-1.696 1.708 0 .944.759 1.709 1.696 1.709z" fill="#fff" fill-opacity=".03"/><path d="m353.782 161.301h24.859c.937 0 1.697-.765 1.697-1.709 0-.943-.76-1.708-1.697-1.708h-24.859c-.937 0-1.697.765-1.697 1.708 0 .944.76 1.709 1.697 1.709z" fill="#fff" fill-opacity=".03"/><path d="m274.895 165.722h-21.199c-.936 0-1.696.765-1.696 1.709 0 .943.76 1.708 1.696 1.708h21.199c.937 0 1.696-.765 1.696-1.708 0-.944-.759-1.709-1.696-1.709z" fill="#42b883"/><path d="m295.316 165.722h-11.376c-.937 0-1.697.765-1.697 1.709 0 .943.76 1.708 1.697 1.708h11.376c.937 0 1.697-.765 1.697-1.708 0-.944-.76-1.709-1.697-1.709z" fill="#fff" fill-opacity=".03"/><path d="m313.182 165.722h-11.376c-.937 0-1.697.765-1.697 1.709 0 .943.76 1.708 1.697 1.708h11.376c.937 0 1.697-.765 1.697-1.708 0-.944-.76-1.709-1.697-1.709z" fill="#fff" fill-opacity=".03"/><path d="m332.312 165.722h-11.376c-.937 0-1.697.765-1.697 1.709 0 .943.76 1.708 1.697 1.708h11.376c.937 0 1.697-.765 1.697-1.708 0-.944-.76-1.709-1.697-1.709z" fill="#fff" fill-opacity=".03"/><path d="m293.493 176.977h39.045c.937 0 1.696-.765 1.696-1.709 0-.943-.759-1.708-1.696-1.708h-39.045c-.937 0-1.696.765-1.696 1.708 0 .944.759 1.709 1.696 1.709z" fill="#fff" fill-opacity=".03"/><path d="m339.451 176.977h8.902c.937 0 1.697-.765 1.697-1.709 0-.943-.76-1.708-1.697-1.708h-8.902c-.937 0-1.697.765-1.697 1.708 0 .944.76 1.709 1.697 1.709z" fill="#fff" fill-opacity=".03"/><path d="m264.967 176.977h21.611c.937 0 1.696-.765 1.696-1.709 0-.943-.759-1.708-1.696-1.708h-21.611c-.937 0-1.697.765-1.697 1.708 0 .944.76 1.709 1.697 1.709z" fill="#fff" fill-opacity=".03"/><path d="m384.268 176.977h39.044c.937 0 1.697-.765 1.697-1.709 0-.943-.76-1.708-1.697-1.708h-39.044c-.937 0-1.697.765-1.697 1.708 0 .944.76 1.709 1.697 1.709z" fill="#fff" fill-opacity=".03"/><path d="m430.225 176.977h8.903c.937 0 1.696-.765 1.696-1.709 0-.943-.759-1.708-1.696-1.708h-8.903c-.937 0-1.697.765-1.697 1.708 0 .944.76 1.709 1.697 1.709z" fill="#366f57"/><path d="m355.741 176.977h21.611c.937 0 1.697-.765 1.697-1.709 0-.943-.76-1.708-1.697-1.708h-21.611c-.937 0-1.696.765-1.696 1.708 0 .944.759 1.709 1.696 1.709z" fill="#fff" fill-opacity=".03"/><path d="m330.904 184.815h21.198c.937 0 1.697-.765 1.697-1.708 0-.944-.76-1.709-1.697-1.709h-21.198c-.937 0-1.697.765-1.697 1.709 0 .943.76 1.708 1.697 1.708z" fill="#fff" fill-opacity=".03"/><path d="m358.871 184.815h21.198c.937 0 1.697-.765 1.697-1.708 0-.944-.76-1.709-1.697-1.709h-21.198c-.937 0-1.697.765-1.697 1.709 0 .943.76 1.708 1.697 1.708z" fill="#fff" fill-opacity=".03"/><path d="m386.835 184.815h21.199c.937 0 1.696-.765 1.696-1.708 0-.944-.759-1.709-1.696-1.709h-21.199c-.936 0-1.696.765-1.696 1.709 0 .943.76 1.708 1.696 1.708z" fill="#fff" fill-opacity=".03"/><path d="m313.899 184.815h8.903c.937 0 1.696-.765 1.696-1.708 0-.944-.759-1.709-1.696-1.709h-8.903c-.937 0-1.697.765-1.697 1.709 0 .943.76 1.708 1.697 1.708z" fill="#fff" fill-opacity=".03"/><path d="m264.969 184.815h40.83c.937 0 1.696-.765 1.696-1.708 0-.944-.759-1.709-1.696-1.709h-40.83c-.937 0-1.697.765-1.697 1.709 0 .943.76 1.708 1.697 1.708z" fill="#fff" fill-opacity=".03"/><path d="m305.361 192.65h21.198c.937 0 1.697-.764 1.697-1.708 0-.943-.76-1.708-1.697-1.708h-21.198c-.937 0-1.697.765-1.697 1.708 0 .944.76 1.708 1.697 1.708z" fill="#fff" fill-opacity=".03"/><path d="m333.472 192.65h8.903c.937 0 1.696-.764 1.696-1.708 0-.943-.759-1.708-1.696-1.708h-8.903c-.937 0-1.696.765-1.696 1.708 0 .944.759 1.708 1.696 1.708z" fill="#fff" fill-opacity=".03"/><path d="m276.837 192.65h21.611c.937 0 1.697-.764 1.697-1.708 0-.943-.76-1.708-1.697-1.708h-21.611c-.937 0-1.697.765-1.697 1.708 0 .944.76 1.708 1.697 1.708z" fill="#fff" fill-opacity=".03"/><path d="m379.515 192.65h21.199c.937 0 1.696-.764 1.696-1.708 0-.943-.759-1.708-1.696-1.708h-21.199c-.937 0-1.696.765-1.696 1.708 0 .944.759 1.708 1.696 1.708z" fill="#fff" fill-opacity=".03"/><path d="m407.626 192.65h8.903c.937 0 1.697-.764 1.697-1.708 0-.943-.76-1.708-1.697-1.708h-8.903c-.937 0-1.696.765-1.696 1.708 0 .944.759 1.708 1.696 1.708z" fill="#fff" fill-opacity=".03"/><path d="m350.991 192.65h21.611c.937 0 1.697-.764 1.697-1.708 0-.943-.76-1.708-1.697-1.708h-21.611c-.937 0-1.696.765-1.696 1.708 0 .944.759 1.708 1.696 1.708z" fill="#fff" fill-opacity=".03"/><path d="m342.777 200.491h21.198c.937 0 1.697-.765 1.697-1.709 0-.943-.76-1.708-1.697-1.708h-21.198c-.937 0-1.697.765-1.697 1.708 0 .944.76 1.709 1.697 1.709z" fill="#fff" fill-opacity=".03"/><path d="m371.263 200.491h10.029c.937 0 1.696-.765 1.696-1.709 0-.943-.759-1.708-1.696-1.708h-10.029c-.936 0-1.696.765-1.696 1.708 0 .944.76 1.709 1.696 1.709z" fill="#42b883" opacity=".4"/><path d="m325.772 200.491h8.903c.937 0 1.696-.765 1.696-1.709 0-.943-.759-1.708-1.696-1.708h-8.903c-.937 0-1.697.765-1.697 1.708 0 .944.76 1.709 1.697 1.709z" fill="#fff" fill-opacity=".03"/><path d="m276.837 200.491h40.83c.937 0 1.696-.765 1.696-1.709 0-.943-.759-1.708-1.696-1.708h-40.83c-.937 0-1.696.765-1.696 1.708 0 .944.759 1.709 1.696 1.709z" fill="#42b883"/><path d="m306.245 208.326h12.318c.937 0 1.697-.765 1.697-1.708 0-.944-.76-1.709-1.697-1.709h-12.318c-.937 0-1.697.765-1.697 1.709 0 .943.76 1.708 1.697 1.708z" fill="#42b883" opacity=".4"/><path d="m325.618 208.326h12.318c.937 0 1.697-.765 1.697-1.708 0-.944-.76-1.709-1.697-1.709h-12.318c-.937 0-1.697.765-1.697 1.709 0 .943.76 1.708 1.697 1.708z" fill="#fff" fill-opacity=".03"/><path d="m295.382 208.326h4.462c.936 0 1.696-.765 1.696-1.708 0-.944-.76-1.709-1.696-1.709h-4.462c-.937 0-1.696.765-1.696 1.709 0 .943.759 1.708 1.696 1.708z" fill="#fff" fill-opacity=".03"/><path d="m264.121 208.326h24.86c.937 0 1.697-.765 1.697-1.708 0-.944-.76-1.709-1.697-1.709h-24.86c-.937 0-1.696.765-1.696 1.709 0 .943.759 1.708 1.696 1.708z" fill="#fff" fill-opacity=".03"/><path d="m325.982 216.165h8.903c.937 0 1.696-.765 1.696-1.709 0-.943-.759-1.708-1.696-1.708h-8.903c-.937 0-1.697.765-1.697 1.708 0 .944.76 1.709 1.697 1.709z" fill="#fff" fill-opacity=".03"/><path d="m277.052 216.165h40.83c.937 0 1.696-.765 1.696-1.709 0-.943-.759-1.708-1.696-1.708h-40.83c-.937 0-1.697.765-1.697 1.708 0 .944.76 1.709 1.697 1.709z" fill="#fff" fill-opacity=".03"/><path d="m306.457 224h22.447c.937 0 1.697-.765 1.697-1.708 0-.944-.76-1.709-1.697-1.709h-22.447c-.937 0-1.696.765-1.696 1.709 0 .943.759 1.708 1.696 1.708z" fill="#fff" fill-opacity=".03"/><path d="m295.595 224h4.461c.937 0 1.697-.765 1.697-1.708 0-.944-.76-1.709-1.697-1.709h-4.461c-.937 0-1.697.765-1.697 1.709 0 .943.76 1.708 1.697 1.708z" fill="#42b883"/><path d="m264.331 224h24.86c.937 0 1.697-.765 1.697-1.708 0-.944-.76-1.709-1.697-1.709h-24.86c-.937 0-1.696.765-1.696 1.709 0 .943.759 1.708 1.696 1.708z" fill="#fff" fill-opacity=".03"/></g><rect height="219" rx="3.5" stroke="#42b883" width="430" x="30.5" y="30.5"/><rect height="279.5" rx="19.75" stroke="url(#c)" stroke-opacity=".3" stroke-width=".5" width="490.5" x=".25" y=".25"/></svg>